original-source.ufo
<glyph name="i_custom_folder_npm" format="2">
  <advance width="1000"/>
  <unicode hex="E5FA"/>
  <note>
i_custom_folder_npm
</note>
  <outline>
    <contour>
      <point x="93.58" y="287.73" type="line"/>
      <point x="93.57" y="558.18" type="line"/>
      <point x="897.42" y="558.18" type="line"/>
      <point x="897.42" y="287.73" type="line"/>
      <point x="496.25" y="287.73" type="line"/>
      <point x="496.25" y="242.65" type="line"/>
      <point x="315.95" y="242.65" type="line"/>
      <point x="315.95" y="287.73" type="line"/>
    </contour>
    <contour>
      <point x="270.87" y="332.8" type="line"/>
      <point x="315.95" y="332.8" type="line"/>
      <point x="315.95" y="513.1" type="line"/>
      <point x="138.65" y="513.1" type="line"/>
      <point x="138.65" y="332.8" type="line"/>
      <point x="228.8" y="332.8" type="line"/>
      <point x="228.8" y="465.02" type="line"/>
      <point x="270.87" y="465.02" type="line"/>
    </contour>
    <contour>
      <point x="452.67" y="332.79" type="line"/>
      <point x="541.32" y="332.8" type="line"/>
      <point x="541.32" y="513.1" type="line"/>
      <point x="362.52" y="513.1" type="line"/>
      <point x="362.52" y="287.72" type="line"/>
      <point x="452.67" y="287.72" type="line"/>
    </contour>
    <contour>
      <point x="810.29" y="332.79" type="line"/>
      <point x="855.35" y="332.79" type="line"/>
      <point x="855.35" y="513.09" type="line"/>
      <point x="584.9" y="513.09" type="line"/>
      <point x="584.9" y="332.79" type="line"/>
      <point x="675.05" y="332.79" type="line"/>
      <point x="675.05" y="465.01" type="line"/>
      <point x="720.13" y="465.01" type="line"/>
      <point x="720.13" y="332.79" type="line"/>
      <point x="765.21" y="332.79" type="line"/>
      <point x="765.21" y="465.01" type="line"/>
      <point x="810.29" y="465.01" type="line"/>
    </contour>
    <contour>
      <point x="452.69" y="465.01" type="line"/>
      <point x="496.26" y="465.01" type="line"/>
      <point x="496.26" y="380.87" type="line"/>
      <point x="452.69" y="380.87" type="line"/>
    </contour>
    <contour>
      <point x="443.66" y="813.59" type="curve"/>
      <point x="53.01" y="813.59" type="line"/>
      <point x="53.01" y="86.37" type="line"/>
      <point x="947.01" y="86.37" type="line"/>
      <point x="947.01" y="700.9" type="line"/>
      <point x="556.35" y="700.9" type="line"/>
      <point x="518.79" y="738.46"/>
      <point x="481.22" y="776.03"/>
    </contour>
  </outline>
</glyph>
<glyph name="i_custom_folder_git" format="2">
  <advance width="1000"/>
  <unicode hex="E5FB"/>
  <note>
i_custom_folder_git
</note>
  <outline>
    <contour>
      <point x="444.86" y="813.55" type="curve"/>
      <point x="53" y="813.55" type="line"/>
      <point x="53" y="86.44" type="line"/>
      <point x="947" y="86.44" type="line"/>
      <point x="947" y="701.82" type="line"/>
      <point x="556.62" y="701.82" type="line"/>
      <point x="519.36" y="739.06"/>
      <point x="482.11" y="776.3"/>
    </contour>
    <contour>
      <point x="494.19" y="651.4" type="line"/>
      <point x="521.13" y="649.31"/>
      <point x="534.66" y="621.94"/>
      <point x="553.99" y="606.22" type="curve"/>
      <point x="615.22" y="544.99"/>
      <point x="676.44" y="483.77"/>
      <point x="737.67" y="422.54" type="curve" smooth="yes"/>
      <point x="759.58" y="399.8"/>
      <point x="738.6" y="373.43"/>
      <point x="719.63" y="358.18" type="curve"/>
      <point x="650.8" y="290.31"/>
      <point x="582.22" y="222.2"/>
      <point x="513.23" y="154.49" type="curve"/>
      <point x="489.2" y="135.97"/>
      <point x="470.35" y="163.57"/>
      <point x="454.67" y="178.7" type="curve" smooth="yes"/>
      <point x="386.42" y="246.73"/>
      <point x="318.6" y="315.21"/>
      <point x="250.08" y="382.96" type="curve"/>
      <point x="231.56" y="406.85"/>
      <point x="258.96" y="426.42"/>
      <point x="274.12" y="442.27" type="curve" smooth="yes"/>
      <point x="317.32" y="486.25"/>
      <point x="360.53" y="530.23"/>
      <point x="403.73" y="574.21" type="curve"/>
      <point x="422.8" y="555.14"/>
      <point x="441.88" y="536.06"/>
      <point x="460.95" y="516.99" type="curve"/>
      <point x="443.65" y="488.73"/>
      <point x="481.47" y="475.12"/>
      <point x="482.22" y="454.92" type="curve" smooth="yes"/>
      <point x="482.22" y="328.09" type="line"/>
      <point x="420.44" y="302.71"/>
      <point x="494.19" y="215.02"/>
      <point x="529.43" y="271.74" type="curve"/>
      <point x="554" y="304.93"/>
      <point x="505.58" y="318.77"/>
      <point x="514.13" y="349.82" type="curve"/>
      <point x="514.13" y="463.81" type="line"/>
      <point x="531.43" y="446.51"/>
      <point x="548.73" y="429.21"/>
      <point x="566.03" y="411.91" type="curve"/>
      <point x="542.95" y="362.28"/>
      <point x="630.27" y="335.22"/>
      <point x="639.78" y="389.55" type="curve" smooth="yes"/>
      <point x="650.28" y="435.37"/>
      <point x="599.2" y="428.25"/>
      <point x="578.86" y="442.97" type="curve"/>
      <point x="563.5" y="458.34"/>
      <point x="548.13" y="473.71"/>
      <point x="532.77" y="489.09" type="curve"/>
      <point x="547.42" y="526.35"/>
      <point x="505.34" y="541.18"/>
      <point x="479.98" y="543.21" type="curve"/>
      <point x="462.11" y="561.09"/>
      <point x="444.24" y="578.98"/>
      <point x="426.36" y="596.86" type="curve"/>
      <point x="445.06" y="614.01"/>
      <point x="460.88" y="634.87"/>
      <point x="481.89" y="649.07" type="curve"/>
      <point x="487.79" y="650.82" type="line"/>
    </contour>
  </outline>
</glyph>
<glyph name="i_custom_folder_config" format="2">
  <advance width="1000"/>
  <unicode hex="E5FC"/>
  <note>
i_custom_folder_config
</note>
  <outline>
    <contour>
      <point x="729.46" y="350.19" type="curve" smooth="yes"/>
      <point x="729.46" y="350.17" type="line" smooth="yes"/>
      <point x="767.49" y="336.8"/>
      <point x="722.63" y="290.25"/>
      <point x="721.25" y="265.62" type="curve"/>
      <point x="701.49" y="233.68"/>
      <point x="666.5" y="288.52"/>
      <point x="650.47" y="254.82" type="curve"/>
      <point x="640.3" y="241.67"/>
      <point x="615.86" y="230.21"/>
      <point x="632.59" y="211.61" type="curve"/>
      <point x="659.24" y="176.02"/>
      <point x="614.49" y="161.54"/>
      <point x="587.89" y="150.52" type="curve"/>
      <point x="558.31" y="126.34"/>
      <point x="541.34" y="161.08"/>
      <point x="535.37" y="185.54" type="curve"/>
      <point x="521.07" y="187.37"/>
      <point x="505.72" y="185.71"/>
      <point x="491.04" y="186.28" type="curve"/>
      <point x="463.74" y="192.89"/>
      <point x="474.63" y="149.65"/>
      <point x="453.79" y="141.58" type="curve"/>
      <point x="425.09" y="144.2"/>
      <point x="354.2" y="157.36"/>
      <point x="374.82" y="198.2" type="curve"/>
      <point x="395.32" y="223.72"/>
      <point x="363.16" y="234.49"/>
      <point x="350.98" y="254.82" type="curve"/>
      <point x="336.48" y="268.65"/>
      <point x="317.8" y="245"/>
      <point x="301.81" y="244.39" type="curve"/>
      <point x="277.21" y="258.42"/>
      <point x="248.38" y="307.91"/>
      <point x="265.31" y="335.28" type="curve"/>
      <point x="283.28" y="345.49"/>
      <point x="312.33" y="346.53"/>
      <point x="300.33" y="374.56" type="curve"/>
      <point x="306.79" y="404.05"/>
      <point x="289.85" y="418.57"/>
      <point x="261.59" y="424.69" type="curve"/>
      <point x="247.27" y="454.12"/>
      <point x="269.51" y="501.93"/>
      <point x="295.86" y="515.58" type="curve"/>
      <point x="321.42" y="500.34"/>
      <point x="342.84" y="498.99"/>
      <point x="358.44" y="526.01" type="curve"/>
      <point x="381.52" y="537.33"/>
      <point x="374.04" y="555.3"/>
      <point x="362.45" y="573.12" type="curve"/>
      <point x="351.32" y="610.68"/>
      <point x="415.08" y="621.44"/>
      <point x="440.39" y="625.84" type="curve"/>
      <point x="460.77" y="621.37"/>
      <point x="453.85" y="582.71"/>
      <point x="475.19" y="584.12" type="curve" smooth="yes"/>
      <point x="491.52" y="586.38"/>
      <point x="515.46" y="577.88"/>
      <point x="525.32" y="593.06" type="curve"/>
      <point x="531.4" y="647.27"/>
      <point x="584.38" y="626.19"/>
      <point x="616.21" y="607.96" type="curve"/>
      <point x="652.28" y="597.29"/>
      <point x="609.03" y="559.77"/>
      <point x="622.17" y="545.38" type="curve"/>
      <point x="637.65" y="535.71"/>
      <point x="644.23" y="515.27"/>
      <point x="660.91" y="511.11" type="curve"/>
      <point x="682.84" y="523.72"/>
      <point x="717.48" y="536.64"/>
      <point x="722.74" y="499.36" type="curve"/>
      <point x="739.81" y="472.96"/>
      <point x="755.95" y="431.57"/>
      <point x="710.66" y="424.23" type="curve"/>
      <point x="693.06" y="423.04"/>
      <point x="698.88" y="406.14"/>
      <point x="698.17" y="393.54" type="curve"/>
      <point x="693.71" y="367.79"/>
      <point x="704.88" y="354.62"/>
    </contour>
    <contour>
      <point x="540.23" y="295.06" type="curve" smooth="yes"/>
      <point x="555.07" y="301.71"/>
      <point x="568.22" y="311.87"/>
      <point x="577.85" y="325.05" type="curve"/>
      <point x="623.3" y="377.81"/>
      <point x="589.21" y="469.11"/>
      <point x="522.14" y="482.87" type="curve"/>
      <point x="457.99" y="501.28"/>
      <point x="391.27" y="438.83"/>
      <point x="400.64" y="373.94" type="curve"/>
      <point x="404.57" y="309.61"/>
      <point x="483.04" y="264.03"/>
    </contour>
    <contour>
      <point x="556.62" y="701.83" type="line"/>
      <point x="444.87" y="813.58" type="line"/>
      <point x="53" y="813.58" type="line"/>
      <point x="53" y="86.46" type="line"/>
      <point x="947" y="86.46" type="line"/>
      <point x="947" y="701.83" type="line"/>
    </contour>
  </outline>
</glyph>
<glyph name="i_custom_folder_github" format="2">
  <advance width="1000"/>
  <unicode hex="E5FD"/>
  <note>
i_custom_folder_github
</note>
  <outline>
    <contour>
      <point x="444.87" y="813.56" type="curve"/>
      <point x="53" y="813.57" type="line"/>
      <point x="53" y="86.43" type="line"/>
      <point x="947" y="86.43" type="line"/>
      <point x="947" y="701.83" type="line"/>
      <point x="556.6" y="701.83" type="line"/>
      <point x="519.36" y="739.07"/>
      <point x="482.11" y="776.32"/>
    </contour>
    <contour>
      <point x="298.23" y="630.05" type="curve" smooth="yes"/>
      <point x="298.22" y="630.04" type="line" smooth="yes"/>
      <point x="347" y="623.51"/>
      <point x="390.04" y="596.83"/>
      <point x="429.65" y="569.19" type="curve"/>
      <point x="477.53" y="578.83"/>
      <point x="528.46" y="579.32"/>
      <point x="576.3" y="569.19" type="curve"/>
      <point x="616.98" y="595.13"/>
      <point x="659.67" y="621.23"/>
      <point x="707.73" y="630.04" type="curve"/>
      <point x="725.63" y="591.5"/>
      <point x="729.78" y="548.5"/>
      <point x="729.17" y="506.61" type="curve"/>
      <point x="748.98" y="471.4"/>
      <point x="774.05" y="425.24"/>
      <point x="768.51" y="379.06" type="curve"/>
      <point x="770" y="321.17"/>
      <point x="749.78" y="261.03"/>
      <point x="704.17" y="223.45" type="curve" smooth="yes"/>
      <point x="676.22" y="198.66"/>
      <point x="640.64" y="187.44"/>
      <point x="604.32" y="182.21" type="curve" smooth="yes"/>
      <point x="570.67" y="178.05"/>
      <point x="536.84" y="178.13"/>
      <point x="502.99" y="176.34" type="curve"/>
      <point x="469.45" y="177.79"/>
      <point x="435.98" y="178.19"/>
      <point x="402.7" y="182.21" type="curve" smooth="yes"/>
      <point x="352.65" y="185.13"/>
      <point x="305.65" y="211.84"/>
      <point x="275.34" y="251.63" type="curve" smooth="yes"/>
      <point x="249.25" y="283.97"/>
      <point x="240.27" y="328.13"/>
      <point x="237.73" y="368.95" type="curve" smooth="yes"/>
      <point x="233.93" y="416.86"/>
      <point x="245.12" y="468.01"/>
      <point x="280.26" y="502.8" type="curve"/>
      <point x="275.32" y="537.89"/>
      <point x="280.86" y="576.03"/>
      <point x="291.67" y="610.35" type="curve" smooth="yes"/>
      <point x="293.72" y="616.96"/>
      <point x="295.9" y="623.53"/>
    </contour>
    <contour>
      <point x="407.55" y="412.91" type="curve" smooth="yes"/>
      <point x="407.54" y="412.9" type="line" smooth="yes"/>
      <point x="372.15" y="412.21"/>
      <point x="333.37" y="400.13"/>
      <point x="317.03" y="365.8" type="curve" smooth="yes"/>
      <point x="297.29" y="319.25"/>
      <point x="307" y="249.94"/>
      <point x="357.73" y="227.51" type="curve" smooth="yes"/>
      <point x="429.03" y="197.68"/>
      <point x="508.89" y="201.55"/>
      <point x="584.25" y="208.87" type="curve" smooth="yes"/>
      <point x="631.25" y="213.94"/>
      <point x="688.83" y="235.61"/>
      <point x="696.32" y="289.09" type="curve"/>
      <point x="710.77" y="338.3"/>
      <point x="684.25" y="401.26"/>
      <point x="630.28" y="410.15" type="curve" smooth="yes"/>
      <point x="583.61" y="417.41"/>
      <point x="536.65" y="404.28"/>
      <point x="489.61" y="407.33" type="curve" smooth="yes"/>
      <point x="462.16" y="407.5"/>
      <point x="434.91" y="411.19"/>
    </contour>
    <contour>
      <point x="411.71" y="367.24" type="curve"/>
      <point x="448.89" y="360.69"/>
      <point x="460.28" y="304.06"/>
      <point x="436.61" y="277.33" type="curve"/>
      <point x="403.28" y="232.49"/>
      <point x="359.29" y="297.3"/>
      <point x="375.72" y="334.04" type="curve" smooth="yes"/>
      <point x="381.16" y="349.65"/>
      <point x="393.13" y="367.59"/>
    </contour>
    <contour>
      <point x="597.07" y="367.24" type="curve"/>
      <point x="636.03" y="360.93"/>
      <point x="642.18" y="304.8"/>
      <point x="621.97" y="277.33" type="curve" smooth="yes"/>
      <point x="591.52" y="233.58"/>
      <point x="544.47" y="293.29"/>
      <point x="559.91" y="329.72" type="curve"/>
      <point x="563.68" y="347.8"/>
      <point x="576.63" y="367.18"/>
    </contour>
  </outline>
</glyph>
<glyph name="i_custom_folder_open" format="2">
  <advance width="1000"/>
  <unicode hex="E5FE"/>
  <note>
i_custom_folder_open
</note>
  <outline>
    <contour>
      <point x="53" y="86.44" type="line"/>
      <point x="780.12" y="86.44" type="line"/>
      <point x="947" y="533.44" type="line"/>
      <point x="221.37" y="533.44" type="line"/>
    </contour>
    <contour>
      <point x="53" y="86.44" type="line"/>
      <point x="164.75" y="590.06" type="line"/>
      <point x="780.12" y="590.06" type="line"/>
      <point x="780.12" y="701.81" type="line"/>
      <point x="416.56" y="701.81" type="line"/>
      <point x="304.81" y="813.56" type="line"/>
      <point x="53" y="813.56" type="line"/>
    </contour>
  </outline>
</glyph>
<glyph name="i_custom_folder" format="2">
  <advance width="1000"/>
  <unicode hex="E5FF"/>
  <note>
i_custom_folder
</note>
  <outline>
    <contour>
      <point x="556.62" y="701.81" type="line"/>
      <point x="444.87" y="813.56" type="line"/>
      <point x="53" y="813.56" type="line"/>
      <point x="53" y="86.44" type="line"/>
      <point x="947" y="86.44" type="line"/>
      <point x="947" y="701.81" type="line"/>
    </contour>
  </outline>
</glyph>
<glyph name="i_seti_stylus" format="2">
  <advance width="1000"/>
  <unicode hex="E600"/>
  <note>
i_seti_stylus
</note>
  <outline>
    <contour>
      <point x="818.65" y="899.52" type="curve" smooth="yes"/>
      <point x="818.66" y="899.54" type="line" smooth="yes"/>
      <point x="811.63" y="899.54"/>
      <point x="801.09" y="896.03"/>
      <point x="794.06" y="892.51" type="curve"/>
      <point x="762.44" y="881.97"/>
      <point x="741.35" y="857.37"/>
      <point x="720.27" y="832.77" type="curve" smooth="yes"/>
      <point x="678.1" y="787.09"/>
      <point x="642.97" y="734.38"/>
      <point x="614.85" y="678.16" type="curve"/>
      <point x="576.2" y="611.4"/>
      <point x="548.09" y="541.12"/>
      <point x="527" y="467.33" type="curve" smooth="yes"/>
      <point x="519.97" y="439.22"/>
      <point x="512.94" y="407.59"/>
      <point x="512.94" y="375.97" type="curve" smooth="yes"/>
      <point x="512.94" y="358.4"/>
      <point x="527" y="347.86"/>
      <point x="541.05" y="351.37" type="curve"/>
      <point x="572.68" y="354.88"/>
      <point x="590.24" y="379.48"/>
      <point x="607.81" y="400.56" type="curve"/>
      <point x="607.81" y="411.1" type="line"/>
      <point x="597.27" y="400.56"/>
      <point x="586.73" y="390.02"/>
      <point x="576.19" y="382.99" type="curve" smooth="yes"/>
      <point x="565.65" y="375.96"/>
      <point x="558.62" y="379.48"/>
      <point x="558.62" y="390.02" type="curve" smooth="yes"/>
      <point x="558.62" y="425.16" type="line" smooth="yes"/>
      <point x="558.62" y="467.33"/>
      <point x="569.16" y="509.49"/>
      <point x="583.22" y="548.15" type="curve" smooth="yes"/>
      <point x="597.27" y="586.8"/>
      <point x="611.33" y="625.45"/>
      <point x="628.9" y="660.59" type="curve" smooth="yes"/>
      <point x="653.5" y="713.3"/>
      <point x="685.12" y="766.01"/>
      <point x="727.29" y="808.17" type="curve"/>
      <point x="744.86" y="836.28"/>
      <point x="769.46" y="853.85"/>
      <point x="804.59" y="857.36" type="curve"/>
      <point x="822.16" y="857.36"/>
      <point x="832.7" y="853.85"/>
      <point x="836.22" y="839.79" type="curve"/>
      <point x="836.22" y="836.28"/>
      <point x="839.73" y="836.28"/>
      <point x="839.73" y="836.28" type="curve"/>
      <point x="839.73" y="836.28"/>
      <point x="843.24" y="839.79"/>
      <point x="846.76" y="839.79" type="curve"/>
      <point x="850.27" y="850.33"/>
      <point x="853.79" y="860.87"/>
      <point x="853.79" y="871.41" type="curve" smooth="yes"/>
      <point x="853.79" y="885.47"/>
      <point x="836.22" y="903.03"/>
    </contour>
    <contour>
      <point x="467.26" y="544.6" type="curve" smooth="yes"/>
      <point x="467.26" y="544.62" type="line" smooth="yes"/>
      <point x="442.66" y="544.62"/>
      <point x="404.01" y="516.51"/>
      <point x="393.47" y="495.43" type="curve"/>
      <point x="393.47" y="488.4" type="line"/>
      <point x="396.98" y="488.4"/>
      <point x="396.98" y="488.4"/>
      <point x="400.5" y="491.91" type="curve" smooth="yes"/>
      <point x="404.01" y="495.42"/>
      <point x="407.53" y="502.45"/>
      <point x="414.55" y="505.96" type="curve"/>
      <point x="421.58" y="512.99"/>
      <point x="428.61" y="520.02"/>
      <point x="439.15" y="516.5" type="curve" smooth="yes"/>
      <point x="449.69" y="512.99"/>
      <point x="449.69" y="498.93"/>
      <point x="446.18" y="491.9" type="curve"/>
      <point x="442.67" y="449.73"/>
      <point x="435.64" y="414.59"/>
      <point x="428.61" y="375.94" type="curve"/>
      <point x="414.55" y="323.23"/>
      <point x="396.99" y="270.52"/>
      <point x="372.39" y="224.84" type="curve" smooth="yes"/>
      <point x="344.28" y="168.62"/>
      <point x="312.65" y="119.42"/>
      <point x="266.97" y="77.26" type="curve" smooth="yes"/>
      <point x="245.89" y="59.69"/>
      <point x="221.29" y="42.12"/>
      <point x="193.18" y="42.12" type="curve" smooth="yes"/>
      <point x="175.61" y="42.12"/>
      <point x="168.58" y="45.63"/>
      <point x="165.07" y="63.2" type="curve"/>
      <point x="165.07" y="66.71"/>
      <point x="161.56" y="66.71"/>
      <point x="158.04" y="70.23" type="curve"/>
      <point x="147.5" y="56.17"/>
      <point x="143.99" y="42.12"/>
      <point x="147.5" y="24.55" type="curve" smooth="yes"/>
      <point x="151.01" y="10.5"/>
      <point x="158.04" y="-0.05"/>
      <point x="168.58" y="-0.05" type="curve" smooth="yes"/>
      <point x="182.64" y="-0.05"/>
      <point x="196.69" y="3.46"/>
      <point x="207.23" y="6.98" type="curve" smooth="yes"/>
      <point x="231.83" y="14.01"/>
      <point x="249.4" y="35.09"/>
      <point x="266.96" y="52.66" type="curve" smooth="yes"/>
      <point x="309.13" y="94.83"/>
      <point x="344.27" y="144.02"/>
      <point x="372.38" y="196.73" type="curve" smooth="yes"/>
      <point x="418.06" y="274.04"/>
      <point x="453.2" y="354.85"/>
      <point x="477.8" y="442.7" type="curve" smooth="yes"/>
      <point x="484.83" y="470.81"/>
      <point x="491.86" y="495.41"/>
      <point x="488.34" y="523.52" type="curve"/>
      <point x="488.34" y="534.06"/>
      <point x="477.8" y="544.6"/>
    </contour>
  </outline>
</glyph>
<glyph name="i_seti_project" format="2">
  <advance width="1000"/>
  <unicode hex="E601"/>
  <note>
i_seti_project
</note>
  <outline>
    <contour>
      <point x="500" y="102.33" type="line"/>
      <point x="137.43" y="102.33" type="line"/>
      <point x="137.43" y="7.96" type="line"/>
      <point x="500" y="7.96" type="line"/>
    </contour>
    <contour>
      <point x="882.44" y="479.8" type="line"/>
      <point x="564.57" y="479.8" type="line"/>
      <point x="564.57" y="385.43" type="line"/>
      <point x="882.44" y="385.43" type="line"/>
    </contour>
    <contour>
      <point x="380.81" y="892.03" type="line"/>
      <point x="53.01" y="892.03" type="line"/>
      <point x="53.01" y="797.66" type="line"/>
      <point x="380.81" y="797.66" type="line"/>
    </contour>
    <contour>
      <point x="495.04" y="479.8" type="line"/>
      <point x="246.71" y="479.8" type="line"/>
      <point x="246.71" y="385.43" type="line"/>
      <point x="495.04" y="385.43" type="line"/>
    </contour>
    <contour>
      <point x="554.64" y="286.1" type="line"/>
      <point x="246.71" y="286.1" type="line"/>
      <point x="246.71" y="191.73" type="line"/>
      <point x="554.64" y="191.73" type="line"/>
    </contour>
    <contour>
      <point x="947" y="286.1" type="line"/>
      <point x="788.07" y="286.1" type="line"/>
      <point x="788.07" y="191.73" type="line"/>
      <point x="947" y="191.73" type="line"/>
    </contour>
    <contour>
      <point x="500" y="683.43" type="line"/>
      <point x="137.43" y="683.43" type="line"/>
      <point x="137.43" y="589.06" type="line"/>
      <point x="500" y="589.06" type="line"/>
    </contour>
    <contour>
      <point x="723.5" y="286.1" type="line"/>
      <point x="624.17" y="286.1" type="line"/>
      <point x="624.17" y="191.73" type="line"/>
      <point x="723.5" y="191.73" type="line"/>
    </contour>
  </outline>
</glyph>
<glyph name="i_custom_play_arrow" format="2">
  <advance width="1000"/>
  <unicode hex="E602"/>
  <note>
i_custom_play_arrow
</note>
  <outline>
    <contour>
      <point x="784.21" y="461.37" type="line"/>
      <point x="215.79" y="900" type="line"/>
      <point x="215.79" y="0" type="line"/>
    </contour>
  </outline>
</glyph>
<glyph name="i_seti_sass" format="2">
  <advance width="1000"/>
  <unicode hex="E603"/>
  <note>
i_seti_sass
</note>
  <outline>
    <contour>
      <point x="598.05" y="381.71" type="curve" smooth="yes"/>
      <point x="598.06" y="381.69" type="line"/>
      <point x="598.06" y="381.69" type="line"/>
      <point x="593.06" y="386.68"/>
      <point x="588.07" y="386.68"/>
      <point x="588.07" y="406.66" type="curve"/>
      <point x="538.12" y="396.67"/>
      <point x="493.17" y="376.69"/>
      <point x="448.21" y="351.71" type="curve"/>
      <point x="433.23" y="346.71"/>
      <point x="423.24" y="341.72"/>
      <point x="408.25" y="331.73" type="curve"/>
      <point x="403.25" y="326.73"/>
      <point x="398.26" y="331.73"/>
      <point x="393.26" y="331.73" type="curve"/>
      <point x="363.29" y="356.71"/>
      <point x="328.33" y="386.67"/>
      <point x="298.36" y="411.65" type="curve" smooth="yes"/>
      <point x="278.38" y="426.64"/>
      <point x="258.4" y="446.62"/>
      <point x="238.42" y="466.6" type="curve" smooth="yes"/>
      <point x="208.45" y="496.57"/>
      <point x="203.46" y="536.53"/>
      <point x="218.44" y="576.49" type="curve"/>
      <point x="228.43" y="596.47"/>
      <point x="238.42" y="616.45"/>
      <point x="253.41" y="636.43" type="curve" smooth="yes"/>
      <point x="283.38" y="676.39"/>
      <point x="323.34" y="706.36"/>
      <point x="368.29" y="731.34" type="curve" smooth="yes"/>
      <point x="448.21" y="781.29"/>
      <point x="538.12" y="821.25"/>
      <point x="638.02" y="836.23" type="curve" smooth="yes"/>
      <point x="677.98" y="841.23"/>
      <point x="717.94" y="841.23"/>
      <point x="757.9" y="821.25" type="curve" smooth="yes"/>
      <point x="792.86" y="801.27"/>
      <point x="812.84" y="771.3"/>
      <point x="802.86" y="731.34" type="curve" smooth="yes"/>
      <point x="792.87" y="696.37"/>
      <point x="772.89" y="666.4"/>
      <point x="752.91" y="641.43" type="curve" smooth="yes"/>
      <point x="697.96" y="576.5"/>
      <point x="623.04" y="546.53"/>
      <point x="538.12" y="531.54" type="curve" smooth="yes"/>
      <point x="493.17" y="521.55"/>
      <point x="448.21" y="526.54"/>
      <point x="408.25" y="566.5" type="curve" smooth="yes"/>
      <point x="403.25" y="571.5"/>
      <point x="398.26" y="571.5"/>
      <point x="398.26" y="571.5" type="curve"/>
      <point x="393.26" y="566.5"/>
      <point x="393.26" y="561.51"/>
      <point x="393.26" y="561.51" type="curve"/>
      <point x="398.26" y="556.52"/>
      <point x="403.25" y="546.53"/>
      <point x="408.25" y="536.54" type="curve"/>
      <point x="433.22" y="511.56"/>
      <point x="458.2" y="496.58"/>
      <point x="488.17" y="491.58" type="curve" smooth="yes"/>
      <point x="583.08" y="476.6"/>
      <point x="663" y="496.58"/>
      <point x="742.92" y="546.53" type="curve" smooth="yes"/>
      <point x="802.86" y="581.5"/>
      <point x="842.82" y="636.44"/>
      <point x="862.8" y="701.37" type="curve" smooth="yes"/>
      <point x="887.78" y="781.29"/>
      <point x="857.81" y="841.23"/>
      <point x="782.88" y="871.2" type="curve"/>
      <point x="762.9" y="881.19"/>
      <point x="732.93" y="886.18"/>
      <point x="712.95" y="896.18" type="curve"/>
      <point x="643.02" y="906.17"/>
      <point x="573.09" y="896.18"/>
      <point x="503.16" y="871.2" type="curve" smooth="yes"/>
      <point x="403.26" y="836.24"/>
      <point x="313.35" y="786.29"/>
      <point x="233.43" y="716.36" type="curve"/>
      <point x="198.47" y="681.4"/>
      <point x="163.5" y="641.44"/>
      <point x="143.52" y="591.49" type="curve"/>
      <point x="118.55" y="546.54"/>
      <point x="123.54" y="496.59"/>
      <point x="168.49" y="461.62" type="curve"/>
      <point x="183.48" y="436.64"/>
      <point x="203.46" y="416.66"/>
      <point x="223.44" y="396.69" type="curve" smooth="yes"/>
      <point x="258.41" y="361.72"/>
      <point x="298.36" y="331.76"/>
      <point x="338.32" y="306.78" type="curve"/>
      <point x="348.31" y="306.78"/>
      <point x="353.31" y="296.79"/>
      <point x="368.29" y="286.8" type="curve"/>
      <point x="358.3" y="281.81"/>
      <point x="353.31" y="281.81"/>
      <point x="348.31" y="276.81" type="curve"/>
      <point x="318.34" y="256.83"/>
      <point x="283.38" y="241.85"/>
      <point x="258.4" y="221.87" type="curve"/>
      <point x="233.42" y="206.89"/>
      <point x="213.44" y="181.91"/>
      <point x="193.46" y="161.93" type="curve"/>
      <point x="163.49" y="126.97"/>
      <point x="158.5" y="87.01"/>
      <point x="178.48" y="42.05" type="curve"/>
      <point x="183.48" y="27.07"/>
      <point x="193.46" y="12.08"/>
      <point x="213.44" y="7.09" type="curve" smooth="yes"/>
      <point x="228.43" y="2.09"/>
      <point x="248.4" y="-2.9"/>
      <point x="268.39" y="2.09" type="curve"/>
      <point x="343.31" y="12.08"/>
      <point x="403.26" y="57.04"/>
      <point x="428.23" y="136.95" type="curve" smooth="yes"/>
      <point x="443.21" y="181.91"/>
      <point x="443.21" y="226.86"/>
      <point x="423.23" y="271.82" type="curve"/>
      <point x="478.18" y="306.79"/>
      <point x="543.11" y="346.74"/>
    </contour>
    <contour>
      <point x="383.25" y="256.84" type="curve" smooth="yes"/>
      <point x="383.27" y="256.84" type="line" smooth="yes"/>
      <point x="393.26" y="206.89"/>
      <point x="393.26" y="171.92"/>
      <point x="368.28" y="131.97" type="curve" smooth="yes"/>
      <point x="348.3" y="102"/>
      <point x="318.33" y="77.02"/>
      <point x="278.37" y="67.03" type="curve"/>
      <point x="248.4" y="62.03"/>
      <point x="228.42" y="77.02"/>
      <point x="233.41" y="106.99" type="curve" smooth="yes"/>
      <point x="238.4" y="131.97"/>
      <point x="248.39" y="151.95"/>
      <point x="268.37" y="171.92" type="curve" smooth="yes"/>
      <point x="303.33" y="206.89"/>
      <point x="338.3" y="231.86"/>
    </contour>
  </outline>
</glyph>
<glyph name="i_seti_rails" format="2">
  <advance width="1000"/>
  <unicode hex="E604"/>
  <note>
i_seti_rails
</note>
  <outline>
    <contour>
      <point x="943.05" y="729.14" type="curve"/>
      <point x="906.18" y="766"/>
      <point x="858.78" y="792.33"/>
      <point x="811.38" y="813.39" type="curve" smooth="yes"/>
      <point x="753.45" y="839.72"/>
      <point x="695.52" y="850.26"/>
      <point x="632.32" y="839.72" type="curve" smooth="yes"/>
      <point x="569.12" y="829.19"/>
      <point x="511.19" y="808.12"/>
      <point x="463.79" y="771.26" type="curve" smooth="yes"/>
      <point x="411.12" y="734.39"/>
      <point x="368.99" y="692.26"/>
      <point x="337.39" y="639.6" type="curve" smooth="yes"/>
      <point x="316.32" y="608"/>
      <point x="300.53" y="576.4"/>
      <point x="279.46" y="539.54" type="curve" smooth="yes"/>
      <point x="253.13" y="486.87"/>
      <point x="226.79" y="428.94"/>
      <point x="205.73" y="371.01" type="curve" smooth="yes"/>
      <point x="184.66" y="307.81"/>
      <point x="168.86" y="239.35"/>
      <point x="158.33" y="176.15" type="curve" smooth="yes"/>
      <point x="153.06" y="128.75"/>
      <point x="147.8" y="81.35"/>
      <point x="147.8" y="33.95" type="curve" smooth="yes"/>
      <point x="147.8" y="7.62" type="line"/>
      <point x="584.93" y="7.62" type="line"/>
      <point x="563.86" y="65.55"/>
      <point x="542.8" y="123.48"/>
      <point x="532.26" y="181.41" type="curve" smooth="yes"/>
      <point x="521.73" y="223.54"/>
      <point x="516.46" y="265.68"/>
      <point x="511.19" y="307.81" type="curve"/>
      <point x="511.19" y="392.07" type="line" smooth="yes"/>
      <point x="511.19" y="428.94"/>
      <point x="516.46" y="465.8"/>
      <point x="532.26" y="497.4" type="curve"/>
      <point x="563.86" y="597.47"/>
      <point x="627.06" y="665.93"/>
      <point x="721.86" y="713.33" type="curve"/>
      <point x="758.73" y="729.13"/>
      <point x="795.59" y="739.66"/>
      <point x="837.72" y="734.4" type="curve" smooth="yes"/>
      <point x="874.59" y="729.13"/>
      <point x="906.19" y="713.33"/>
      <point x="932.52" y="692.27" type="curve"/>
      <point x="937.78" y="708.07"/>
      <point x="943.05" y="718.6"/>
      <point x="943.05" y="729.14" type="curve"/>
      <point x="948.32" y="729.14"/>
      <point x="948.32" y="729.14"/>
    </contour>
    <contour>
      <point x="63.54" y="234.09" type="curve" smooth="yes"/>
      <point x="63.53" y="234.08" type="line" smooth="yes"/>
      <point x="58.26" y="207.75"/>
      <point x="58.26" y="181.41"/>
      <point x="53" y="149.82" type="curve"/>
      <point x="79.33" y="144.55"/>
      <point x="105.67" y="144.55"/>
      <point x="132" y="139.29" type="curve"/>
      <point x="137.27" y="165.62"/>
      <point x="142.53" y="197.22"/>
      <point x="147.8" y="223.56" type="curve"/>
      <point x="116.2" y="228.83"/>
      <point x="89.87" y="234.09"/>
    </contour>
    <contour>
      <point x="221.55" y="481.62" type="curve"/>
      <point x="195.21" y="492.15"/>
      <point x="168.87" y="502.69"/>
      <point x="147.81" y="513.22" type="curve"/>
      <point x="137.28" y="492.15"/>
      <point x="132.01" y="465.82"/>
      <point x="121.48" y="444.75" type="curve"/>
      <point x="147.81" y="434.22"/>
      <point x="174.15" y="428.95"/>
      <point x="200.48" y="418.42" type="curve"/>
      <point x="205.75" y="439.49"/>
      <point x="211.01" y="460.55"/>
    </contour>
    <contour>
      <point x="627.09" y="149.82" type="curve" smooth="yes"/>
      <point x="627.08" y="149.83" type="line"/>
      <point x="627.08" y="149.83" type="line"/>
      <point x="600.75" y="155.1"/>
      <point x="579.68" y="155.1"/>
      <point x="558.62" y="155.1" type="curve" smooth="yes"/>
      <point x="553.35" y="155.1" type="line"/>
      <point x="553.35" y="149.83" type="line"/>
      <point x="558.62" y="134.03"/>
      <point x="563.88" y="112.96"/>
      <point x="569.15" y="97.16" type="curve"/>
      <point x="569.15" y="91.89"/>
      <point x="574.42" y="91.89"/>
      <point x="574.42" y="91.89" type="curve"/>
      <point x="600.75" y="91.89"/>
      <point x="627.09" y="86.62"/>
      <point x="648.15" y="86.62" type="curve" smooth="yes"/>
      <point x="653.42" y="86.62" type="line"/>
      <point x="653.42" y="91.89" type="line"/>
      <point x="648.15" y="112.96"/>
      <point x="637.62" y="134.02"/>
    </contour>
    <contour>
      <point x="347.96" y="692.28" type="curve"/>
      <point x="326.89" y="702.82"/>
      <point x="311.09" y="718.61"/>
      <point x="290.03" y="729.15" type="curve"/>
      <point x="274.23" y="713.35"/>
      <point x="258.43" y="697.55"/>
      <point x="242.63" y="676.48" type="curve"/>
      <point x="263.7" y="660.68"/>
      <point x="284.76" y="650.15"/>
      <point x="300.56" y="634.35" type="curve"/>
      <point x="316.36" y="655.42"/>
      <point x="332.16" y="671.22"/>
    </contour>
    <contour>
      <point x="532.3" y="302.57" type="curve" smooth="yes"/>
      <point x="532.29" y="302.56" type="line" smooth="yes"/>
      <point x="558.62" y="292.02"/>
      <point x="579.69" y="281.49"/>
      <point x="595.49" y="270.96" type="curve"/>
      <point x="600.76" y="270.96" type="line"/>
      <point x="600.76" y="276.23" type="line" smooth="yes"/>
      <point x="600.76" y="292.03"/>
      <point x="600.76" y="307.83"/>
      <point x="595.49" y="323.63" type="curve"/>
      <point x="595.49" y="323.63"/>
      <point x="595.49" y="328.9"/>
      <point x="590.23" y="328.9" type="curve"/>
      <point x="569.16" y="339.43"/>
      <point x="553.36" y="349.97"/>
      <point x="532.3" y="360.5" type="curve"/>
      <point x="527.03" y="360.5" type="line"/>
      <point x="532.3" y="339.43"/>
      <point x="532.3" y="323.63"/>
    </contour>
    <contour>
      <point x="516.49" y="823.96" type="curve"/>
      <point x="505.97" y="839.76"/>
      <point x="490.17" y="850.29"/>
      <point x="479.63" y="866.09" type="curve"/>
      <point x="474.36" y="866.09" type="line"/>
      <point x="458.56" y="855.56"/>
      <point x="442.76" y="850.29"/>
      <point x="426.96" y="839.76" type="curve"/>
      <point x="432.23" y="823.96"/>
      <point x="448.03" y="808.16"/>
      <point x="458.56" y="792.36" type="curve"/>
      <point x="479.63" y="802.9"/>
      <point x="495.42" y="813.43"/>
    </contour>
    <contour>
      <point x="537.55" y="465.85" type="curve" smooth="yes"/>
      <point x="537.56" y="465.84" type="line" smooth="yes"/>
      <point x="558.63" y="450.04"/>
      <point x="574.43" y="434.24"/>
      <point x="595.49" y="418.44" type="curve"/>
      <point x="600.76" y="434.24"/>
      <point x="606.02" y="450.04"/>
      <point x="606.02" y="471.11" type="curve" smooth="yes"/>
      <point x="606.02" y="476.38" type="line"/>
      <point x="600.75" y="481.65" type="line" smooth="yes"/>
      <point x="590.22" y="492.18"/>
      <point x="574.42" y="502.72"/>
      <point x="563.88" y="513.25" type="curve"/>
      <point x="548.08" y="497.45"/>
      <point x="542.81" y="481.65"/>
    </contour>
    <contour>
      <point x="690.27" y="850.31" type="curve" smooth="yes"/>
      <point x="690.28" y="850.31" type="line" smooth="yes"/>
      <point x="690.28" y="866.11"/>
      <point x="685.01" y="876.64"/>
      <point x="685.01" y="887.18" type="curve" smooth="yes"/>
      <point x="685.01" y="892.44"/>
      <point x="685.01" y="892.44"/>
      <point x="679.74" y="892.44" type="curve" smooth="yes"/>
      <point x="616.54" y="892.44" type="line"/>
      <point x="621.8" y="876.64"/>
      <point x="621.8" y="860.84"/>
      <point x="627.07" y="845.04" type="curve"/>
      <point x="648.14" y="850.31"/>
      <point x="669.2" y="850.31"/>
    </contour>
    <contour>
      <point x="653.4" y="592.25" type="curve"/>
      <point x="653.4" y="597.52" type="line"/>
      <point x="642.87" y="613.32"/>
      <point x="632.33" y="629.12"/>
      <point x="621.8" y="639.65" type="curve"/>
      <point x="621.8" y="644.92" type="line"/>
      <point x="611.27" y="634.39"/>
      <point x="600.73" y="623.85"/>
      <point x="584.93" y="613.32" type="curve"/>
      <point x="600.73" y="597.52"/>
      <point x="616.53" y="576.45"/>
      <point x="632.33" y="560.65" type="curve"/>
      <point x="642.86" y="571.19"/>
      <point x="648.13" y="581.72"/>
    </contour>
    <contour>
      <point x="737.67" y="708.12" type="curve"/>
      <point x="721.87" y="702.85"/>
      <point x="706.07" y="702.85"/>
      <point x="690.27" y="697.58" type="curve"/>
      <point x="695.54" y="681.78"/>
      <point x="706.07" y="671.25"/>
      <point x="711.34" y="655.45" type="curve"/>
      <point x="721.87" y="665.98"/>
      <point x="732.41" y="671.25"/>
      <point x="742.94" y="676.52" type="curve"/>
      <point x="742.94" y="692.32"/>
      <point x="737.67" y="702.85"/>
    </contour>
    <contour>
      <point x="842.99" y="813.46" type="line"/>
      <point x="843" y="813.45" type="line" smooth="yes"/>
      <point x="858.8" y="802.92"/>
      <point x="874.6" y="797.65"/>
      <point x="885.13" y="787.12" type="curve"/>
      <point x="890.4" y="792.39"/>
      <point x="890.4" y="797.65"/>
      <point x="895.66" y="802.92" type="curve"/>
      <point x="879.86" y="813.45"/>
      <point x="858.79" y="829.25"/>
      <point x="842.99" y="839.79" type="curve"/>
    </contour>
    <contour>
      <point x="874.59" y="708.13" type="curve"/>
      <point x="864.06" y="708.13"/>
      <point x="853.52" y="713.4"/>
      <point x="842.99" y="713.4" type="curve" smooth="yes"/>
      <point x="832.46" y="713.4" type="line"/>
      <point x="832.46" y="687.07" type="line"/>
      <point x="848.26" y="687.07"/>
      <point x="864.06" y="681.8"/>
      <point x="874.59" y="681.8" type="curve"/>
      <point x="879.86" y="697.6"/>
      <point x="879.86" y="702.87"/>
      <point x="874.59" y="708.13" type="curve"/>
      <point x="879.86" y="708.13"/>
      <point x="874.59" y="708.13"/>
    </contour>
  </outline>
</glyph>
<glyph name="i_seti_ruby" format="2">
  <advance width="1000"/>
  <unicode hex="E605"/>
  <note>
i_seti_ruby
</note>
  <outline>
    <contour>
      <point x="809.46" y="899.65" type="curve" smooth="yes"/>
      <point x="592.57" y="899.65" type="line"/>
      <point x="571.41" y="889.07"/>
      <point x="555.54" y="883.78"/>
      <point x="539.67" y="873.2" type="curve"/>
      <point x="412.71" y="841.46"/>
      <point x="312.2" y="767.4"/>
      <point x="222.27" y="672.18" type="curve" smooth="yes"/>
      <point x="148.21" y="598.12"/>
      <point x="105.89" y="508.19"/>
      <point x="68.86" y="412.97" type="curve"/>
      <point x="63.57" y="391.81"/>
      <point x="63.57" y="370.65"/>
      <point x="63.57" y="344.2" type="curve" smooth="yes"/>
      <point x="63.57" y="301.88"/>
      <point x="58.28" y="254.27"/>
      <point x="58.28" y="211.95" type="curve" smooth="yes"/>
      <point x="58.28" y="201.37"/>
      <point x="52.99" y="196.08"/>
      <point x="52.99" y="190.79" type="curve" smooth="yes"/>
      <point x="52.99" y="164.34" type="line"/>
      <point x="58.28" y="148.47"/>
      <point x="58.28" y="132.6"/>
      <point x="63.57" y="116.73" type="curve" smooth="yes"/>
      <point x="79.44" y="53.25"/>
      <point x="127.05" y="16.22"/>
      <point x="190.53" y="5.64" type="curve"/>
      <point x="195.82" y="5.64"/>
      <point x="201.11" y="0.35"/>
      <point x="206.4" y="0.35" type="curve" smooth="yes"/>
      <point x="259.3" y="0.35" type="line"/>
      <point x="291.04" y="5.64"/>
      <point x="322.78" y="10.93"/>
      <point x="354.52" y="10.93" type="curve" smooth="yes"/>
      <point x="470.9" y="16.22"/>
      <point x="587.28" y="26.8"/>
      <point x="703.66" y="32.09" type="curve" smooth="yes"/>
      <point x="761.85" y="37.38"/>
      <point x="814.75" y="37.38"/>
      <point x="872.94" y="42.67" type="curve"/>
      <point x="894.1" y="42.67"/>
      <point x="899.39" y="47.96"/>
      <point x="899.39" y="69.12" type="curve" smooth="yes"/>
      <point x="904.68" y="196.08"/>
      <point x="915.26" y="317.75"/>
      <point x="925.84" y="444.71" type="curve" smooth="yes"/>
      <point x="931.13" y="518.77"/>
      <point x="936.42" y="598.12"/>
      <point x="941.71" y="672.18" type="curve" smooth="yes"/>
      <point x="941.71" y="682.76"/>
      <point x="947" y="693.34"/>
      <point x="947" y="703.92" type="curve" smooth="yes"/>
      <point x="947" y="746.24" type="line" smooth="yes"/>
      <point x="947" y="756.82"/>
      <point x="941.71" y="767.4"/>
      <point x="941.71" y="777.98" type="curve"/>
      <point x="931.13" y="841.46"/>
      <point x="888.81" y="878.49"/>
      <point x="825.33" y="894.36" type="curve"/>
      <point x="820.04" y="894.36"/>
      <point x="814.75" y="899.65"/>
    </contour>
  </outline>
</glyph>
<glyph name="i_seti_python" format="2">
  <advance width="1000"/>
  <unicode hex="E606"/>
  <note>
i_seti_python
</note>
  <outline>
    <contour>
      <point x="375" y="476.05" type="curve" smooth="yes"/>
      <point x="479.17" y="476.04" type="line" smooth="yes"/>
      <point x="510.42" y="476.04"/>
      <point x="546.88" y="476.04"/>
      <point x="583.34" y="481.25" type="curve"/>
      <point x="656.26" y="481.25"/>
      <point x="697.93" y="522.92"/>
      <point x="697.93" y="595.84" type="curve" smooth="yes"/>
      <point x="697.93" y="783.35" type="line"/>
      <point x="703.14" y="814.6"/>
      <point x="687.51" y="835.44"/>
      <point x="666.68" y="856.27" type="curve"/>
      <point x="645.84" y="871.9"/>
      <point x="619.8" y="882.31"/>
      <point x="593.76" y="887.52" type="curve" smooth="yes"/>
      <point x="531.26" y="903.15"/>
      <point x="468.75" y="903.15"/>
      <point x="406.25" y="892.73" type="curve" smooth="yes"/>
      <point x="380.21" y="887.52"/>
      <point x="354.16" y="877.11"/>
      <point x="328.12" y="866.69" type="curve" smooth="yes"/>
      <point x="296.87" y="856.27"/>
      <point x="281.24" y="830.23"/>
      <point x="281.24" y="793.77" type="curve" smooth="yes"/>
      <point x="281.24" y="726.06" type="line" smooth="yes"/>
      <point x="281.24" y="710.44"/>
      <point x="286.45" y="705.23"/>
      <point x="302.08" y="705.23" type="curve" smooth="yes"/>
      <point x="479.17" y="705.23" type="line" smooth="yes"/>
      <point x="484.38" y="705.23"/>
      <point x="494.8" y="700.02"/>
      <point x="494.8" y="700.02" type="curve"/>
      <point x="494.8" y="673.98" type="line" smooth="yes"/>
      <point x="494.8" y="668.77"/>
      <point x="484.38" y="668.77"/>
      <point x="479.17" y="668.77" type="curve" smooth="yes"/>
      <point x="177.07" y="668.77" type="line"/>
      <point x="124.98" y="658.35"/>
      <point x="93.73" y="621.89"/>
      <point x="78.1" y="575.01" type="curve" smooth="yes"/>
      <point x="57.27" y="517.71"/>
      <point x="57.27" y="460.42"/>
      <point x="62.48" y="403.12" type="curve"/>
      <point x="62.48" y="371.87"/>
      <point x="72.9" y="340.62"/>
      <point x="88.52" y="309.36" type="curve" smooth="yes"/>
      <point x="109.35" y="267.69"/>
      <point x="145.82" y="246.86"/>
      <point x="192.69" y="246.86" type="curve" smooth="yes"/>
      <point x="239.57" y="246.86" type="line" smooth="yes"/>
      <point x="249.99" y="246.86"/>
      <point x="255.2" y="252.07"/>
      <point x="255.2" y="262.49" type="curve" smooth="yes"/>
      <point x="255.2" y="356.25" type="line" smooth="yes"/>
      <point x="255.2" y="429.17"/>
      <point x="302.08" y="476.05"/>
    </contour>
    <contour>
      <point x="333.33" y="788.57" type="curve" smooth="yes"/>
      <point x="333.33" y="809.41"/>
      <point x="348.96" y="830.24"/>
      <point x="375" y="830.24" type="curve"/>
      <point x="395.83" y="825.03"/>
      <point x="416.67" y="809.41"/>
      <point x="416.67" y="788.57" type="curve" smooth="yes"/>
      <point x="416.67" y="767.74"/>
      <point x="395.84" y="746.9"/>
      <point x="375" y="746.9" type="curve" smooth="yes"/>
      <point x="348.96" y="746.9"/>
      <point x="333.33" y="767.74"/>
    </contour>
    <contour>
      <point x="625.02" y="423.95" type="curve" smooth="yes"/>
      <point x="520.84" y="423.96" type="line" smooth="yes"/>
      <point x="489.59" y="423.96"/>
      <point x="453.13" y="423.96"/>
      <point x="416.67" y="418.75" type="curve"/>
      <point x="343.75" y="418.75"/>
      <point x="302.08" y="377.08"/>
      <point x="302.08" y="304.16" type="curve" smooth="yes"/>
      <point x="302.08" y="116.65" type="line"/>
      <point x="296.87" y="85.4"/>
      <point x="312.5" y="64.56"/>
      <point x="333.33" y="43.73" type="curve"/>
      <point x="354.17" y="28.1"/>
      <point x="380.21" y="17.69"/>
      <point x="406.25" y="12.48" type="curve" smooth="yes"/>
      <point x="468.75" y="-3.15"/>
      <point x="531.26" y="-3.15"/>
      <point x="593.76" y="7.27" type="curve" smooth="yes"/>
      <point x="619.8" y="12.48"/>
      <point x="645.85" y="22.9"/>
      <point x="671.89" y="33.31" type="curve" smooth="yes"/>
      <point x="703.14" y="43.73"/>
      <point x="718.77" y="69.77"/>
      <point x="718.77" y="106.23" type="curve" smooth="yes"/>
      <point x="718.77" y="173.94" type="line" smooth="yes"/>
      <point x="718.77" y="189.57"/>
      <point x="713.56" y="194.77"/>
      <point x="697.93" y="194.77" type="curve" smooth="yes"/>
      <point x="520.83" y="194.77" type="line" smooth="yes"/>
      <point x="515.62" y="194.77"/>
      <point x="505.21" y="199.98"/>
      <point x="505.21" y="199.98" type="curve"/>
      <point x="505.21" y="226.02" type="line" smooth="yes"/>
      <point x="505.21" y="231.23"/>
      <point x="515.63" y="231.23"/>
      <point x="520.83" y="231.23" type="curve" smooth="yes"/>
      <point x="822.94" y="231.23" type="line"/>
      <point x="875.03" y="241.65"/>
      <point x="906.28" y="278.11"/>
      <point x="921.9" y="324.99" type="curve" smooth="yes"/>
      <point x="942.74" y="382.29"/>
      <point x="942.74" y="439.58"/>
      <point x="937.53" y="496.88" type="curve"/>
      <point x="937.53" y="528.13"/>
      <point x="927.11" y="559.39"/>
      <point x="911.49" y="590.64" type="curve" smooth="yes"/>
      <point x="890.66" y="632.31"/>
      <point x="854.19" y="653.14"/>
      <point x="807.32" y="653.14" type="curve" smooth="yes"/>
      <point x="760.44" y="653.14" type="line" smooth="yes"/>
      <point x="750.02" y="653.14"/>
      <point x="744.82" y="647.93"/>
      <point x="744.82" y="637.51" type="curve" smooth="yes"/>
      <point x="744.82" y="543.75" type="line" smooth="yes"/>
      <point x="744.82" y="470.83"/>
      <point x="697.94" y="423.95"/>
    </contour>
    <contour>
      <point x="666.69" y="111.43" type="curve" smooth="yes"/>
      <point x="666.69" y="90.6"/>
      <point x="651.06" y="69.76"/>
      <point x="625.02" y="69.76" type="curve"/>
      <point x="604.19" y="74.97"/>
      <point x="583.35" y="90.59"/>
      <point x="583.35" y="111.43" type="curve" smooth="yes"/>
      <point x="583.35" y="132.26"/>
      <point x="604.18" y="153.1"/>
      <point x="625.02" y="153.1" type="curve" smooth="yes"/>
      <point x="651.06" y="153.1"/>
      <point x="666.69" y="132.27"/>
    </contour>
  </outline>
</glyph>
<glyph name="i_seti_heroku" format="2">
  <advance width="1000"/>
  <unicode hex="E607"/>
  <note>
i_seti_heroku
</note>
  <outline>
    <contour>
      <point x="207.5" y="257.13" type="line"/>
      <point x="207.5" y="0" type="line"/>
      <point x="353.75" y="128.56" type="line"/>
    </contour>
    <contour>
      <point x="735.89" y="521.1" type="curve" smooth="yes"/>
      <point x="709.7" y="547.34"/>
      <point x="661.59" y="578.56"/>
      <point x="581.27" y="578.56" type="curve" smooth="yes"/>
      <point x="493.11" y="578.56"/>
      <point x="402.4" y="555.88"/>
      <point x="337.51" y="535" type="curve"/>
      <point x="337.51" y="900" type="line"/>
      <point x="207.51" y="900" type="line"/>
      <point x="207.51" y="342.45" type="line"/>
      <point x="299.35" y="383.58" type="line" smooth="yes"/>
      <point x="300.79" y="384.26"/>
      <point x="449.07" y="450"/>
      <point x="581.27" y="450" type="curve" smooth="yes"/>
      <point x="647.24" y="450"/>
      <point x="661.86" y="414"/>
      <point x="662.5" y="383.94" type="curve" smooth="yes"/>
      <point x="662.5" y="0" type="line"/>
      <point x="792.5" y="0" type="line"/>
      <point x="792.5" y="385.7" type="line" smooth="yes"/>
      <point x="792.59" y="393.93"/>
      <point x="791.82" y="465.22"/>
    </contour>
    <contour>
      <point x="564.98" y="691.06" type="curve"/>
      <point x="694.98" y="691.06" type="line"/>
      <point x="753.8" y="756.94"/>
      <point x="783.72" y="826.96"/>
      <point x="792.49" y="900" type="curve"/>
      <point x="662.49" y="900" type="line"/>
      <point x="648.18" y="827.15"/>
      <point x="616.09" y="757.35"/>
    </contour>
  </outline>
</glyph>
<glyph name="i_seti_php" format="2">
  <advance width="1000"/>
  <unicode hex="E608"/>
  <note>
i_seti_php
</note>
  <outline>
    <contour>
      <point x="354.44" y="279.81" type="curve" smooth="yes"/>
      <point x="354.45" y="279.85" type="line" smooth="yes"/>
      <point x="358.94" y="252.92"/>
      <point x="358.94" y="221.49"/>
      <point x="340.98" y="203.54" type="curve"/>
      <point x="372.4" y="190.07"/>
      <point x="372.4" y="163.14"/>
      <point x="372.4" y="136.2" type="curve"/>
      <point x="376.89" y="136.2" type="line"/>
      <point x="403.82" y="131.71"/>
      <point x="435.25" y="131.71"/>
      <point x="466.67" y="140.69" type="curve" smooth="yes"/>
      <point x="480.14" y="145.18"/>
      <point x="480.14" y="149.67"/>
      <point x="480.14" y="163.14" type="curve"/>
      <point x="475.65" y="185.59"/>
      <point x="471.16" y="212.52"/>
      <point x="471.16" y="234.96" type="curve" smooth="yes"/>
      <point x="471.16" y="252.92"/>
      <point x="475.65" y="270.87"/>
      <point x="484.63" y="288.83" type="curve" smooth="yes"/>
      <point x="493.61" y="306.79"/>
      <point x="507.08" y="306.79"/>
      <point x="525.03" y="302.3" type="curve" smooth="yes"/>
      <point x="565.43" y="288.83"/>
      <point x="601.34" y="288.83"/>
      <point x="637.26" y="311.28" type="curve"/>
      <point x="650.73" y="315.77"/>
      <point x="664.19" y="315.77"/>
      <point x="673.17" y="302.3" type="curve" smooth="yes"/>
      <point x="682.15" y="288.83"/>
      <point x="686.64" y="275.37"/>
      <point x="682.15" y="257.41" type="curve" smooth="yes"/>
      <point x="677.66" y="234.96"/>
      <point x="673.17" y="217.01"/>
      <point x="668.68" y="199.05" type="curve"/>
      <point x="691.13" y="185.58"/>
      <point x="691.13" y="158.65"/>
      <point x="691.13" y="131.71" type="curve"/>
      <point x="762.95" y="131.71" type="line" smooth="yes"/>
      <point x="780.91" y="131.71"/>
      <point x="794.37" y="136.2"/>
      <point x="807.84" y="140.69" type="curve"/>
      <point x="825.8" y="149.67"/>
      <point x="834.78" y="158.65"/>
      <point x="830.29" y="181.09" type="curve" smooth="yes"/>
      <point x="825.8" y="217"/>
      <point x="821.31" y="257.4"/>
      <point x="816.82" y="293.32" type="curve"/>
      <point x="812.33" y="311.28"/>
      <point x="816.82" y="329.23"/>
      <point x="816.82" y="347.19" type="curve" smooth="yes"/>
      <point x="816.82" y="351.68"/>
      <point x="821.31" y="360.66"/>
      <point x="825.8" y="365.15" type="curve" smooth="yes"/>
      <point x="857.22" y="396.57"/>
      <point x="875.18" y="436.97"/>
      <point x="888.65" y="481.86" type="curve"/>
      <point x="888.65" y="486.35"/>
      <point x="893.14" y="490.84"/>
      <point x="893.14" y="495.33" type="curve" smooth="yes"/>
      <point x="893.14" y="499.82"/>
      <point x="897.63" y="499.82"/>
      <point x="902.12" y="495.33" type="curve" smooth="yes"/>
      <point x="906.61" y="490.84"/>
      <point x="911.1" y="481.86"/>
      <point x="915.59" y="477.37" type="curve" smooth="yes"/>
      <point x="920.08" y="472.88"/>
      <point x="924.57" y="463.9"/>
      <point x="933.55" y="459.41" type="curve" smooth="yes"/>
      <point x="942.53" y="454.92"/>
      <point x="947.02" y="454.92"/>
      <point x="947.02" y="463.9" type="curve" smooth="yes"/>
      <point x="947.02" y="477.37"/>
      <point x="947.02" y="486.35"/>
      <point x="942.53" y="499.81" type="curve" smooth="yes"/>
      <point x="920.08" y="580.61"/>
      <point x="875.19" y="647.95"/>
      <point x="803.37" y="692.84" type="curve" smooth="yes"/>
      <point x="758.48" y="724.26"/>
      <point x="709.1" y="737.73"/>
      <point x="655.23" y="742.22" type="curve" smooth="yes"/>
      <point x="610.34" y="746.71"/>
      <point x="560.96" y="742.22"/>
      <point x="516.07" y="733.24" type="curve"/>
      <point x="516.07" y="728.75"/>
      <point x="511.58" y="728.75"/>
      <point x="507.09" y="728.75" type="curve"/>
      <point x="498.11" y="724.26"/>
      <point x="498.11" y="719.77"/>
      <point x="498.11" y="710.79" type="curve"/>
      <point x="502.6" y="697.32"/>
      <point x="507.09" y="688.35"/>
      <point x="507.09" y="674.88" type="curve"/>
      <point x="516.07" y="612.03"/>
      <point x="507.09" y="553.67"/>
      <point x="471.18" y="504.3" type="curve" smooth="yes"/>
      <point x="435.27" y="459.41"/>
      <point x="390.38" y="441.45"/>
      <point x="332.02" y="445.94" type="curve" smooth="yes"/>
      <point x="314.06" y="445.94"/>
      <point x="305.09" y="454.92"/>
      <point x="296.11" y="468.39" type="curve" smooth="yes"/>
      <point x="282.64" y="490.84"/>
      <point x="278.15" y="517.77"/>
      <point x="273.66" y="544.7" type="curve"/>
      <point x="273.66" y="540.21"/>
      <point x="278.15" y="540.21"/>
      <point x="278.15" y="535.72" type="curve" smooth="yes"/>
      <point x="278.15" y="531.23" type="line"/>
      <point x="287.13" y="513.27"/>
      <point x="300.6" y="495.32"/>
      <point x="309.57" y="481.85" type="curve" smooth="yes"/>
      <point x="323.04" y="459.4"/>
      <point x="336.5" y="454.92"/>
      <point x="363.44" y="463.89" type="curve" smooth="yes"/>
      <point x="421.8" y="481.85"/>
      <point x="471.18" y="535.72"/>
      <point x="475.67" y="598.56" type="curve"/>
      <point x="480.16" y="629.98"/>
      <point x="475.67" y="656.92"/>
      <point x="466.69" y="688.34" type="curve" smooth="yes"/>
      <point x="453.22" y="733.23"/>
      <point x="417.31" y="755.68"/>
      <point x="372.42" y="764.65" type="curve" smooth="yes"/>
      <point x="318.55" y="773.63"/>
      <point x="264.68" y="764.65"/>
      <point x="215.3" y="751.18" type="curve" smooth="yes"/>
      <point x="197.34" y="746.69"/>
      <point x="179.39" y="742.2"/>
      <point x="161.43" y="733.22" type="curve" smooth="yes"/>
      <point x="134.5" y="719.75"/>
      <point x="116.54" y="697.31"/>
      <point x="103.07" y="674.86" type="curve" smooth="yes"/>
      <point x="67.16" y="612.01"/>
      <point x="49.2" y="544.68"/>
      <point x="53.69" y="472.85" type="curve" smooth="yes"/>
      <point x="58.18" y="410"/>
      <point x="85.11" y="356.13"/>
      <point x="143.47" y="311.24" type="curve" smooth="yes"/>
      <point x="165.91" y="293.28"/>
      <point x="188.36" y="275.33"/>
      <point x="206.32" y="257.37" type="curve" smooth="yes"/>
      <point x="210.81" y="252.88"/>
      <point x="210.81" y="248.39"/>
      <point x="215.3" y="243.9" type="curve"/>
      <point x="219.79" y="230.43"/>
      <point x="215.3" y="221.45"/>
      <point x="206.32" y="212.48" type="curve"/>
      <point x="206.32" y="207.99"/>
      <point x="201.83" y="203.5"/>
      <point x="197.34" y="203.5" type="curve"/>
      <point x="183.87" y="194.52"/>
      <point x="179.38" y="181.05"/>
      <point x="192.85" y="167.59" type="curve" smooth="yes"/>
      <point x="201.83" y="158.61"/>
      <point x="219.78" y="149.63"/>
      <point x="233.25" y="149.63" type="curve"/>
      <point x="233.25" y="149.63"/>
      <point x="237.74" y="149.63"/>
      <point x="242.23" y="154.12" type="curve" smooth="yes"/>
      <point x="264.68" y="176.57"/>
      <point x="278.14" y="207.99"/>
      <point x="282.63" y="239.41" type="curve"/>
      <point x="287.12" y="257.37"/>
      <point x="278.14" y="266.34"/>
      <point x="269.16" y="279.81" type="curve"/>
      <point x="255.69" y="293.28"/>
      <point x="246.71" y="302.26"/>
      <point x="237.74" y="315.72" type="curve"/>
      <point x="228.76" y="324.7"/>
      <point x="224.27" y="329.19"/>
      <point x="219.78" y="338.17" type="curve"/>
      <point x="215.29" y="342.66"/>
      <point x="210.8" y="351.64"/>
      <point x="215.29" y="360.62" type="curve"/>
      <point x="224.27" y="369.6"/>
      <point x="233.25" y="374.09"/>
      <point x="242.22" y="369.6" type="curve" smooth="yes"/>
      <point x="251.2" y="365.11"/>
      <point x="264.67" y="360.62"/>
      <point x="278.13" y="356.13" type="curve"/>
      <point x="287.11" y="351.64"/>
      <point x="300.58" y="342.66"/>
      <point x="309.55" y="338.17" type="curve"/>
      <point x="336.48" y="329.19"/>
      <point x="349.95" y="306.75"/>
    </contour>
    <contour>
      <point x="170.39" y="383.06" type="curve" smooth="yes"/>
      <point x="156.92" y="369.59"/>
      <point x="143.46" y="365.1"/>
      <point x="125.5" y="365.1" type="curve"/>
      <point x="121.01" y="369.59"/>
      <point x="112.03" y="369.59"/>
      <point x="107.54" y="369.59" type="curve" smooth="yes"/>
      <point x="98.56" y="369.59"/>
      <point x="94.07" y="378.57"/>
      <point x="98.56" y="387.55" type="curve"/>
      <point x="98.56" y="392.04"/>
      <point x="103.05" y="392.04"/>
      <point x="103.05" y="396.53" type="curve"/>
      <point x="116.52" y="410"/>
      <point x="125.5" y="423.46"/>
      <point x="138.96" y="436.93" type="curve" smooth="yes"/>
      <point x="143.45" y="441.42"/>
      <point x="147.94" y="445.91"/>
      <point x="156.92" y="441.42" type="curve"/>
      <point x="170.39" y="436.93"/>
      <point x="183.85" y="414.49"/>
      <point x="179.37" y="401.02" type="curve"/>
      <point x="179.37" y="392.04"/>
      <point x="174.88" y="387.55"/>
    </contour>
    <contour>
      <point x="170.39" y="531.2" type="curve" smooth="yes"/>
      <point x="170.39" y="522.22"/>
      <point x="161.41" y="513.24"/>
      <point x="156.92" y="508.75" type="curve"/>
      <point x="143.45" y="508.75"/>
      <point x="134.47" y="517.73"/>
      <point x="134.47" y="526.71" type="curve"/>
      <point x="129.98" y="540.18"/>
      <point x="143.45" y="549.16"/>
      <point x="152.43" y="549.16" type="curve" smooth="yes"/>
      <point x="161.41" y="549.16"/>
      <point x="170.39" y="540.18"/>
    </contour>
  </outline>
</glyph>
<glyph name="i_seti_markdown" format="2">
  <advance width="1000"/>
  <unicode hex="E609"/>
  <note>
i_seti_markdown
</note>
  <outline>
    <contour>
      <point x="727.4" y="421.27" type="line"/>
      <point x="727.39" y="895.21" type="line"/>
      <point x="669.94" y="856.91"/>
      <point x="526.33" y="751.59"/>
      <point x="497.6" y="751.59" type="curve" smooth="yes"/>
      <point x="468.88" y="751.59"/>
      <point x="320.47" y="856.91"/>
      <point x="258.24" y="899.99" type="curve"/>
      <point x="258.24" y="416.48" type="line"/>
      <point x="90.69" y="416.48" type="line"/>
      <point x="224.73" y="277.65"/>
      <point x="363.56" y="134.03"/>
      <point x="492.82" y="-0.01" type="curve"/>
      <point x="631.65" y="138.82"/>
      <point x="770.48" y="277.65"/>
      <point x="909.31" y="421.27" type="curve"/>
    </contour>
  </outline>
</glyph>
<glyph name="i_seti_license" format="2">
  <advance width="1000"/>
  <unicode hex="E60A"/>
  <note>
i_seti_license
</note>
  <outline>
    <contour>
      <point x="606.11" y="573.78" type="curve" smooth="yes"/>
      <point x="606.13" y="573.8" type="line" smooth="yes"/>
      <point x="598.27" y="660.26"/>
      <point x="531.46" y="719.21"/>
      <point x="441.06" y="723.14" type="curve" smooth="yes"/>
      <point x="382.11" y="723.14" type="line"/>
      <point x="378.18" y="774.23"/>
      <point x="397.83" y="844.97"/>
      <point x="480.36" y="852.83" type="curve" smooth="yes"/>
      <point x="515.73" y="856.76"/>
      <point x="547.17" y="848.9"/>
      <point x="574.68" y="821.39" type="curve" smooth="yes"/>
      <point x="598.26" y="793.88"/>
      <point x="606.12" y="762.44"/>
      <point x="606.12" y="727.07" type="curve" smooth="yes"/>
      <point x="606.12" y="723.14"/>
      <point x="606.12" y="715.28"/>
      <point x="610.05" y="711.35" type="curve" smooth="yes"/>
      <point x="645.42" y="675.98" type="line"/>
      <point x="657.21" y="711.35"/>
      <point x="657.21" y="746.72"/>
      <point x="649.35" y="782.09" type="curve" smooth="yes"/>
      <point x="629.7" y="852.83"/>
      <point x="570.75" y="896.06"/>
      <point x="496.07" y="899.99" type="curve" smooth="yes"/>
      <point x="452.84" y="899.99"/>
      <point x="413.54" y="892.13"/>
      <point x="382.1" y="860.69" type="curve" smooth="yes"/>
      <point x="327.08" y="809.6"/>
      <point x="307.43" y="695.62"/>
      <point x="386.03" y="620.95" type="curve" smooth="yes"/>
      <point x="397.82" y="609.16"/>
      <point x="413.54" y="601.3"/>
      <point x="429.26" y="593.44" type="curve" smooth="yes"/>
      <point x="448.91" y="585.58"/>
      <point x="464.63" y="601.3"/>
      <point x="464.63" y="617.02" type="curve" smooth="yes"/>
      <point x="464.63" y="632.74"/>
      <point x="456.77" y="644.53"/>
      <point x="437.12" y="648.46" type="curve"/>
      <point x="433.19" y="648.46"/>
      <point x="429.26" y="652.39"/>
      <point x="425.33" y="656.32" type="curve"/>
      <point x="425.33" y="660.25" type="line"/>
      <point x="441.05" y="664.18"/>
      <point x="460.7" y="660.25"/>
      <point x="472.49" y="648.46" type="curve" smooth="yes"/>
      <point x="484.28" y="636.67"/>
      <point x="488.21" y="620.95"/>
      <point x="484.28" y="601.3" type="curve" smooth="yes"/>
      <point x="476.42" y="573.79"/>
      <point x="452.84" y="562"/>
      <point x="421.4" y="569.86" type="curve" smooth="yes"/>
      <point x="378.17" y="581.65"/>
      <point x="350.66" y="609.16"/>
      <point x="331.01" y="648.46" type="curve"/>
      <point x="327.08" y="660.25"/>
      <point x="319.22" y="672.04"/>
      <point x="315.29" y="683.83" type="curve"/>
      <point x="287.78" y="656.32"/>
      <point x="264.2" y="628.81"/>
      <point x="256.34" y="589.51" type="curve" smooth="yes"/>
      <point x="240.62" y="518.77"/>
      <point x="260.27" y="459.81"/>
      <point x="311.36" y="412.65" type="curve" smooth="yes"/>
      <point x="315.29" y="408.72"/>
      <point x="319.22" y="404.79"/>
      <point x="315.29" y="396.93" type="curve"/>
      <point x="311.36" y="365.49"/>
      <point x="307.43" y="337.98"/>
      <point x="299.57" y="306.54" type="curve"/>
      <point x="287.78" y="239.73"/>
      <point x="279.92" y="176.85"/>
      <point x="268.13" y="110.03" type="curve" smooth="yes"/>
      <point x="264.2" y="90.38"/>
      <point x="264.2" y="66.8"/>
      <point x="268.13" y="47.15" type="curve" smooth="yes"/>
      <point x="272.06" y="31.43"/>
      <point x="279.92" y="19.64"/>
      <point x="299.57" y="11.78" type="curve"/>
      <point x="303.5" y="27.5"/>
      <point x="303.5" y="43.22"/>
      <point x="307.43" y="58.94" type="curve" smooth="yes"/>
      <point x="319.22" y="125.75"/>
      <point x="327.08" y="188.63"/>
      <point x="338.87" y="255.45" type="curve" smooth="yes"/>
      <point x="346.73" y="294.75"/>
      <point x="350.66" y="337.98"/>
      <point x="358.52" y="377.28" type="curve"/>
      <point x="358.52" y="385.14"/>
      <point x="362.45" y="389.07"/>
      <point x="370.31" y="389.07" type="curve" smooth="yes"/>
      <point x="378.17" y="389.07"/>
      <point x="378.17" y="381.21"/>
      <point x="378.17" y="373.35" type="curve" smooth="yes"/>
      <point x="374.24" y="334.05"/>
      <point x="366.38" y="294.75"/>
      <point x="358.52" y="259.38" type="curve"/>
      <point x="346.73" y="176.85"/>
      <point x="331.01" y="94.31"/>
      <point x="319.22" y="11.78" type="curve"/>
      <point x="319.22" y="7.85"/>
      <point x="323.15" y="3.92"/>
      <point x="323.15" y="3.92" type="curve"/>
      <point x="342.8" y="3.92"/>
      <point x="358.52" y="-0.01"/>
      <point x="378.17" y="-0.01" type="curve" smooth="yes"/>
      <point x="397.82" y="-0.01"/>
      <point x="413.54" y="15.71"/>
      <point x="425.33" y="31.43" type="curve"/>
      <point x="437.12" y="43.22"/>
      <point x="437.12" y="58.94"/>
      <point x="429.26" y="74.66" type="curve"/>
      <point x="425.33" y="78.59"/>
      <point x="421.4" y="82.52"/>
      <point x="421.4" y="86.45" type="curve"/>
      <point x="409.61" y="102.17"/>
      <point x="413.54" y="113.96"/>
      <point x="429.26" y="121.82" type="curve"/>
      <point x="433.19" y="125.75"/>
      <point x="441.05" y="125.75"/>
      <point x="444.98" y="129.68" type="curve"/>
      <point x="452.84" y="133.61"/>
      <point x="456.77" y="145.4"/>
      <point x="448.91" y="153.26" type="curve" smooth="yes"/>
      <point x="437.12" y="165.05"/>
      <point x="429.26" y="176.84"/>
      <point x="417.47" y="184.7" type="curve"/>
      <point x="409.61" y="192.56"/>
      <point x="413.54" y="208.28"/>
      <point x="421.4" y="212.21" type="curve" smooth="yes"/>
      <point x="433.19" y="220.07"/>
      <point x="448.91" y="224"/>
      <point x="460.7" y="231.86" type="curve" smooth="yes"/>
      <point x="468.56" y="235.79"/>
      <point x="472.49" y="243.65"/>
      <point x="464.63" y="251.51" type="curve" smooth="yes"/>
      <point x="460.7" y="255.44"/>
      <point x="456.77" y="259.37"/>
      <point x="452.84" y="267.23" type="curve"/>
      <point x="441.05" y="279.02"/>
      <point x="444.98" y="298.67"/>
      <point x="456.77" y="306.53" type="curve"/>
      <point x="460.7" y="310.46"/>
      <point x="464.63" y="314.39"/>
      <point x="472.49" y="314.39" type="curve"/>
      <point x="480.35" y="318.32"/>
      <point x="484.28" y="322.25"/>
      <point x="484.28" y="330.11" type="curve" smooth="yes"/>
      <point x="484.28" y="341.9"/>
      <point x="488.21" y="353.69"/>
      <point x="488.21" y="365.48" type="curve" smooth="yes"/>
      <point x="488.21" y="369.41"/>
      <point x="492.14" y="377.27"/>
      <point x="496.07" y="381.2" type="curve" smooth="yes"/>
      <point x="507.86" y="392.99"/>
      <point x="523.58" y="400.85"/>
      <point x="539.3" y="408.71" type="curve"/>
      <point x="594.32" y="448.01"/>
      <point x="613.97" y="506.96"/>
    </contour>
    <contour>
      <point x="747.59" y="125.73" type="curve"/>
      <point x="747.59" y="133.6"/>
      <point x="743.66" y="141.46"/>
      <point x="731.87" y="141.46" type="curve" smooth="yes"/>
      <point x="724.01" y="141.46"/>
      <point x="712.22" y="141.46"/>
      <point x="708.29" y="153.25" type="curve" smooth="yes"/>
      <point x="704.36" y="165.04"/>
      <point x="704.36" y="176.83"/>
      <point x="708.29" y="188.62" type="curve"/>
      <point x="716.15" y="204.34"/>
      <point x="712.22" y="216.13"/>
      <point x="692.57" y="220.06" type="curve"/>
      <point x="684.71" y="220.06"/>
      <point x="676.85" y="223.99"/>
      <point x="665.06" y="223.99" type="curve" smooth="yes"/>
      <point x="657.2" y="223.99"/>
      <point x="653.27" y="227.92"/>
      <point x="653.27" y="235.78" type="curve" smooth="yes"/>
      <point x="653.27" y="243.64"/>
      <point x="649.34" y="251.5"/>
      <point x="649.34" y="259.36" type="curve" smooth="yes"/>
      <point x="649.34" y="271.15"/>
      <point x="657.2" y="279.01"/>
      <point x="665.06" y="286.87" type="curve"/>
      <point x="672.92" y="298.66"/>
      <point x="672.92" y="302.59"/>
      <point x="661.13" y="310.45" type="curve"/>
      <point x="657.2" y="314.38"/>
      <point x="649.34" y="318.31"/>
      <point x="645.41" y="322.24" type="curve"/>
      <point x="629.69" y="330.1"/>
      <point x="629.69" y="337.96"/>
      <point x="637.55" y="353.68" type="curve"/>
      <point x="641.48" y="357.61"/>
      <point x="645.41" y="361.54"/>
      <point x="645.41" y="365.47" type="curve"/>
      <point x="653.27" y="373.33"/>
      <point x="653.27" y="381.19"/>
      <point x="649.34" y="389.05" type="curve" smooth="yes"/>
      <point x="645.41" y="396.91"/>
      <point x="641.48" y="408.7"/>
      <point x="633.62" y="416.56" type="curve"/>
      <point x="629.69" y="424.42"/>
      <point x="629.69" y="432.28"/>
      <point x="633.62" y="440.14" type="curve" smooth="yes"/>
      <point x="665.06" y="503.02"/>
      <point x="672.92" y="565.9"/>
      <point x="645.41" y="632.72" type="curve" smooth="yes"/>
      <point x="625.76" y="675.95"/>
      <point x="590.39" y="703.46"/>
      <point x="543.23" y="715.25" type="curve"/>
      <point x="539.3" y="711.32" type="line"/>
      <point x="543.23" y="707.39"/>
      <point x="547.16" y="699.53"/>
      <point x="551.09" y="695.6" type="curve" smooth="yes"/>
      <point x="598.25" y="656.3"/>
      <point x="625.76" y="605.21"/>
      <point x="625.76" y="542.33" type="curve" smooth="yes"/>
      <point x="625.76" y="475.52"/>
      <point x="598.25" y="420.5"/>
      <point x="539.3" y="377.26" type="curve"/>
      <point x="531.44" y="373.33"/>
      <point x="527.51" y="365.47"/>
      <point x="531.44" y="357.61" type="curve" smooth="yes"/>
      <point x="547.16" y="318.31"/>
      <point x="558.95" y="282.94"/>
      <point x="574.67" y="243.64" type="curve" smooth="yes"/>
      <point x="606.11" y="168.97"/>
      <point x="637.55" y="98.23"/>
      <point x="668.99" y="23.55" type="curve"/>
      <point x="672.92" y="19.62"/>
      <point x="672.92" y="15.69"/>
      <point x="680.78" y="15.69" type="curve"/>
      <point x="727.94" y="39.27"/>
      <point x="755.45" y="82.5"/>
    </contour>
    <contour>
      <point x="511.78" y="357.61" type="curve"/>
      <point x="507.85" y="341.89"/>
      <point x="507.85" y="330.1"/>
      <point x="503.92" y="318.31" type="curve"/>
      <point x="503.92" y="310.45"/>
      <point x="499.99" y="302.59"/>
      <point x="503.92" y="294.73" type="curve" smooth="yes"/>
      <point x="531.43" y="227.92"/>
      <point x="558.94" y="157.18"/>
      <point x="586.45" y="90.36" type="curve" smooth="yes"/>
      <point x="594.31" y="70.71"/>
      <point x="606.1" y="51.06"/>
      <point x="625.75" y="35.34" type="curve"/>
      <point x="633.61" y="31.41"/>
      <point x="641.47" y="27.48"/>
      <point x="645.4" y="23.55" type="curve"/>
      <point x="649.33" y="27.48" type="line"/>
      <point x="606.1" y="137.52"/>
      <point x="558.94" y="247.57"/>
    </contour>
  </outline>
</glyph>
<glyph name="i_seti_json" format="2">
  <advance width="1000"/>
  <unicode hex="E60B"/>
  <note>
i_seti_json
</note>
  <outline>
    <contour>
      <point x="67.8" y="498.32" type="curve"/>
      <point x="72.88" y="401.7" type="line"/>
      <point x="149.15" y="401.7"/>
      <point x="159.32" y="355.94"/>
      <point x="159.32" y="325.43" type="curve" smooth="yes"/>
      <point x="159.32" y="300.01"/>
      <point x="159.32" y="269.5"/>
      <point x="154.24" y="238.99" type="curve" smooth="yes"/>
      <point x="149.15" y="208.48"/>
      <point x="149.15" y="183.06"/>
      <point x="149.15" y="152.55" type="curve" smooth="yes"/>
      <point x="149.15" y="40.68"/>
      <point x="215.25" y="0.01"/>
      <point x="316.95" y="0.01" type="curve" smooth="yes"/>
      <point x="357.63" y="0.01" type="line"/>
      <point x="357.63" y="96.62" type="line"/>
      <point x="337.29" y="96.62" type="line" smooth="yes"/>
      <point x="286.44" y="96.62"/>
      <point x="271.19" y="127.13"/>
      <point x="271.19" y="177.98" type="curve" smooth="yes"/>
      <point x="271.19" y="193.23"/>
      <point x="276.28" y="218.66"/>
      <point x="276.28" y="239" type="curve" smooth="yes"/>
      <point x="276.28" y="259.34"/>
      <point x="281.36" y="284.76"/>
      <point x="281.36" y="315.27" type="curve" smooth="yes"/>
      <point x="281.36" y="401.71"/>
      <point x="245.77" y="432.22"/>
      <point x="184.75" y="447.47" type="curve"/>
      <point x="245.77" y="462.72"/>
      <point x="281.36" y="493.23"/>
      <point x="281.36" y="579.67" type="curve" smooth="yes"/>
      <point x="281.36" y="610.18"/>
      <point x="276.28" y="635.6"/>
      <point x="276.28" y="655.94" type="curve" smooth="yes"/>
      <point x="276.28" y="681.36"/>
      <point x="271.19" y="701.7"/>
      <point x="271.19" y="722.04" type="curve" smooth="yes"/>
      <point x="271.19" y="772.89"/>
      <point x="286.44" y="803.4"/>
      <point x="337.29" y="803.4" type="curve" smooth="yes"/>
      <point x="357.63" y="803.4" type="line"/>
      <point x="357.63" y="900.01" type="line"/>
      <point x="316.95" y="900.01" type="line" smooth="yes"/>
      <point x="210.17" y="900.01"/>
      <point x="144.07" y="854.25"/>
      <point x="144.07" y="747.47" type="curve" smooth="yes"/>
      <point x="144.07" y="722.05"/>
      <point x="149.15" y="691.54"/>
      <point x="149.15" y="661.03" type="curve" smooth="yes"/>
      <point x="149.15" y="630.52"/>
      <point x="154.24" y="605.1"/>
      <point x="154.24" y="574.59" type="curve" smooth="yes"/>
      <point x="154.24" y="539"/>
      <point x="144.07" y="498.32"/>
    </contour>
    <contour>
      <point x="932.21" y="411.87" type="curve"/>
      <point x="932.21" y="498.32" type="line"/>
      <point x="855.94" y="498.32"/>
      <point x="845.77" y="539"/>
      <point x="845.77" y="574.59" type="curve" smooth="yes"/>
      <point x="845.77" y="600.01"/>
      <point x="845.77" y="630.52"/>
      <point x="850.86" y="661.03" type="curve"/>
      <point x="850.86" y="691.54"/>
      <point x="855.95" y="716.96"/>
      <point x="855.95" y="747.47" type="curve" smooth="yes"/>
      <point x="855.95" y="854.25"/>
      <point x="789.85" y="900.01"/>
      <point x="683.07" y="900.01" type="curve" smooth="yes"/>
      <point x="642.39" y="900.01" type="line"/>
      <point x="642.39" y="803.4" type="line"/>
      <point x="662.73" y="803.4" type="line"/>
      <point x="708.49" y="798.32"/>
      <point x="728.83" y="772.89"/>
      <point x="728.83" y="722.04" type="curve" smooth="yes"/>
      <point x="728.83" y="701.7"/>
      <point x="728.83" y="681.36"/>
      <point x="723.74" y="655.94" type="curve"/>
      <point x="723.74" y="635.6"/>
      <point x="718.66" y="610.18"/>
      <point x="718.66" y="579.67" type="curve" smooth="yes"/>
      <point x="718.66" y="493.23"/>
      <point x="754.25" y="462.72"/>
      <point x="815.27" y="447.47" type="curve"/>
      <point x="754.25" y="432.22"/>
      <point x="718.66" y="401.71"/>
      <point x="718.66" y="315.27" type="curve" smooth="yes"/>
      <point x="718.66" y="289.85"/>
      <point x="723.74" y="264.42"/>
      <point x="723.74" y="239" type="curve"/>
      <point x="728.83" y="218.66"/>
      <point x="728.83" y="198.32"/>
      <point x="728.83" y="177.98" type="curve" smooth="yes"/>
      <point x="728.83" y="127.13"/>
      <point x="713.58" y="96.62"/>
      <point x="662.73" y="96.62" type="curve" smooth="yes"/>
      <point x="642.39" y="96.62" type="line"/>
      <point x="642.39" y="10.18" type="line"/>
      <point x="683.07" y="10.18" type="line" smooth="yes"/>
      <point x="784.77" y="10.18"/>
      <point x="855.95" y="50.86"/>
      <point x="855.95" y="162.72" type="curve" smooth="yes"/>
      <point x="855.95" y="188.14"/>
      <point x="855.95" y="218.65"/>
      <point x="850.86" y="249.16" type="curve"/>
      <point x="850.86" y="279.67"/>
      <point x="845.77" y="305.09"/>
      <point x="845.77" y="335.6" type="curve" smooth="yes"/>
      <point x="845.77" y="366.11"/>
      <point x="855.94" y="411.87"/>
    </contour>
  </outline>
</glyph>
<glyph name="i_seti_javascript" format="2">
  <advance width="1000"/>
  <unicode hex="E60C"/>
  <note>
i_seti_javascript
</note>
  <outline>
    <contour>
      <point x="396.41" y="777.07" type="line"/>
      <point x="249.24" y="777.07" type="line"/>
      <point x="249.24" y="362.78" type="line" smooth="yes"/>
      <point x="249.24" y="259.21"/>
      <point x="205.63" y="231.95"/>
      <point x="145.67" y="231.95" type="curve" smooth="yes"/>
      <point x="118.41" y="231.95"/>
      <point x="91.16" y="237.4"/>
      <point x="69.35" y="248.3" type="curve"/>
      <point x="52.99" y="128.37" type="line"/>
      <point x="80.25" y="117.47"/>
      <point x="129.31" y="112.02"/>
      <point x="162.01" y="112.02" type="curve" smooth="yes"/>
      <point x="309.19" y="112.02"/>
      <point x="396.41" y="177.44"/>
      <point x="396.41" y="362.78" type="curve" smooth="yes"/>
    </contour>
    <contour>
      <point x="527.22" y="275.57" type="curve" smooth="yes"/>
      <point x="527.24" y="275.56" type="line"/>
      <point x="494.53" y="150.18" type="line"/>
      <point x="532.69" y="133.83"/>
      <point x="603.55" y="112.02"/>
      <point x="679.87" y="112.02" type="curve" smooth="yes"/>
      <point x="859.76" y="112.02"/>
      <point x="946.98" y="204.69"/>
      <point x="946.98" y="313.72" type="curve" smooth="yes"/>
      <point x="946.98" y="406.39"/>
      <point x="892.47" y="466.35"/>
      <point x="777.99" y="509.96" type="curve" smooth="yes"/>
      <point x="696.22" y="542.67"/>
      <point x="658.06" y="559.02"/>
      <point x="658.06" y="602.63" type="curve" smooth="yes"/>
      <point x="658.06" y="640.79"/>
      <point x="690.77" y="668.05"/>
      <point x="756.18" y="668.05" type="curve" smooth="yes"/>
      <point x="821.59" y="668.05"/>
      <point x="865.2" y="646.25"/>
      <point x="892.46" y="635.34" type="curve"/>
      <point x="925.17" y="755.27" type="line"/>
      <point x="887.01" y="771.62"/>
      <point x="832.5" y="787.98"/>
      <point x="756.18" y="787.98" type="curve" smooth="yes"/>
      <point x="598.09" y="787.98"/>
      <point x="505.42" y="706.21"/>
      <point x="505.42" y="591.74" type="curve" smooth="yes"/>
      <point x="505.42" y="493.62"/>
      <point x="576.29" y="433.66"/>
      <point x="685.31" y="395.5" type="curve" smooth="yes"/>
      <point x="761.63" y="368.24"/>
      <point x="794.33" y="346.44"/>
      <point x="794.33" y="302.83" type="curve" smooth="yes"/>
      <point x="794.33" y="259.22"/>
      <point x="761.62" y="231.96"/>
      <point x="690.76" y="231.96" type="curve" smooth="yes"/>
      <point x="630.8" y="231.96"/>
      <point x="565.38" y="253.76"/>
    </contour>
  </outline>
</glyph>
<glyph name="i_seti_image" format="2">
  <advance width="1000"/>
  <unicode hex="E60D"/>
  <note>
i_seti_image
</note>
  <outline>
    <contour>
      <point x="749.38" y="393.54" type="curve" smooth="yes"/>
      <point x="796.43" y="393.54"/>
      <point x="834.08" y="431.18"/>
      <point x="834.08" y="478.24" type="curve" smooth="yes"/>
      <point x="834.08" y="525.29"/>
      <point x="796.44" y="562.93"/>
      <point x="749.38" y="562.93" type="curve" smooth="yes"/>
      <point x="702.33" y="562.93"/>
      <point x="664.69" y="525.29"/>
      <point x="664.69" y="478.24" type="curve" smooth="yes"/>
      <point x="664.69" y="431.19"/>
      <point x="702.33" y="393.54"/>
    </contour>
    <contour>
      <point x="947" y="652.33" type="line"/>
      <point x="227.1" y="652.33" type="line"/>
      <point x="227.1" y="68.88" type="line"/>
      <point x="947" y="68.88" type="line"/>
    </contour>
    <contour>
      <point x="260.02" y="186.51" type="line"/>
      <point x="260.03" y="619.39" type="line"/>
      <point x="914.06" y="619.39" type="line"/>
      <point x="914.06" y="111.22" type="line"/>
      <point x="744.67" y="304.14" type="line"/>
      <point x="641.15" y="181.8" type="line"/>
      <point x="434.12" y="402.95" type="line"/>
    </contour>
    <contour>
      <point x="721.14" y="751.14" type="line"/>
      <point x="721.14" y="831.13" type="line"/>
      <point x="52.99" y="831.13" type="line"/>
      <point x="52.99" y="322.96" type="line"/>
      <point x="142.39" y="322.96" type="line"/>
      <point x="142.39" y="751.14" type="line"/>
    </contour>
  </outline>
</glyph>
<glyph name="i_seti_html" format="2">
  <advance width="1000"/>
  <unicode hex="E60E"/>
  <note>
i_seti_html
</note>
  <outline>
    <contour>
      <point x="388.25" y="818.79" type="line"/>
      <point x="53" y="505.88" type="line"/>
      <point x="53" y="394.13" type="line"/>
      <point x="388.25" y="81.23" type="line"/>
      <point x="388.25" y="226.51" type="line"/>
      <point x="136.81" y="450.01" type="line"/>
      <point x="388.25" y="673.51" type="line"/>
    </contour>
    <contour>
      <point x="611.75" y="75.66" type="line"/>
      <point x="947" y="388.55" type="line"/>
      <point x="947" y="511.48" type="line"/>
      <point x="611.75" y="824.38" type="line"/>
      <point x="611.75" y="673.52" type="line"/>
      <point x="868.78" y="450.02" type="line"/>
      <point x="611.75" y="226.52" type="line"/>
    </contour>
  </outline>
</glyph>
<glyph name="i_seti_mustache" format="2">
  <advance width="1000"/>
  <unicode hex="E60F"/>
  <note>
i_seti_mustache
</note>
  <outline>
    <contour>
      <point x="155.07" y="462.16" type="curve" smooth="yes"/>
      <point x="155.08" y="462.18" type="line" smooth="yes"/>
      <point x="175.43" y="478.46"/>
      <point x="175.43" y="506.94"/>
      <point x="146.94" y="519.15" type="curve" smooth="yes"/>
      <point x="130.66" y="527.29"/>
      <point x="110.31" y="527.29"/>
      <point x="94.04" y="519.15" type="curve"/>
      <point x="65.55" y="511.01"/>
      <point x="57.42" y="486.59"/>
      <point x="53.34" y="458.11" type="curve"/>
      <point x="49.27" y="397.07"/>
      <point x="81.83" y="364.51"/>
      <point x="126.59" y="348.23" type="curve" smooth="yes"/>
      <point x="171.35" y="331.95"/>
      <point x="216.12" y="336.02"/>
      <point x="260.88" y="352.3" type="curve" smooth="yes"/>
      <point x="297.51" y="364.51"/>
      <point x="330.06" y="380.79"/>
      <point x="366.69" y="397.06" type="curve" smooth="yes"/>
      <point x="395.18" y="409.27"/>
      <point x="427.73" y="421.48"/>
      <point x="456.22" y="429.62" type="curve" smooth="yes"/>
      <point x="505.05" y="441.83"/>
      <point x="553.89" y="433.69"/>
      <point x="598.65" y="413.34" type="curve" smooth="yes"/>
      <point x="708.53" y="364.51" type="line"/>
      <point x="761.43" y="344.16"/>
      <point x="814.34" y="331.95"/>
      <point x="871.31" y="348.23" type="curve" smooth="yes"/>
      <point x="899.8" y="356.37"/>
      <point x="924.21" y="368.58"/>
      <point x="936.42" y="397.06" type="curve" smooth="yes"/>
      <point x="948.63" y="421.48"/>
      <point x="948.63" y="449.96"/>
      <point x="944.56" y="474.38" type="curve" smooth="yes"/>
      <point x="936.42" y="515.08"/>
      <point x="899.8" y="535.42"/>
      <point x="863.17" y="523.21" type="curve" smooth="yes"/>
      <point x="850.96" y="519.14"/>
      <point x="838.75" y="511"/>
      <point x="838.75" y="494.72" type="curve" smooth="yes"/>
      <point x="838.75" y="482.51"/>
      <point x="842.82" y="470.3"/>
      <point x="855.03" y="462.16" type="curve"/>
      <point x="855.03" y="466.23" type="line"/>
      <point x="850.96" y="474.37"/>
      <point x="855.03" y="482.51"/>
      <point x="863.17" y="486.58" type="curve" smooth="yes"/>
      <point x="871.31" y="490.65"/>
      <point x="879.45" y="490.65"/>
      <point x="887.59" y="482.51" type="curve" smooth="yes"/>
      <point x="895.73" y="474.37"/>
      <point x="899.8" y="466.23"/>
      <point x="895.73" y="454.02" type="curve"/>
      <point x="887.59" y="437.74"/>
      <point x="867.24" y="425.53"/>
      <point x="846.9" y="429.6" type="curve" smooth="yes"/>
      <point x="830.62" y="433.67"/>
      <point x="818.41" y="441.81"/>
      <point x="806.2" y="454.02" type="curve" smooth="yes"/>
      <point x="781.78" y="474.37"/>
      <point x="761.44" y="494.72"/>
      <point x="737.02" y="515.06" type="curve" smooth="yes"/>
      <point x="704.46" y="543.55"/>
      <point x="663.77" y="559.82"/>
      <point x="619" y="559.82" type="curve" smooth="yes"/>
      <point x="578.3" y="559.82"/>
      <point x="545.75" y="543.54"/>
      <point x="521.33" y="515.06" type="curve" smooth="yes"/>
      <point x="517.26" y="510.99"/>
      <point x="513.19" y="506.92"/>
      <point x="509.12" y="498.78" type="curve"/>
      <point x="500.98" y="506.92" type="line"/>
      <point x="476.56" y="531.34" type="line" smooth="yes"/>
      <point x="435.86" y="567.97"/>
      <point x="387.03" y="567.97"/>
      <point x="338.2" y="551.69" type="curve" smooth="yes"/>
      <point x="301.58" y="539.48"/>
      <point x="277.16" y="515.07"/>
      <point x="248.67" y="490.65" type="curve" smooth="yes"/>
      <point x="228.32" y="470.3"/>
      <point x="207.97" y="454.03"/>
      <point x="187.63" y="437.75" type="curve"/>
      <point x="175.42" y="425.54"/>
      <point x="163.21" y="425.54"/>
      <point x="146.93" y="429.61" type="curve" smooth="yes"/>
      <point x="122.51" y="437.75"/>
      <point x="110.3" y="458.1"/>
      <point x="122.51" y="478.44" type="curve"/>
      <point x="126.58" y="490.65"/>
      <point x="142.86" y="490.65"/>
      <point x="151" y="482.51" type="curve" smooth="yes"/>
      <point x="155.07" y="478.44"/>
      <point x="155.07" y="470.3"/>
    </contour>
  </outline>
</glyph>
<glyph name="i_seti_gulp" format="2">
  <advance width="1000"/>
  <unicode hex="E610"/>
  <note>
i_seti_gulp
</note>
  <outline>
    <contour>
      <point x="645.48" y="209.36" type="curve"/>
      <point x="549.68" y="184.52"/>
      <point x="457.42" y="184.52"/>
      <point x="368.71" y="209.36" type="curve"/>
      <point x="368.71" y="205.81" type="line"/>
      <point x="390" y="184.52"/>
      <point x="390" y="156.13"/>
      <point x="390" y="127.74" type="curve" smooth="yes"/>
      <point x="390" y="99.35"/>
      <point x="390" y="74.51"/>
      <point x="393.55" y="46.13" type="curve"/>
      <point x="393.55" y="39.03"/>
      <point x="400.65" y="31.94"/>
      <point x="404.19" y="28.39" type="curve"/>
      <point x="421.93" y="17.74"/>
      <point x="443.22" y="10.65"/>
      <point x="464.51" y="3.55" type="curve"/>
      <point x="468.06" y="3.55"/>
      <point x="475.16" y="0"/>
      <point x="478.7" y="0" type="curve" smooth="yes"/>
      <point x="517.73" y="0" type="line"/>
      <point x="542.57" y="7.1"/>
      <point x="570.96" y="17.74"/>
      <point x="595.8" y="24.84" type="curve" smooth="yes"/>
      <point x="606.45" y="28.39"/>
      <point x="613.54" y="35.48"/>
      <point x="613.54" y="49.68" type="curve"/>
      <point x="617.09" y="85.16"/>
      <point x="620.64" y="124.2"/>
      <point x="624.19" y="159.68" type="curve" smooth="yes"/>
      <point x="624.19" y="166.78"/>
      <point x="627.74" y="177.42"/>
      <point x="631.29" y="184.52" type="curve" smooth="yes"/>
      <point x="634.84" y="191.62"/>
      <point x="638.39" y="198.71"/>
    </contour>
    <contour>
      <point x="698.7" y="659.98" type="curve" smooth="yes"/>
      <point x="698.71" y="660.01" type="line" smooth="yes"/>
      <point x="567.42" y="628.07"/>
      <point x="432.58" y="628.07"/>
      <point x="297.74" y="656.46" type="curve"/>
      <point x="297.74" y="638.72"/>
      <point x="297.74" y="620.98"/>
      <point x="301.29" y="603.23" type="curve" smooth="yes"/>
      <point x="308.39" y="546.46"/>
      <point x="319.03" y="493.23"/>
      <point x="322.58" y="436.45" type="curve" smooth="yes"/>
      <point x="322.58" y="432.9"/>
      <point x="326.13" y="429.35"/>
      <point x="326.13" y="425.8" type="curve" smooth="yes"/>
      <point x="329.68" y="393.86" type="line" smooth="yes"/>
      <point x="333.23" y="358.38"/>
      <point x="336.78" y="326.44"/>
      <point x="340.33" y="294.5" type="curve"/>
      <point x="343.88" y="280.31"/>
      <point x="347.43" y="262.56"/>
      <point x="347.43" y="244.82" type="curve"/>
      <point x="350.98" y="230.62"/>
      <point x="354.53" y="216.43"/>
      <point x="372.27" y="212.88" type="curve"/>
      <point x="421.95" y="198.69"/>
      <point x="471.63" y="195.14"/>
      <point x="521.3" y="198.69" type="curve" smooth="yes"/>
      <point x="556.78" y="202.24"/>
      <point x="588.72" y="205.79"/>
      <point x="624.2" y="212.88" type="curve" smooth="yes"/>
      <point x="645.49" y="216.43"/>
      <point x="659.68" y="227.07"/>
      <point x="659.68" y="251.91" type="curve"/>
      <point x="663.23" y="290.94"/>
      <point x="666.78" y="329.98"/>
      <point x="670.32" y="365.46" type="curve" smooth="yes"/>
      <point x="684.51" y="510.95" type="line" smooth="yes"/>
      <point x="688.06" y="560.63"/>
      <point x="695.16" y="610.31"/>
    </contour>
    <contour>
      <point x="297.73" y="681.27" type="curve"/>
      <point x="333.21" y="638.69"/>
      <point x="641.93" y="635.14"/>
      <point x="702.25" y="681.27" type="curve"/>
      <point x="691.6" y="684.82"/>
      <point x="684.51" y="688.37"/>
      <point x="677.41" y="688.37" type="curve" smooth="yes"/>
      <point x="617.09" y="691.92"/>
      <point x="560.31" y="695.47"/>
      <point x="499.99" y="699.02" type="curve" smooth="yes"/>
      <point x="482.25" y="699.02"/>
      <point x="471.6" y="702.57"/>
      <point x="464.51" y="723.86" type="curve"/>
      <point x="457.41" y="773.54"/>
      <point x="432.57" y="816.12"/>
      <point x="393.54" y="848.06" type="curve" smooth="yes"/>
      <point x="379.35" y="858.7"/>
      <point x="368.7" y="872.9"/>
      <point x="354.51" y="887.09" type="curve" smooth="yes"/>
      <point x="336.77" y="904.83"/>
      <point x="336.77" y="904.83"/>
      <point x="315.48" y="883.54" type="curve"/>
      <point x="343.87" y="855.15"/>
      <point x="368.71" y="823.22"/>
      <point x="397.09" y="794.83" type="curve" smooth="yes"/>
      <point x="421.93" y="769.99"/>
      <point x="421.93" y="738.05"/>
      <point x="432.57" y="706.12" type="curve"/>
      <point x="432.57" y="706.12"/>
      <point x="421.92" y="699.02"/>
      <point x="418.38" y="699.02" type="curve" smooth="yes"/>
      <point x="386.44" y="695.47"/>
      <point x="350.96" y="691.92"/>
      <point x="319.02" y="688.37" type="curve" smooth="yes"/>
      <point x="311.92" y="688.37"/>
      <point x="304.83" y="684.82"/>
    </contour>
  </outline>
</glyph>
<glyph name="i_seti_grunt" format="2">
  <advance width="1000"/>
  <unicode hex="E611"/>
  <note>
i_seti_grunt
</note>
  <outline>
    <contour>
      <point x="786.48" y="439.65" type="curve" smooth="yes"/>
      <point x="786.49" y="439.66" type="line" smooth="yes"/>
      <point x="804.2" y="448.51"/>
      <point x="826.33" y="457.37"/>
      <point x="844.03" y="470.64" type="curve" smooth="yes"/>
      <point x="883.87" y="497.2"/>
      <point x="883.87" y="545.89"/>
      <point x="844.03" y="563.59" type="curve" smooth="yes"/>
      <point x="835.18" y="568.02"/>
      <point x="830.75" y="576.87"/>
      <point x="826.32" y="590.15" type="curve"/>
      <point x="821.89" y="616.71"/>
      <point x="826.32" y="638.84"/>
      <point x="839.6" y="660.97" type="curve" smooth="yes"/>
      <point x="870.58" y="705.23"/>
      <point x="848.45" y="740.64"/>
      <point x="790.91" y="745.07" type="curve" smooth="yes"/>
      <point x="786.48" y="745.07" type="line"/>
      <point x="782.05" y="749.5" type="line"/>
      <point x="777.62" y="771.63"/>
      <point x="773.2" y="789.34"/>
      <point x="799.76" y="807.04" type="curve"/>
      <point x="808.61" y="811.47"/>
      <point x="821.89" y="815.89"/>
      <point x="835.17" y="820.32" type="curve"/>
      <point x="844.02" y="824.74"/>
      <point x="852.88" y="824.74"/>
      <point x="857.3" y="824.74" type="curve"/>
      <point x="857.3" y="829.17"/>
      <point x="852.87" y="829.17"/>
      <point x="852.87" y="829.17" type="curve"/>
      <point x="821.88" y="864.58"/>
      <point x="777.62" y="873.43"/>
      <point x="737.79" y="869.01" type="curve" smooth="yes"/>
      <point x="684.67" y="864.59"/>
      <point x="653.69" y="838.03"/>
      <point x="622.71" y="802.61" type="curve"/>
      <point x="618.28" y="793.76"/>
      <point x="609.43" y="793.76"/>
      <point x="600.58" y="798.19" type="curve" smooth="yes"/>
      <point x="591.73" y="802.61"/>
      <point x="591.73" y="807.04"/>
      <point x="591.73" y="811.47" type="curve" smooth="yes"/>
      <point x="591.73" y="820.32"/>
      <point x="596.16" y="829.18"/>
      <point x="596.16" y="838.03" type="curve"/>
      <point x="609.44" y="864.59" type="line"/>
      <point x="582.88" y="864.59"/>
      <point x="565.18" y="851.31"/>
      <point x="543.04" y="838.03" type="curve"/>
      <point x="529.76" y="860.16"/>
      <point x="529.76" y="877.87"/>
      <point x="538.61" y="900" type="curve"/>
      <point x="498.77" y="886.72"/>
      <point x="472.22" y="869.01"/>
      <point x="463.36" y="829.18" type="curve"/>
      <point x="450.08" y="842.46"/>
      <point x="454.51" y="860.17"/>
      <point x="454.51" y="877.87" type="curve"/>
      <point x="450.08" y="877.87" type="line" smooth="yes"/>
      <point x="445.65" y="877.87"/>
      <point x="445.65" y="873.44"/>
      <point x="441.23" y="873.44" type="curve"/>
      <point x="419.1" y="855.73"/>
      <point x="405.82" y="833.6"/>
      <point x="401.39" y="811.47" type="curve"/>
      <point x="401.39" y="807.04"/>
      <point x="396.97" y="802.62"/>
      <point x="396.97" y="798.19" type="curve"/>
      <point x="392.54" y="802.61"/>
      <point x="388.12" y="802.61"/>
      <point x="383.69" y="807.04" type="curve"/>
      <point x="365.98" y="820.32"/>
      <point x="348.28" y="838.03"/>
      <point x="330.57" y="851.3" type="curve"/>
      <point x="277.45" y="882.29"/>
      <point x="228.76" y="882.29"/>
      <point x="175.65" y="855.73" type="curve"/>
      <point x="140.24" y="820.32" type="line"/>
      <point x="157.95" y="811.47"/>
      <point x="175.65" y="811.47"/>
      <point x="193.36" y="802.61" type="curve"/>
      <point x="224.34" y="793.76"/>
      <point x="233.2" y="776.05"/>
      <point x="219.92" y="740.64" type="curve"/>
      <point x="211.07" y="740.64"/>
      <point x="202.21" y="736.21"/>
      <point x="193.36" y="736.21" type="curve"/>
      <point x="162.38" y="727.36"/>
      <point x="149.1" y="705.23"/>
      <point x="153.52" y="678.67" type="curve"/>
      <point x="157.95" y="665.39"/>
      <point x="166.8" y="652.11"/>
      <point x="171.23" y="638.83" type="curve"/>
      <point x="171.23" y="634.4"/>
      <point x="175.66" y="629.98"/>
      <point x="175.66" y="625.55" type="curve" smooth="yes"/>
      <point x="175.66" y="581.29" type="line" smooth="yes"/>
      <point x="175.66" y="572.44"/>
      <point x="166.81" y="563.58"/>
      <point x="157.95" y="554.73" type="curve" smooth="yes"/>
      <point x="149.1" y="545.88"/>
      <point x="135.82" y="537.02"/>
      <point x="131.39" y="523.74" type="curve"/>
      <point x="118.11" y="501.61"/>
      <point x="131.39" y="475.05"/>
      <point x="153.52" y="457.34" type="curve" smooth="yes"/>
      <point x="171.23" y="444.06"/>
      <point x="188.93" y="435.21"/>
      <point x="211.06" y="426.36" type="curve" smooth="yes"/>
      <point x="237.62" y="413.08"/>
      <point x="246.47" y="395.38"/>
      <point x="246.47" y="373.24" type="curve" smooth="yes"/>
      <point x="246.47" y="346.68"/>
      <point x="246.47" y="324.55"/>
      <point x="242.05" y="297.99" type="curve"/>
      <point x="242.05" y="289.14"/>
      <point x="237.62" y="275.86"/>
      <point x="237.62" y="262.58" type="curve"/>
      <point x="211.06" y="284.71"/>
      <point x="193.36" y="306.84"/>
      <point x="188.93" y="337.83" type="curve"/>
      <point x="162.37" y="315.7"/>
      <point x="149.09" y="293.57"/>
      <point x="149.09" y="267.01" type="curve"/>
      <point x="140.24" y="209.47"/>
      <point x="162.37" y="151.92"/>
      <point x="233.19" y="125.37" type="curve"/>
      <point x="237.62" y="125.37"/>
      <point x="242.04" y="120.94"/>
      <point x="246.47" y="116.52" type="curve"/>
      <point x="273.03" y="72.26"/>
      <point x="312.87" y="45.7"/>
      <point x="365.98" y="36.85" type="curve"/>
      <point x="370.41" y="36.85"/>
      <point x="374.83" y="36.85"/>
      <point x="374.83" y="32.42" type="curve"/>
      <point x="423.52" y="1.44"/>
      <point x="472.21" y="-2.99"/>
      <point x="525.33" y="1.44" type="curve" smooth="yes"/>
      <point x="556.31" y="5.87"/>
      <point x="582.87" y="10.29"/>
      <point x="605" y="28" type="curve" smooth="yes"/>
      <point x="609.43" y="32.43"/>
      <point x="618.28" y="32.43"/>
      <point x="622.71" y="36.85" type="curve"/>
      <point x="675.83" y="45.7"/>
      <point x="711.24" y="72.26"/>
      <point x="737.8" y="112.1" type="curve"/>
      <point x="751.08" y="125.38" type="line"/>
      <point x="777.64" y="134.23"/>
      <point x="799.77" y="147.51"/>
      <point x="813.05" y="169.64" type="curve" smooth="yes"/>
      <point x="835.18" y="200.63"/>
      <point x="839.61" y="240.46"/>
      <point x="835.18" y="271.45" type="curve" smooth="yes"/>
      <point x="830.75" y="298.01"/>
      <point x="817.47" y="315.71"/>
      <point x="795.34" y="337.85" type="curve"/>
      <point x="786.49" y="306.87"/>
      <point x="773.21" y="284.73"/>
      <point x="746.65" y="262.6" type="curve"/>
      <point x="742.22" y="302.44"/>
      <point x="742.22" y="342.27"/>
      <point x="742.22" y="377.68" type="curve"/>
      <point x="751.07" y="413.09"/>
      <point x="764.35" y="430.8"/>
    </contour>
  </outline>
</glyph>
<glyph name="i_custom_default" format="2">
  <advance width="1000"/>
  <unicode hex="E612"/>
  <note>
i_custom_default
</note>
  <outline>
    <contour>
      <point x="879.46" y="900" type="line"/>
      <point x="79.62" y="900" type="line"/>
      <point x="76.79" y="785.74" type="line"/>
      <point x="883.69" y="785.74" type="line"/>
    </contour>
    <contour>
      <point x="769.42" y="637.62" type="line"/>
      <point x="76.79" y="637.62" type="line"/>
      <point x="79.61" y="524.77" type="line"/>
      <point x="768.01" y="524.77" type="line"/>
    </contour>
    <contour>
      <point x="920.38" y="375.24" type="line"/>
      <point x="79.62" y="375.24" type="line"/>
      <point x="76.81" y="262.39" type="line"/>
      <point x="923.21" y="262.39" type="line"/>
    </contour>
    <contour>
      <point x="571.94" y="114.27" type="line"/>
      <point x="76.8" y="114.27" type="line"/>
      <point x="79.61" y="0.01" type="line"/>
      <point x="569.11" y="0.01" type="line"/>
    </contour>
  </outline>
</glyph>
<glyph name="i_seti_folder" format="2">
  <advance width="1000"/>
  <unicode hex="E613"/>
  <note>
i_seti_folder
</note>
  <outline>
    <contour>
      <point x="876.72" y="715.81" type="curve" smooth="yes"/>
      <point x="505.75" y="715.81" type="line"/>
      <point x="505.75" y="750.86" type="line" smooth="yes"/>
      <point x="505.75" y="791.75"/>
      <point x="473.62" y="823.88"/>
      <point x="432.73" y="823.88" type="curve" smooth="yes"/>
      <point x="53" y="823.88" type="line"/>
      <point x="53" y="76.11" type="line"/>
      <point x="946.82" y="76.11" type="line"/>
      <point x="946.82" y="642.78" type="line"/>
      <point x="949.74" y="683.67"/>
      <point x="917.61" y="715.81"/>
    </contour>
  </outline>
</glyph>
<glyph name="i_seti_css" format="2">
  <advance width="1000"/>
  <unicode hex="E614"/>
  <note>
i_seti_css
</note>
  <outline>
    <contour>
      <point x="203" y="252" type="line"/>
      <point x="155" y="12" type="line"/>
      <point x="329" y="12" type="line"/>
      <point x="377" y="252" type="line"/>
      <point x="545" y="252" type="line"/>
      <point x="497" y="12" type="line"/>
      <point x="665" y="12" type="line"/>
      <point x="713" y="252" type="line"/>
      <point x="893" y="252" type="line"/>
      <point x="893" y="378" type="line"/>
      <point x="737" y="378" type="line"/>
      <point x="773" y="528" type="line"/>
      <point x="947" y="528" type="line"/>
      <point x="947" y="654" type="line"/>
      <point x="797" y="654" type="line"/>
      <point x="845" y="888" type="line"/>
      <point x="677" y="888" type="line"/>
      <point x="629" y="654" type="line"/>
      <point x="461" y="654" type="line"/>
      <point x="509" y="888" type="line"/>
      <point x="341" y="888" type="line"/>
      <point x="293" y="654" type="line"/>
      <point x="107" y="654" type="line"/>
      <point x="107" y="528" type="line"/>
      <point x="263" y="528" type="line"/>
      <point x="233" y="378" type="line"/>
      <point x="53" y="378" type="line"/>
      <point x="53" y="252" type="line"/>
    </contour>
    <contour>
      <point x="599" y="528" type="line"/>
      <point x="569" y="378" type="line"/>
      <point x="401" y="378" type="line"/>
      <point x="431" y="528" type="line"/>
    </contour>
  </outline>
</glyph>
<glyph name="i_seti_config" format="2">
  <advance width="1000"/>
  <unicode hex="E615"/>
  <note>
i_seti_config
</note>
  <outline>
    <contour>
      <point x="917.83" y="388.95" type="curve" smooth="yes"/>
      <point x="917.82" y="388.97" type="line" smooth="yes"/>
      <point x="898.16" y="393.89"/>
      <point x="878.5" y="403.72"/>
      <point x="863.75" y="408.63" type="curve"/>
      <point x="863.75" y="443.04"/>
      <point x="858.83" y="472.53"/>
      <point x="858.83" y="506.94" type="curve" smooth="yes"/>
      <point x="858.83" y="511.86"/>
      <point x="863.75" y="511.86"/>
      <point x="863.75" y="516.77" type="curve"/>
      <point x="883.41" y="526.6"/>
      <point x="898.16" y="531.52"/>
      <point x="917.82" y="541.35" type="curve" smooth="yes"/>
      <point x="937.48" y="551.18"/>
      <point x="942.4" y="570.84"/>
      <point x="937.48" y="590.51" type="curve"/>
      <point x="922.73" y="624.92"/>
      <point x="907.99" y="654.41"/>
      <point x="893.24" y="688.82" type="curve" smooth="yes"/>
      <point x="883.41" y="708.48"/>
      <point x="863.75" y="718.31"/>
      <point x="844.09" y="708.48" type="curve" smooth="yes"/>
      <point x="824.43" y="698.65"/>
      <point x="809.68" y="693.73"/>
      <point x="790.02" y="683.9" type="curve"/>
      <point x="785.11" y="683.9"/>
      <point x="780.19" y="683.9"/>
      <point x="780.19" y="688.81" type="curve"/>
      <point x="770.36" y="703.56"/>
      <point x="755.61" y="713.39"/>
      <point x="745.78" y="723.22" type="curve" smooth="yes"/>
      <point x="735.95" y="733.05"/>
      <point x="721.2" y="742.88"/>
      <point x="711.37" y="752.71" type="curve"/>
      <point x="721.2" y="772.37"/>
      <point x="726.12" y="792.03"/>
      <point x="735.95" y="811.7" type="curve" smooth="yes"/>
      <point x="745.78" y="836.28"/>
      <point x="735.95" y="855.94"/>
      <point x="711.37" y="865.77" type="curve"/>
      <point x="681.88" y="870.69"/>
      <point x="647.47" y="885.43"/>
      <point x="617.98" y="895.26" type="curve" smooth="yes"/>
      <point x="593.4" y="905.09"/>
      <point x="573.74" y="895.26"/>
      <point x="563.91" y="870.68" type="curve"/>
      <point x="558.99" y="851.02"/>
      <point x="549.16" y="831.36"/>
      <point x="544.25" y="816.61" type="curve"/>
      <point x="509.84" y="816.61"/>
      <point x="480.35" y="811.69"/>
      <point x="445.94" y="811.69" type="curve" smooth="yes"/>
      <point x="441.02" y="811.69"/>
      <point x="441.02" y="816.61"/>
      <point x="436.11" y="816.61" type="curve"/>
      <point x="426.28" y="836.27"/>
      <point x="421.36" y="851.02"/>
      <point x="411.53" y="870.68" type="curve" smooth="yes"/>
      <point x="401.7" y="890.34"/>
      <point x="382.04" y="895.26"/>
      <point x="362.37" y="890.34" type="curve"/>
      <point x="327.96" y="875.59"/>
      <point x="298.47" y="860.85"/>
      <point x="264.06" y="846.1" type="curve" smooth="yes"/>
      <point x="244.4" y="836.27"/>
      <point x="234.57" y="816.61"/>
      <point x="244.4" y="796.94" type="curve" smooth="yes"/>
      <point x="254.23" y="777.28"/>
      <point x="259.15" y="762.53"/>
      <point x="268.98" y="742.87" type="curve"/>
      <point x="268.98" y="737.95"/>
      <point x="268.98" y="733.04"/>
      <point x="264.07" y="733.04" type="curve"/>
      <point x="254.24" y="723.21"/>
      <point x="244.41" y="718.29"/>
      <point x="239.49" y="708.46" type="curve"/>
      <point x="224.74" y="693.71"/>
      <point x="214.91" y="678.97"/>
      <point x="200.16" y="664.22" type="curve"/>
      <point x="180.5" y="669.14"/>
      <point x="160.84" y="678.97"/>
      <point x="146.09" y="683.88" type="curve" smooth="yes"/>
      <point x="121.51" y="693.71"/>
      <point x="101.85" y="683.88"/>
      <point x="92.02" y="659.3" type="curve" smooth="yes"/>
      <point x="82.19" y="634.72"/>
      <point x="67.44" y="600.31"/>
      <point x="57.61" y="570.82" type="curve" smooth="yes"/>
      <point x="47.78" y="541.33"/>
      <point x="52.69" y="526.58"/>
      <point x="82.19" y="516.75" type="curve" smooth="yes"/>
      <point x="101.85" y="511.84"/>
      <point x="121.51" y="502"/>
      <point x="136.26" y="497.09" type="curve"/>
      <point x="136.26" y="462.68"/>
      <point x="141.18" y="433.19"/>
      <point x="141.18" y="398.78" type="curve" smooth="yes"/>
      <point x="141.18" y="393.86"/>
      <point x="136.26" y="393.86"/>
      <point x="136.26" y="388.95" type="curve"/>
      <point x="116.6" y="379.12"/>
      <point x="101.85" y="374.2"/>
      <point x="82.19" y="364.37" type="curve" smooth="yes"/>
      <point x="62.53" y="354.54"/>
      <point x="57.61" y="334.88"/>
      <point x="62.53" y="315.21" type="curve"/>
      <point x="77.28" y="280.8"/>
      <point x="92.02" y="251.31"/>
      <point x="106.77" y="216.9" type="curve" smooth="yes"/>
      <point x="116.6" y="197.24"/>
      <point x="136.26" y="187.41"/>
      <point x="155.93" y="197.24" type="curve" smooth="yes"/>
      <point x="175.59" y="207.07"/>
      <point x="190.34" y="211.99"/>
      <point x="210" y="221.82" type="curve"/>
      <point x="214.92" y="221.82"/>
      <point x="219.83" y="221.82"/>
      <point x="219.83" y="216.9" type="curve"/>
      <point x="229.66" y="202.15"/>
      <point x="244.41" y="192.32"/>
      <point x="254.24" y="182.49" type="curve" smooth="yes"/>
      <point x="264.07" y="172.66"/>
      <point x="278.82" y="162.83"/>
      <point x="288.65" y="153" type="curve"/>
      <point x="278.82" y="133.34"/>
      <point x="273.9" y="113.68"/>
      <point x="264.07" y="94.01" type="curve" smooth="yes"/>
      <point x="254.24" y="69.43"/>
      <point x="264.07" y="49.77"/>
      <point x="288.65" y="39.94" type="curve" smooth="yes"/>
      <point x="318.14" y="30.11"/>
      <point x="347.64" y="15.36"/>
      <point x="382.05" y="5.53" type="curve" smooth="yes"/>
      <point x="411.54" y="-4.3"/>
      <point x="426.29" y="0.61"/>
      <point x="436.12" y="30.11" type="curve" smooth="yes"/>
      <point x="441.03" y="49.77"/>
      <point x="450.87" y="69.44"/>
      <point x="455.78" y="84.18" type="curve"/>
      <point x="490.19" y="84.18"/>
      <point x="519.68" y="89.1"/>
      <point x="554.09" y="89.1" type="curve" smooth="yes"/>
      <point x="559.01" y="89.1"/>
      <point x="559.01" y="84.18"/>
      <point x="563.92" y="84.18" type="curve"/>
      <point x="573.75" y="64.52"/>
      <point x="578.67" y="49.77"/>
      <point x="588.5" y="30.11" type="curve" smooth="yes"/>
      <point x="598.33" y="10.45"/>
      <point x="617.99" y="5.53"/>
      <point x="637.66" y="10.45" type="curve"/>
      <point x="672.07" y="25.2"/>
      <point x="701.56" y="39.94"/>
      <point x="735.97" y="54.69" type="curve" smooth="yes"/>
      <point x="755.63" y="64.52"/>
      <point x="765.46" y="84.18"/>
      <point x="755.63" y="103.85" type="curve" smooth="yes"/>
      <point x="745.8" y="123.51"/>
      <point x="740.88" y="138.26"/>
      <point x="731.05" y="157.92" type="curve"/>
      <point x="731.05" y="162.84"/>
      <point x="731.05" y="167.75"/>
      <point x="735.96" y="167.75" type="curve"/>
      <point x="750.71" y="177.58"/>
      <point x="760.54" y="192.33"/>
      <point x="770.37" y="202.16" type="curve" smooth="yes"/>
      <point x="780.2" y="211.99"/>
      <point x="790.03" y="226.74"/>
      <point x="799.86" y="236.57" type="curve"/>
      <point x="819.52" y="231.65"/>
      <point x="839.18" y="221.82"/>
      <point x="853.93" y="216.91" type="curve" smooth="yes"/>
      <point x="878.51" y="207.08"/>
      <point x="898.17" y="216.91"/>
      <point x="908" y="241.49" type="curve" smooth="yes"/>
      <point x="917.83" y="270.98"/>
      <point x="932.58" y="300.48"/>
      <point x="942.41" y="334.88" type="curve"/>
      <point x="952.24" y="359.46"/>
      <point x="947.33" y="379.12"/>
    </contour>
    <contour>
      <point x="573.73" y="285.73" type="curve" smooth="yes"/>
      <point x="573.74" y="285.72" type="line" smooth="yes"/>
      <point x="480.35" y="246.39"/>
      <point x="377.12" y="285.72"/>
      <point x="332.88" y="379.12" type="curve" smooth="yes"/>
      <point x="293.55" y="472.51"/>
      <point x="332.88" y="575.74"/>
      <point x="426.27" y="619.98" type="curve" smooth="yes"/>
      <point x="519.67" y="659.31"/>
      <point x="622.89" y="619.98"/>
      <point x="667.13" y="526.59" type="curve" smooth="yes"/>
      <point x="706.45" y="433.2"/>
      <point x="667.13" y="329.97"/>
    </contour>
  </outline>
</glyph>
<glyph name="i_seti_npm" format="2">
  <advance width="1000"/>
  <unicode hex="E616"/>
  <note>
i_seti_npm
</note>
  <outline>
    <contour>
      <point x="947" y="625.08" type="line"/>
      <point x="53" y="625.08" type="line"/>
      <point x="53" y="327.08" type="line"/>
      <point x="306.3" y="327.08" type="line"/>
      <point x="306.3" y="274.93" type="line"/>
      <point x="503.73" y="274.93" type="line"/>
      <point x="503.73" y="323.36" type="line"/>
      <point x="947" y="323.36" type="line"/>
    </contour>
    <contour>
      <point x="298.85" y="572.92" type="line"/>
      <point x="298.85" y="375.5" type="line"/>
      <point x="250.42" y="375.5" type="line"/>
      <point x="250.42" y="520.77" type="line"/>
      <point x="202" y="520.77" type="line"/>
      <point x="202" y="375.5" type="line"/>
      <point x="101.42" y="375.5" type="line"/>
      <point x="101.42" y="572.92" type="line"/>
    </contour>
    <contour>
      <point x="544.69" y="375.5" type="curve"/>
      <point x="444.12" y="375.5" type="line"/>
      <point x="444.12" y="323.35" type="line"/>
      <point x="343.54" y="323.35" type="line"/>
      <point x="343.54" y="569.2" type="line"/>
      <point x="540.97" y="569.2" type="line"/>
      <point x="544.69" y="509.6"/>
      <point x="544.69" y="442.55"/>
    </contour>
    <contour>
      <point x="894.84" y="572.92" type="line"/>
      <point x="894.84" y="375.5" type="line"/>
      <point x="846.41" y="375.5" type="line"/>
      <point x="846.41" y="520.77" type="line"/>
      <point x="797.99" y="520.77" type="line"/>
      <point x="797.99" y="375.5" type="line"/>
      <point x="745.84" y="375.5" type="line"/>
      <point x="745.84" y="520.77" type="line"/>
      <point x="697.41" y="520.77" type="line"/>
      <point x="697.41" y="375.5" type="line"/>
      <point x="596.84" y="375.5" type="line"/>
      <point x="596.84" y="572.92" type="line"/>
    </contour>
    <contour>
      <point x="496.26" y="423.92" type="line"/>
      <point x="496.26" y="520.77" type="line"/>
      <point x="447.84" y="520.77" type="line"/>
      <point x="447.84" y="423.92" type="line"/>
    </contour>
  </outline>
</glyph>
<glyph name="i_custom_home" format="2">
  <advance width="1000"/>
  <unicode hex="E617"/>
  <note>
i_custom_home
</note>
  <outline>
    <contour>
      <point x="588.63" y="855.69" type="curve" smooth="yes"/>
      <point x="544.31" y="885.23"/>
      <point x="514.77" y="900"/>
      <point x="500" y="900" type="curve" smooth="yes"/>
      <point x="485.23" y="900"/>
      <point x="455.23" y="885.23"/>
      <point x="410" y="855.69" type="curve" smooth="yes"/>
      <point x="365.69" y="827.07"/>
      <point x="319.08" y="794.77"/>
      <point x="270.15" y="758.77" type="curve" smooth="yes"/>
      <point x="222.15" y="722.77"/>
      <point x="179.69" y="690"/>
      <point x="142.77" y="660.46" type="curve" smooth="yes"/>
      <point x="84.62" y="617.54" type="line"/>
      <point x="87.39" y="0" type="line"/>
      <point x="368.47" y="116.31" type="line"/>
      <point x="369.85" y="426.46" type="line"/>
      <point x="386.47" y="441.69" type="line" smooth="yes"/>
      <point x="396.62" y="452.77"/>
      <point x="408.63" y="465.23"/>
      <point x="422.47" y="479.07" type="curve" smooth="yes"/>
      <point x="436.32" y="493.84"/>
      <point x="450.62" y="506.76"/>
      <point x="465.39" y="517.84" type="curve" smooth="yes"/>
      <point x="480.16" y="528.92"/>
      <point x="491.7" y="534.46"/>
      <point x="500.01" y="534.46" type="curve" smooth="yes"/>
      <point x="509.24" y="534.46"/>
      <point x="521.24" y="528.92"/>
      <point x="536.01" y="517.84" type="curve" smooth="yes"/>
      <point x="550.78" y="506.76"/>
      <point x="565.09" y="493.84"/>
      <point x="578.93" y="479.07" type="curve" smooth="yes"/>
      <point x="592.78" y="465.22"/>
      <point x="604.31" y="452.76"/>
      <point x="613.55" y="441.69" type="curve"/>
      <point x="630.17" y="426.46" type="line"/>
      <point x="631.55" y="116.31" type="line"/>
      <point x="912.63" y="0" type="line"/>
      <point x="915.4" y="617.54" type="line"/>
      <point x="858.63" y="660.46" type="line" smooth="yes"/>
      <point x="820.78" y="690"/>
      <point x="777.4" y="722.77"/>
      <point x="728.48" y="758.77" type="curve" smooth="yes"/>
      <point x="680.48" y="794.77"/>
      <point x="633.86" y="827.08"/>
    </contour>
  </outline>
</glyph>
<glyph name="i_seti_ejs" format="2">
  <advance width="1000"/>
  <unicode hex="E618"/>
  <note>
i_seti_ejs
</note>
  <outline>
    <contour>
      <point x="389.56" y="818.12" type="line"/>
      <point x="53" y="507.85" type="line"/>
      <point x="53" y="392.15" type="line"/>
      <point x="389.56" y="81.88" type="line"/>
      <point x="389.56" y="229.13" type="line"/>
      <point x="137.14" y="450" type="line"/>
      <point x="389.56" y="670.87" type="line"/>
    </contour>
    <contour>
      <point x="610.44" y="76.62" type="line"/>
      <point x="947" y="386.9" type="line"/>
      <point x="947" y="513.11" type="line"/>
      <point x="610.44" y="823.38" type="line"/>
      <point x="610.44" y="670.87" type="line"/>
      <point x="868.12" y="450" type="line"/>
      <point x="868.12" y="444.74" type="line"/>
      <point x="610.44" y="223.87" type="line"/>
    </contour>
  </outline>
</glyph>
<glyph name="i_seti_xml" format="2">
  <advance width="1000"/>
  <unicode hex="E619"/>
  <note>
i_seti_xml
</note>
  <outline>
    <contour>
      <point x="59.98" y="896.78" type="curve"/>
      <point x="59.98" y="833.95"/>
      <point x="59.98" y="771.11"/>
      <point x="66.96" y="708.28" type="curve"/>
      <point x="255.46" y="708.28"/>
      <point x="430" y="645.44"/>
      <point x="562.65" y="505.81" type="curve" smooth="yes"/>
      <point x="695.3" y="366.18"/>
      <point x="758.14" y="205.6"/>
      <point x="765.12" y="10.12" type="curve"/>
      <point x="946.64" y="10.12" type="line"/>
      <point x="960.6" y="463.92"/>
      <point x="562.65" y="903.76"/>
    </contour>
    <contour>
      <point x="478.88" y="3.14" type="curve"/>
      <point x="660.4" y="3.14" type="line"/>
      <point x="653.42" y="191.64"/>
      <point x="583.6" y="345.24"/>
      <point x="443.97" y="470.91" type="curve"/>
      <point x="332.26" y="561.67"/>
      <point x="206.59" y="610.54"/>
      <point x="59.98" y="610.54" type="curve"/>
      <point x="59.98" y="436" type="line" smooth="yes"/>
      <point x="59.98" y="429.02"/>
      <point x="59.98" y="422.04"/>
      <point x="73.94" y="422.04" type="curve" smooth="yes"/>
      <point x="94.89" y="422.04"/>
      <point x="108.85" y="422.04"/>
      <point x="122.81" y="415.06" type="curve"/>
      <point x="297.35" y="380.15"/>
      <point x="402.07" y="282.41"/>
      <point x="457.93" y="114.85" type="curve"/>
      <point x="464.91" y="79.94"/>
      <point x="471.89" y="38.05"/>
    </contour>
    <contour>
      <point x="304.34" y="128.81" type="curve" smooth="yes"/>
      <point x="304.34" y="198.63"/>
      <point x="248.49" y="254.48"/>
      <point x="178.67" y="254.48" type="curve" smooth="yes"/>
      <point x="108.85" y="254.48"/>
      <point x="53" y="198.63"/>
      <point x="53" y="128.81" type="curve"/>
      <point x="59.98" y="58.99"/>
      <point x="108.85" y="3.14"/>
      <point x="178.67" y="3.14" type="curve" smooth="yes"/>
      <point x="248.49" y="3.14"/>
      <point x="304.34" y="58.99"/>
    </contour>
  </outline>
</glyph>
<glyph name="i_seti_bower" format="2">
  <advance width="1000"/>
  <unicode hex="E61A"/>
  <note>
i_seti_bower
</note>
  <outline>
    <contour>
      <point x="906.59" y="472.79" type="curve"/>
      <point x="893.12" y="477.28"/>
      <point x="879.65" y="486.26"/>
      <point x="861.69" y="490.75" type="curve" smooth="yes"/>
      <point x="780.87" y="513.2"/>
      <point x="700.05" y="522.18"/>
      <point x="619.23" y="535.65" type="curve"/>
      <point x="605.76" y="535.65"/>
      <point x="592.29" y="540.14"/>
      <point x="574.33" y="540.14" type="curve"/>
      <point x="578.82" y="562.59"/>
      <point x="587.8" y="571.57"/>
      <point x="619.23" y="576.06" type="curve"/>
      <point x="623.72" y="571.57"/>
      <point x="623.72" y="562.59"/>
      <point x="628.21" y="558.1" type="curve"/>
      <point x="628.21" y="553.61"/>
      <point x="632.7" y="549.12"/>
      <point x="637.19" y="553.61" type="curve"/>
      <point x="668.62" y="553.61" type="line"/>
      <point x="722.5" y="562.59"/>
      <point x="758.42" y="589.53"/>
      <point x="780.87" y="643.41" type="curve"/>
      <point x="785.36" y="661.37"/>
      <point x="789.85" y="679.33"/>
      <point x="794.34" y="692.8" type="curve"/>
      <point x="798.83" y="728.72"/>
      <point x="812.3" y="764.64"/>
      <point x="839.24" y="791.58" type="curve" smooth="yes"/>
      <point x="848.22" y="800.56" type="line"/>
      <point x="785.36" y="818.52"/>
      <point x="673.11" y="778.11"/>
      <point x="628.21" y="683.82" type="curve"/>
      <point x="619.23" y="688.31"/>
      <point x="605.76" y="688.31"/>
      <point x="596.78" y="692.8" type="curve"/>
      <point x="592.29" y="692.8"/>
      <point x="587.8" y="697.29"/>
      <point x="587.8" y="701.78" type="curve"/>
      <point x="569.84" y="751.17"/>
      <point x="538.41" y="791.58"/>
      <point x="489.02" y="823.01" type="curve" smooth="yes"/>
      <point x="453.1" y="845.46"/>
      <point x="403.71" y="849.95"/>
      <point x="363.3" y="845.46" type="curve" smooth="yes"/>
      <point x="269.01" y="831.99"/>
      <point x="192.68" y="787.09"/>
      <point x="134.31" y="715.25" type="curve" smooth="yes"/>
      <point x="75.94" y="643.41"/>
      <point x="49" y="553.61"/>
      <point x="53.49" y="463.81" type="curve" smooth="yes"/>
      <point x="57.98" y="369.52"/>
      <point x="89.41" y="279.72"/>
      <point x="143.29" y="198.9" type="curve" smooth="yes"/>
      <point x="161.25" y="171.96"/>
      <point x="192.68" y="145.02"/>
      <point x="215.13" y="122.57" type="curve"/>
      <point x="246.56" y="104.61"/>
      <point x="286.97" y="104.61"/>
      <point x="313.91" y="131.55" type="curve" smooth="yes"/>
      <point x="318.4" y="136.04"/>
      <point x="322.89" y="145.02"/>
      <point x="327.38" y="149.51" type="curve"/>
      <point x="327.38" y="145.02"/>
      <point x="331.87" y="145.02"/>
      <point x="331.87" y="140.53" type="curve"/>
      <point x="340.85" y="122.57"/>
      <point x="345.34" y="95.63"/>
      <point x="354.32" y="82.16" type="curve"/>
      <point x="363.3" y="64.2"/>
      <point x="394.73" y="50.73"/>
      <point x="417.18" y="59.71" type="curve"/>
      <point x="421.67" y="64.2"/>
      <point x="426.16" y="64.2"/>
      <point x="430.65" y="59.71" type="curve"/>
      <point x="448.61" y="50.73"/>
      <point x="466.57" y="50.73"/>
      <point x="484.53" y="59.71" type="curve" smooth="yes"/>
      <point x="493.51" y="64.2"/>
      <point x="498" y="73.18"/>
      <point x="506.98" y="73.18" type="curve"/>
      <point x="515.96" y="77.67"/>
      <point x="524.94" y="73.18"/>
      <point x="533.92" y="73.18" type="curve"/>
      <point x="556.37" y="77.67"/>
      <point x="578.82" y="86.65"/>
      <point x="578.82" y="118.08" type="curve"/>
      <point x="578.82" y="118.08"/>
      <point x="578.82" y="122.57"/>
      <point x="583.31" y="122.57" type="curve"/>
      <point x="592.29" y="127.06"/>
      <point x="601.27" y="136.04"/>
      <point x="601.27" y="145.02" type="curve"/>
      <point x="605.76" y="158.49"/>
      <point x="605.76" y="171.96"/>
      <point x="601.27" y="189.92" type="curve"/>
      <point x="587.8" y="212.37"/>
      <point x="574.33" y="243.8"/>
      <point x="556.37" y="266.25" type="curve" smooth="yes"/>
      <point x="551.88" y="270.74" type="line"/>
      <point x="565.35" y="266.25"/>
      <point x="578.82" y="261.76"/>
      <point x="596.78" y="257.27" type="curve" smooth="yes"/>
      <point x="619.23" y="252.78"/>
      <point x="641.68" y="252.78"/>
      <point x="659.64" y="270.74" type="curve"/>
      <point x="664.13" y="270.74"/>
      <point x="664.13" y="266.25"/>
      <point x="668.62" y="266.25" type="curve"/>
      <point x="704.54" y="243.8"/>
      <point x="753.93" y="252.78"/>
      <point x="780.87" y="284.21" type="curve"/>
      <point x="789.85" y="284.21" type="line"/>
      <point x="816.79" y="279.72"/>
      <point x="839.24" y="284.21"/>
      <point x="861.69" y="302.17" type="curve"/>
      <point x="870.67" y="311.15"/>
      <point x="879.65" y="320.13"/>
      <point x="879.65" y="333.6" type="curve" smooth="yes"/>
      <point x="879.65" y="338.09" type="line"/>
      <point x="924.55" y="342.58"/>
      <point x="947" y="360.54"/>
      <point x="947" y="405.44" type="curve"/>
      <point x="942.51" y="436.87"/>
      <point x="933.53" y="459.32"/>
    </contour>
    <contour>
      <point x="709.03" y="594.02" type="curve"/>
      <point x="691.07" y="585.04"/>
      <point x="673.11" y="580.55"/>
      <point x="646.17" y="580.55" type="curve"/>
      <point x="646.17" y="580.55"/>
      <point x="641.68" y="580.55"/>
      <point x="641.68" y="585.04" type="curve"/>
      <point x="637.19" y="594.02"/>
      <point x="637.19" y="603"/>
      <point x="632.7" y="611.98" type="curve"/>
      <point x="632.7" y="616.47"/>
      <point x="632.7" y="616.47"/>
      <point x="637.19" y="616.47" type="curve" smooth="yes"/>
      <point x="650.66" y="616.47"/>
      <point x="655.15" y="616.47"/>
      <point x="655.15" y="598.51" type="curve"/>
      <point x="664.13" y="611.98"/>
      <point x="664.13" y="611.98"/>
      <point x="677.6" y="607.49" type="curve"/>
      <point x="686.58" y="603"/>
      <point x="695.56" y="603"/>
      <point x="704.54" y="598.51" type="curve" smooth="yes"/>
      <point x="713.52" y="594.02"/>
      <point x="713.52" y="594.02"/>
    </contour>
    <contour>
      <point x="650.66" y="688.31" type="curve"/>
      <point x="668.62" y="719.74"/>
      <point x="695.56" y="742.19"/>
      <point x="718.01" y="760.15" type="curve"/>
      <point x="740.46" y="773.62"/>
      <point x="762.91" y="782.6"/>
      <point x="789.85" y="782.6" type="curve"/>
      <point x="785.36" y="778.11"/>
      <point x="780.87" y="773.62"/>
      <point x="776.38" y="764.64" type="curve"/>
      <point x="762.91" y="746.68"/>
      <point x="762.91" y="719.74"/>
      <point x="758.42" y="701.78" type="curve" smooth="yes"/>
      <point x="753.93" y="679.33"/>
      <point x="749.44" y="656.88"/>
      <point x="740.46" y="634.43" type="curve"/>
      <point x="740.46" y="625.45"/>
      <point x="731.48" y="620.96"/>
      <point x="731.48" y="616.47" type="curve"/>
      <point x="718.01" y="629.94"/>
      <point x="704.54" y="638.92"/>
      <point x="686.58" y="652.39" type="curve"/>
      <point x="686.58" y="661.37" type="line"/>
      <point x="704.54" y="692.8"/>
      <point x="722.5" y="728.72"/>
      <point x="753.93" y="751.17" type="curve"/>
      <point x="709.03" y="733.21"/>
      <point x="691.07" y="701.78"/>
      <point x="668.62" y="661.37" type="curve"/>
      <point x="659.64" y="665.86"/>
      <point x="655.15" y="670.35"/>
      <point x="646.17" y="674.84" type="curve"/>
      <point x="646.17" y="679.33"/>
      <point x="650.66" y="683.82"/>
    </contour>
    <contour>
      <point x="529.43" y="611.98" type="curve" smooth="yes"/>
      <point x="529.43" y="634.43"/>
      <point x="533.92" y="656.88"/>
      <point x="547.39" y="674.84" type="curve"/>
      <point x="547.39" y="679.33"/>
      <point x="556.37" y="679.33"/>
      <point x="556.37" y="679.33" type="curve"/>
      <point x="601.27" y="674.84"/>
      <point x="637.19" y="661.37"/>
      <point x="673.11" y="634.43" type="curve"/>
      <point x="682.09" y="629.94"/>
      <point x="686.58" y="620.96"/>
      <point x="695.56" y="616.47" type="curve"/>
      <point x="686.58" y="620.96"/>
      <point x="673.11" y="620.96"/>
      <point x="664.13" y="625.45" type="curve"/>
      <point x="641.68" y="629.94"/>
      <point x="614.74" y="629.94"/>
      <point x="592.29" y="620.96" type="curve"/>
      <point x="574.33" y="607.49"/>
      <point x="551.88" y="607.49"/>
      <point x="529.43" y="611.98" type="curve"/>
      <point x="542.9" y="598.51"/>
      <point x="556.37" y="598.51"/>
      <point x="574.33" y="603" type="curve"/>
      <point x="587.8" y="603"/>
      <point x="596.78" y="607.49"/>
      <point x="610.25" y="611.98" type="curve"/>
      <point x="610.25" y="607.49"/>
      <point x="605.76" y="603"/>
      <point x="605.76" y="603" type="curve"/>
      <point x="587.8" y="589.53"/>
      <point x="560.86" y="580.55"/>
      <point x="538.41" y="571.57" type="curve"/>
      <point x="533.92" y="571.57" type="line"/>
      <point x="529.43" y="585.04"/>
      <point x="529.43" y="598.51"/>
    </contour>
    <contour>
      <point x="394.73" y="719.74" type="curve" smooth="yes"/>
      <point x="435.14" y="719.74"/>
      <point x="475.55" y="683.82"/>
      <point x="475.55" y="638.92" type="curve" smooth="yes"/>
      <point x="475.55" y="594.02"/>
      <point x="439.63" y="558.1"/>
      <point x="394.73" y="558.1" type="curve" smooth="yes"/>
      <point x="349.83" y="558.1"/>
      <point x="313.91" y="594.02"/>
      <point x="313.91" y="638.92" type="curve" smooth="yes"/>
      <point x="313.91" y="688.31"/>
      <point x="349.83" y="719.74"/>
    </contour>
    <contour>
      <point x="601.27" y="445.85" type="curve"/>
      <point x="619.23" y="441.36"/>
      <point x="646.17" y="436.87"/>
      <point x="664.13" y="436.87" type="curve"/>
      <point x="691.07" y="432.38"/>
      <point x="713.52" y="427.89"/>
      <point x="744.95" y="423.4" type="curve"/>
      <point x="753.93" y="423.4"/>
      <point x="758.42" y="418.91"/>
      <point x="749.44" y="409.93" type="curve"/>
      <point x="740.46" y="396.46"/>
      <point x="718.01" y="387.48"/>
      <point x="700.05" y="391.97" type="curve"/>
      <point x="691.07" y="391.97" type="line"/>
      <point x="695.56" y="382.99"/>
      <point x="691.07" y="369.52"/>
      <point x="682.09" y="365.03" type="curve"/>
      <point x="668.62" y="351.56"/>
      <point x="655.15" y="347.07"/>
      <point x="637.19" y="347.07" type="curve" smooth="yes"/>
      <point x="628.21" y="347.07"/>
      <point x="614.74" y="351.56"/>
      <point x="605.76" y="351.56" type="curve"/>
      <point x="601.27" y="324.62"/>
      <point x="551.88" y="315.64"/>
      <point x="520.45" y="338.09" type="curve"/>
      <point x="524.94" y="324.62"/>
      <point x="529.43" y="311.15"/>
      <point x="533.92" y="293.19" type="curve"/>
      <point x="533.92" y="279.72" type="line"/>
      <point x="524.94" y="212.37"/>
      <point x="471.06" y="162.98"/>
      <point x="403.71" y="158.49" type="curve" smooth="yes"/>
      <point x="340.85" y="154"/>
      <point x="277.99" y="171.96"/>
      <point x="224.11" y="212.37" type="curve"/>
      <point x="174.72" y="243.8"/>
      <point x="138.8" y="288.7"/>
      <point x="116.35" y="338.09" type="curve"/>
      <point x="116.35" y="342.58"/>
      <point x="111.86" y="342.58"/>
      <point x="111.86" y="347.07" type="curve"/>
      <point x="129.82" y="342.58"/>
      <point x="147.78" y="338.09"/>
      <point x="161.25" y="333.6" type="curve"/>
      <point x="192.68" y="329.11"/>
      <point x="224.11" y="329.11"/>
      <point x="255.54" y="351.56" type="curve"/>
      <point x="264.52" y="351.56" type="line"/>
      <point x="295.95" y="342.58"/>
      <point x="327.38" y="338.09"/>
      <point x="363.3" y="342.58" type="curve" smooth="yes"/>
      <point x="412.69" y="351.56"/>
      <point x="448.61" y="378.5"/>
      <point x="484.53" y="418.91" type="curve" smooth="yes"/>
      <point x="498" y="432.38"/>
      <point x="506.98" y="450.34"/>
      <point x="515.96" y="468.3" type="curve"/>
      <point x="524.94" y="481.77"/>
      <point x="533.92" y="490.75"/>
      <point x="542.9" y="499.73" type="curve"/>
      <point x="551.88" y="499.73" type="line"/>
      <point x="587.8" y="495.24"/>
      <point x="623.72" y="490.75"/>
      <point x="664.13" y="486.26" type="curve" smooth="yes"/>
      <point x="713.52" y="477.28"/>
      <point x="758.42" y="468.3"/>
      <point x="812.3" y="459.32" type="curve"/>
      <point x="812.3" y="459.32"/>
      <point x="816.79" y="459.32"/>
      <point x="816.79" y="454.83" type="curve"/>
      <point x="749.44" y="450.34"/>
      <point x="673.11" y="441.36"/>
    </contour>
    <contour>
      <point x="394.73" y="594.02" type="curve" smooth="yes"/>
      <point x="421.67" y="594.02"/>
      <point x="444.12" y="611.98"/>
      <point x="444.12" y="638.92" type="curve" smooth="yes"/>
      <point x="444.12" y="665.86"/>
      <point x="421.67" y="683.82"/>
      <point x="394.73" y="683.82" type="curve" smooth="yes"/>
      <point x="367.79" y="683.82"/>
      <point x="345.34" y="661.37"/>
      <point x="345.34" y="638.92" type="curve" smooth="yes"/>
      <point x="345.34" y="616.47"/>
      <point x="363.3" y="594.02"/>
    </contour>
    <contour>
      <point x="367.79" y="674.84" type="curve"/>
      <point x="372.28" y="679.33"/>
      <point x="381.26" y="679.33"/>
      <point x="390.24" y="683.82" type="curve"/>
      <point x="399.22" y="679.33"/>
      <point x="403.71" y="679.33"/>
      <point x="412.69" y="674.84" type="curve" smooth="yes"/>
      <point x="421.67" y="670.35"/>
      <point x="421.67" y="661.37"/>
      <point x="412.69" y="652.39" type="curve" smooth="yes"/>
      <point x="403.71" y="643.41"/>
      <point x="381.26" y="643.41"/>
      <point x="363.3" y="652.39" type="curve"/>
      <point x="358.81" y="661.37"/>
      <point x="358.81" y="670.35"/>
    </contour>
  </outline>
</glyph>
<glyph name="i_seti_coffee" format="2">
  <advance width="1000"/>
  <unicode hex="E61B"/>
  <note>
i_seti_coffee
</note>
  <outline>
    <contour>
      <point x="539.74" y="792.31" type="curve" smooth="yes"/>
      <point x="539.73" y="792.32" type="line" smooth="yes"/>
      <point x="514.9" y="787.35"/>
      <point x="500" y="777.42"/>
      <point x="425.5" y="742.65" type="curve" smooth="yes"/>
      <point x="385.77" y="722.78"/>
      <point x="331.13" y="717.82"/>
      <point x="316.23" y="732.72" type="curve"/>
      <point x="301.33" y="752.59"/>
      <point x="321.2" y="762.52"/>
      <point x="365.9" y="762.52" type="curve" smooth="yes"/>
      <point x="405.63" y="762.52"/>
      <point x="415.57" y="767.49"/>
      <point x="400.67" y="777.42" type="curve" smooth="yes"/>
      <point x="370.87" y="797.29"/>
      <point x="301.34" y="782.39"/>
      <point x="286.44" y="757.55" type="curve"/>
      <point x="281.47" y="742.65"/>
      <point x="281.47" y="737.68"/>
      <point x="291.41" y="722.78" type="curve"/>
      <point x="316.24" y="697.95"/>
      <point x="336.11" y="688.01"/>
      <point x="390.74" y="692.98" type="curve"/>
      <point x="430.47" y="692.98"/>
      <point x="450.34" y="697.95"/>
      <point x="490.07" y="722.78" type="curve"/>
      <point x="549.67" y="752.58"/>
      <point x="614.24" y="767.48"/>
      <point x="653.97" y="762.51" type="curve" smooth="yes"/>
      <point x="693.7" y="757.55"/>
      <point x="703.64" y="742.64"/>
      <point x="678.8" y="727.74" type="curve"/>
      <point x="658.93" y="712.84"/>
      <point x="609.27" y="707.87"/>
      <point x="589.4" y="727.74" type="curve"/>
      <point x="569.53" y="737.67"/>
      <point x="544.7" y="737.67"/>
      <point x="544.7" y="717.81" type="curve" smooth="yes"/>
      <point x="544.7" y="692.98"/>
      <point x="619.2" y="673.11"/>
      <point x="683.77" y="688.01" type="curve" smooth="yes"/>
      <point x="758.27" y="702.91"/>
      <point x="758.27" y="767.48"/>
      <point x="683.77" y="792.31" type="curve"/>
      <point x="653.97" y="797.28"/>
      <point x="579.47" y="802.24"/>
    </contour>
    <contour>
      <point x="117.58" y="727.74" type="curve" smooth="yes"/>
      <point x="102.67" y="717.81"/>
      <point x="92.74" y="702.91"/>
      <point x="92.74" y="697.94" type="curve"/>
      <point x="87.77" y="678.07"/>
      <point x="127.51" y="648.27"/>
      <point x="187.11" y="628.41" type="curve" smooth="yes"/>
      <point x="241.74" y="613.51"/>
      <point x="261.61" y="608.54"/>
      <point x="346.04" y="598.61" type="curve" smooth="yes"/>
      <point x="400.67" y="593.64"/>
      <point x="649.01" y="593.64"/>
      <point x="698.67" y="598.61" type="curve"/>
      <point x="718.54" y="603.58"/>
      <point x="748.34" y="603.58"/>
      <point x="758.27" y="608.54" type="curve"/>
      <point x="793.04" y="613.5"/>
      <point x="887.4" y="638.34"/>
      <point x="907.27" y="653.24" type="curve"/>
      <point x="937.07" y="668.14"/>
      <point x="951.97" y="692.97"/>
      <point x="942.04" y="707.87" type="curve"/>
      <point x="927.14" y="737.67"/>
      <point x="892.37" y="757.54"/>
      <point x="902.31" y="727.74" type="curve" smooth="yes"/>
      <point x="912.24" y="688.01"/>
      <point x="798.01" y="648.27"/>
      <point x="649.01" y="638.34" type="curve" smooth="yes"/>
      <point x="594.38" y="633.37"/>
      <point x="430.48" y="633.37"/>
      <point x="400.68" y="638.34" type="curve"/>
      <point x="390.75" y="638.34"/>
      <point x="355.98" y="643.31"/>
      <point x="331.15" y="643.31" type="curve" smooth="yes"/>
      <point x="246.72" y="648.28"/>
      <point x="152.35" y="683.04"/>
      <point x="147.38" y="707.88" type="curve"/>
      <point x="147.38" y="712.85"/>
      <point x="147.38" y="727.75"/>
      <point x="152.35" y="732.71" type="curve"/>
      <point x="157.32" y="747.61"/>
      <point x="147.38" y="747.61"/>
    </contour>
    <contour>
      <point x="102.68" y="593.65" type="curve"/>
      <point x="102.68" y="573.77"/>
      <point x="112.61" y="543.97"/>
      <point x="117.58" y="519.14" type="curve"/>
      <point x="132.48" y="479.41" type="line"/>
      <point x="112.61" y="464.51" type="line"/>
      <point x="102.68" y="454.58"/>
      <point x="82.81" y="434.71"/>
      <point x="72.88" y="419.81" type="curve"/>
      <point x="57.98" y="390.01"/>
      <point x="53.01" y="380.08"/>
      <point x="53.01" y="335.38" type="curve" smooth="yes"/>
      <point x="53.01" y="275.78"/>
      <point x="62.94" y="250.95"/>
      <point x="112.61" y="216.18" type="curve" smooth="yes"/>
      <point x="137.44" y="196.31"/>
      <point x="147.38" y="196.31"/>
      <point x="187.11" y="196.31" type="curve" smooth="yes"/>
      <point x="246.71" y="196.31"/>
      <point x="266.57" y="211.21"/>
      <point x="221.88" y="216.18" type="curve" smooth="yes"/>
      <point x="187.11" y="221.15"/>
      <point x="137.45" y="265.85"/>
      <point x="122.55" y="305.58" type="curve" smooth="yes"/>
      <point x="107.65" y="340.35"/>
      <point x="112.62" y="394.98"/>
      <point x="127.52" y="419.81" type="curve" smooth="yes"/>
      <point x="132.49" y="429.74"/>
      <point x="142.42" y="439.68"/>
      <point x="142.42" y="439.68" type="curve"/>
      <point x="162.29" y="409.88" type="line" smooth="yes"/>
      <point x="172.22" y="394.98"/>
      <point x="202.02" y="350.28"/>
      <point x="226.86" y="310.55" type="curve"/>
      <point x="256.66" y="270.82"/>
      <point x="281.49" y="226.12"/>
      <point x="286.46" y="206.25" type="curve"/>
      <point x="316.26" y="126.78"/>
      <point x="370.89" y="101.95"/>
      <point x="519.89" y="101.95" type="curve" smooth="yes"/>
      <point x="668.89" y="101.95"/>
      <point x="728.49" y="131.75"/>
      <point x="758.29" y="211.22" type="curve"/>
      <point x="763.26" y="231.09"/>
      <point x="793.06" y="275.79"/>
      <point x="817.89" y="310.55" type="curve" smooth="yes"/>
      <point x="842.72" y="345.32"/>
      <point x="877.49" y="394.98"/>
      <point x="887.42" y="424.78" type="curve"/>
      <point x="912.25" y="479.41"/>
      <point x="947.02" y="588.68"/>
      <point x="947.02" y="613.51" type="curve" smooth="yes"/>
      <point x="947.02" y="628.41"/>
      <point x="947.02" y="628.41"/>
      <point x="932.12" y="613.51" type="curve" smooth="yes"/>
      <point x="907.29" y="588.68"/>
      <point x="822.85" y="563.84"/>
      <point x="713.58" y="553.91" type="curve" smooth="yes"/>
      <point x="624.18" y="543.98"/>
      <point x="341.08" y="548.94"/>
      <point x="271.55" y="563.84" type="curve"/>
      <point x="261.62" y="563.84"/>
      <point x="246.72" y="568.81"/>
      <point x="231.82" y="568.81" type="curve"/>
      <point x="197.05" y="573.78"/>
      <point x="122.55" y="608.54"/>
      <point x="107.65" y="618.48" type="curve"/>
      <point x="102.68" y="623.45"/>
      <point x="97.72" y="623.45"/>
    </contour>
  </outline>
</glyph>
<glyph name="i_seti_twig" format="2">
  <advance width="1000"/>
  <unicode hex="E61C"/>
  <note>
i_seti_twig
</note>
  <outline>
    <contour>
      <point x="739.28" y="899.3" type="curve" smooth="yes"/>
      <point x="739.29" y="899.31" type="line" smooth="yes"/>
      <point x="695.57" y="904.98"/>
      <point x="656.91" y="874.7"/>
      <point x="631.84" y="842.51" type="curve"/>
      <point x="554.95" y="757.69"/>
      <point x="524.26" y="642.71"/>
      <point x="503.88" y="532.57" type="curve" smooth="yes"/>
      <point x="495.95" y="484.41"/>
      <point x="489.4" y="436.5"/>
      <point x="484.18" y="388.09" type="curve" smooth="yes"/>
      <point x="481.82" y="346.39"/>
      <point x="475.99" y="306.53"/>
      <point x="476.1" y="265.57" type="curve"/>
      <point x="456.74" y="307.59"/>
      <point x="429.1" y="352.89"/>
      <point x="382.75" y="368.18" type="curve"/>
      <point x="365.75" y="379.8"/>
      <point x="291.93" y="379.34"/>
      <point x="346.72" y="368.61" type="curve"/>
      <point x="410.69" y="344.88"/>
      <point x="446.89" y="277.34"/>
      <point x="455.55" y="212.47" type="curve"/>
      <point x="462.25" y="187.54"/>
      <point x="462.3" y="157.97"/>
      <point x="462.24" y="129.12" type="curve" smooth="yes"/>
      <point x="463.62" y="108.98"/>
      <point x="462.74" y="57.81"/>
      <point x="453.56" y="105.25" type="curve"/>
      <point x="445.27" y="104.29"/>
      <point x="467.54" y="51.14"/>
      <point x="429.79" y="59.98" type="curve"/>
      <point x="416.77" y="57.07"/>
      <point x="405.51" y="83.31"/>
      <point x="417.21" y="58.33" type="curve"/>
      <point x="413.9" y="41.04"/>
      <point x="463.35" y="32.56"/>
      <point x="472.97" y="37.46" type="curve"/>
      <point x="504.41" y="29.22"/>
      <point x="560.85" y="47.56"/>
      <point x="577.87" y="35.15" type="curve"/>
      <point x="599.77" y="28.08"/>
      <point x="613.16" y="113.6"/>
      <point x="593.98" y="64.35" type="curve"/>
      <point x="566.84" y="44.25"/>
      <point x="576.67" y="102.27"/>
      <point x="573.81" y="119.75" type="curve" smooth="yes"/>
      <point x="569.09" y="169.42"/>
      <point x="575.07" y="220.51"/>
      <point x="577.69" y="269.27" type="curve"/>
      <point x="583.54" y="301.75"/>
      <point x="588.37" y="337.05"/>
      <point x="598.73" y="369.95" type="curve" smooth="yes"/>
      <point x="612.1" y="415.19"/>
      <point x="633.38" y="459.02"/>
      <point x="666.3" y="493.32" type="curve"/>
      <point x="630.7" y="479.63"/>
      <point x="609.16" y="444.43"/>
      <point x="590.5" y="412.8" type="curve" smooth="yes"/>
      <point x="569.67" y="375.02"/>
      <point x="555.95" y="332.53"/>
      <point x="543.13" y="292.49" type="curve"/>
      <point x="538.86" y="311.02"/>
      <point x="543.94" y="339.65"/>
      <point x="545.19" y="361.23" type="curve" smooth="yes"/>
      <point x="547.74" y="411.11"/>
      <point x="554.26" y="458.3"/>
      <point x="562.48" y="508.44" type="curve" smooth="yes"/>
      <point x="579.67" y="610.9"/>
      <point x="607.71" y="712.58"/>
      <point x="653.42" y="806.77" type="curve"/>
      <point x="672.25" y="839.55"/>
      <point x="688.88" y="882.94"/>
      <point x="730.86" y="890.44" type="curve"/>
      <point x="759.99" y="898.07"/>
      <point x="796.68" y="853.36"/>
      <point x="801.99" y="851.8" type="curve"/>
      <point x="787.37" y="874.2"/>
      <point x="765.28" y="893.55"/>
    </contour>
    <contour>
      <point x="241.97" y="424.86" type="curve" smooth="yes"/>
      <point x="241.96" y="424.88" type="line" smooth="yes"/>
      <point x="242.23" y="401.78"/>
      <point x="245.05" y="377.03"/>
      <point x="245.46" y="358.85" type="curve" smooth="yes"/>
      <point x="247.31" y="330.32"/>
      <point x="245.48" y="311.61"/>
      <point x="247.29" y="282.95" type="curve"/>
      <point x="246.46" y="250.47"/>
      <point x="250.21" y="222.34"/>
      <point x="248.74" y="190.27" type="curve" smooth="yes"/>
      <point x="247.23" y="170.92"/>
      <point x="257.67" y="109.3"/>
      <point x="238.93" y="154.74" type="curve"/>
      <point x="235.26" y="171.04"/>
      <point x="194.55" y="210.45"/>
      <point x="198.23" y="200.34" type="curve"/>
      <point x="226.13" y="165.77"/>
      <point x="235.31" y="121.76"/>
      <point x="239.22" y="77.99" type="curve"/>
      <point x="242.74" y="63.76"/>
      <point x="247.93" y="-7.53"/>
      <point x="234.55" y="42.54" type="curve"/>
      <point x="218.04" y="77.62"/>
      <point x="250.87" y="3.29"/>
      <point x="215.55" y="17.22" type="curve"/>
      <point x="200.92" y="37"/>
      <point x="211.88" y="17.7"/>
      <point x="198.13" y="11.13" type="curve"/>
      <point x="234.96" y="-6.32"/>
      <point x="275.92" y="0.72"/>
      <point x="316" y="5.68" type="curve"/>
      <point x="333.7" y="-1.24"/>
      <point x="333.59" y="72.28"/>
      <point x="325.22" y="30.56" type="curve"/>
      <point x="311.9" y="-3.6"/>
      <point x="287.96" y="34.55"/>
      <point x="298.94" y="57.95" type="curve"/>
      <point x="300.26" y="85.8"/>
      <point x="309.21" y="131.09"/>
      <point x="344.94" y="128.63" type="curve"/>
      <point x="347.24" y="140.43"/>
      <point x="294.62" y="125.82"/>
      <point x="290.23" y="116.36" type="curve"/>
      <point x="285.02" y="168.42"/>
      <point x="278.76" y="225.16"/>
      <point x="269.98" y="278.73" type="curve" smooth="yes"/>
      <point x="261.58" y="327.47"/>
      <point x="254.76" y="377.67"/>
    </contour>
  </outline>
</glyph>
<glyph name="i_custom_cpp" format="2">
  <advance width="1000"/>
  <unicode hex="E61D"/>
  <note>
i_custom_cpp
</note>
  <outline>
    <contour>
      <point x="504" y="900" type="curve" smooth="yes"/>
      <point x="503.99" y="899.99" type="line" smooth="yes"/>
      <point x="463.3" y="900.52"/>
      <point x="432.77" y="867.52"/>
      <point x="397.49" y="851.62" type="curve"/>
      <point x="307.26" y="799.31"/>
      <point x="215.82" y="748.65"/>
      <point x="126.42" y="695.17" type="curve"/>
      <point x="93.08" y="669.98"/>
      <point x="99.92" y="626.43"/>
      <point x="99.39" y="589.79" type="curve" smooth="yes"/>
      <point x="99.83" y="476.82"/>
      <point x="98.5" y="363.77"/>
      <point x="100.06" y="250.85" type="curve"/>
      <point x="106.23" y="206.4"/>
      <point x="150.52" y="189"/>
      <point x="184.63" y="169.4" type="curve" smooth="yes"/>
      <point x="282.29" y="114.31"/>
      <point x="379.34" y="57.59"/>
      <point x="477.28" y="3.33" type="curve"/>
      <point x="525.1" y="-11.91"/>
      <point x="563.82" y="29.05"/>
      <point x="603.54" y="48.08" type="curve"/>
      <point x="692.57" y="100.88"/>
      <point x="783.72" y="150.18"/>
      <point x="872.37" y="203.53" type="curve"/>
      <point x="907.47" y="230.22"/>
      <point x="899.97" y="276.02"/>
      <point x="900.58" y="314.47" type="curve" smooth="yes"/>
      <point x="900.14" y="425.84"/>
      <point x="901.47" y="537.28"/>
      <point x="899.91" y="648.6" type="curve"/>
      <point x="890.43" y="703.51"/>
      <point x="829.22" y="717.6"/>
      <point x="789.37" y="744.93" type="curve"/>
      <point x="700.63" y="794.83"/>
      <point x="613.55" y="848.14"/>
      <point x="524.02" y="896.32" type="curve"/>
      <point x="517.54" y="898.41"/>
      <point x="510.78" y="899.58"/>
    </contour>
    <contour>
      <point x="514.68" y="716.37" type="curve" smooth="yes"/>
      <point x="602.64" y="711.7"/>
      <point x="687.01" y="659.78"/>
      <point x="730.98" y="583.53" type="curve"/>
      <point x="692.56" y="564.8"/>
      <point x="648.16" y="524.71"/>
      <point x="612.36" y="522.36" type="curve"/>
      <point x="574.86" y="580.44"/>
      <point x="491.19" y="601.84"/>
      <point x="432.52" y="563.42" type="curve"/>
      <point x="365.9" y="527.2"/>
      <point x="344.31" y="430.17"/>
      <point x="392.9" y="370.77" type="curve"/>
      <point x="438.77" y="305.52"/>
      <point x="544.79" y="298.65"/>
      <point x="597.35" y="359.45" type="curve"/>
      <point x="621.96" y="410.11"/>
      <point x="670.82" y="338.28"/>
      <point x="707.78" y="329.8" type="curve"/>
      <point x="757.56" y="310.14"/>
      <point x="684.89" y="260.94"/>
      <point x="662.87" y="239.02" type="curve"/>
      <point x="559.5" y="156.04"/>
      <point x="394.01" y="166.99"/>
      <point x="305.37" y="266.66" type="curve" smooth="yes"/>
      <point x="216.94" y="358.45"/>
      <point x="207.8" y="514.74"/>
      <point x="288.87" y="614" type="curve" smooth="yes"/>
      <point x="341.86" y="682.14"/>
      <point x="428.76" y="720.44"/>
    </contour>
    <contour>
      <point x="653.54" y="472.68" type="line"/>
      <point x="653.54" y="516.76" type="line"/>
      <point x="697.62" y="516.76" type="line"/>
      <point x="697.62" y="472.68" type="line"/>
      <point x="743.02" y="472.68" type="line"/>
      <point x="743.02" y="427.28" type="line"/>
      <point x="697.62" y="427.28" type="line"/>
      <point x="697.62" y="383.23" type="line"/>
      <point x="653.54" y="383.23" type="line"/>
      <point x="653.54" y="427.28" type="line"/>
      <point x="608.14" y="427.28" type="line"/>
      <point x="608.14" y="472.68" type="line"/>
    </contour>
    <contour>
      <point x="804.43" y="472.68" type="line"/>
      <point x="804.43" y="516.76" type="line"/>
      <point x="848.51" y="516.76" type="line"/>
      <point x="848.51" y="472.68" type="line"/>
      <point x="892.56" y="472.68" type="line"/>
      <point x="892.56" y="427.28" type="line"/>
      <point x="848.51" y="427.28" type="line"/>
      <point x="848.51" y="383.23" type="line"/>
      <point x="804.43" y="383.23" type="line"/>
      <point x="804.43" y="427.28" type="line"/>
      <point x="760.38" y="427.28" type="line"/>
      <point x="760.38" y="472.68" type="line"/>
    </contour>
  </outline>
</glyph>
<glyph name="i_custom_c" format="2">
  <advance width="1000"/>
  <unicode hex="E61E"/>
  <note>
i_custom_c
</note>
  <outline>
    <contour>
      <point x="503.99" y="900.01" type="curve" smooth="yes"/>
      <point x="503.99" y="899.99" type="line" smooth="yes"/>
      <point x="463.3" y="900.52"/>
      <point x="432.77" y="867.52"/>
      <point x="397.49" y="851.62" type="curve"/>
      <point x="307.26" y="799.31"/>
      <point x="215.82" y="748.65"/>
      <point x="126.43" y="695.17" type="curve"/>
      <point x="93.13" y="669.96"/>
      <point x="99.9" y="626.43"/>
      <point x="99.39" y="589.8" type="curve" smooth="yes"/>
      <point x="99.83" y="476.83"/>
      <point x="98.5" y="363.78"/>
      <point x="100.06" y="250.86" type="curve"/>
      <point x="106.37" y="206.52"/>
      <point x="150.52" y="188.94"/>
      <point x="184.67" y="169.41" type="curve" smooth="yes"/>
      <point x="282.33" y="114.33"/>
      <point x="379.36" y="57.59"/>
      <point x="477.3" y="3.34" type="curve"/>
      <point x="525.12" y="-11.91"/>
      <point x="563.84" y="29.07"/>
      <point x="603.57" y="48.09" type="curve"/>
      <point x="692.6" y="100.88"/>
      <point x="783.73" y="150.2"/>
      <point x="872.37" y="203.54" type="curve"/>
      <point x="907.47" y="230.23"/>
      <point x="899.97" y="276.03"/>
      <point x="900.58" y="314.48" type="curve" smooth="yes"/>
      <point x="900.14" y="425.85"/>
      <point x="901.46" y="537.29"/>
      <point x="899.91" y="648.61" type="curve"/>
      <point x="890.43" y="703.52"/>
      <point x="829.22" y="717.61"/>
      <point x="789.38" y="744.94" type="curve"/>
      <point x="700.64" y="794.84"/>
      <point x="613.56" y="848.15"/>
      <point x="524.02" y="896.33" type="curve"/>
      <point x="517.54" y="898.42"/>
      <point x="510.78" y="899.59"/>
    </contour>
    <contour>
      <point x="514.67" y="716.38" type="curve" smooth="yes"/>
      <point x="602.64" y="711.73"/>
      <point x="687" y="659.79"/>
      <point x="730.97" y="583.54" type="curve"/>
      <point x="692.55" y="564.81"/>
      <point x="648.15" y="524.72"/>
      <point x="612.35" y="522.37" type="curve"/>
      <point x="574.88" y="580.48"/>
      <point x="491.17" y="601.85"/>
      <point x="432.52" y="563.43" type="curve"/>
      <point x="365.92" y="527.18"/>
      <point x="344.29" y="430.2"/>
      <point x="392.91" y="370.78" type="curve"/>
      <point x="438.76" y="305.51"/>
      <point x="544.81" y="298.67"/>
      <point x="597.37" y="359.46" type="curve"/>
      <point x="621.97" y="410.11"/>
      <point x="670.82" y="338.3"/>
      <point x="707.77" y="329.81" type="curve"/>
      <point x="757.53" y="310.16"/>
      <point x="684.9" y="260.95"/>
      <point x="662.89" y="239.03" type="curve"/>
      <point x="559.51" y="156.08"/>
      <point x="394.01" y="166.97"/>
      <point x="305.37" y="266.67" type="curve" smooth="yes"/>
      <point x="218.61" y="356.92"/>
      <point x="207.87" y="509.32"/>
      <point x="284.86" y="608.84" type="curve" smooth="yes"/>
      <point x="337.55" y="680.1"/>
      <point x="426.46" y="720.58"/>
    </contour>
  </outline>
</glyph>
<glyph name="i_seti_haskell" format="2">
  <advance width="1000"/>
  <unicode hex="E61F"/>
  <note>
i_seti_haskell
</note>
  <outline>
    <contour>
      <point x="419.5" y="767.36" type="curve"/>
      <point x="263.05" y="767.35" type="line"/>
      <point x="263.05" y="762.9" type="line"/>
      <point x="330.1" y="660.09"/>
      <point x="401.69" y="557.26"/>
      <point x="468.74" y="454.45" type="curve"/>
      <point x="468.74" y="450" type="line"/>
      <point x="401.69" y="347.19"/>
      <point x="330.1" y="244.36"/>
      <point x="263.05" y="141.55" type="curve"/>
      <point x="263.05" y="137.1" type="line"/>
      <point x="419.5" y="137.1" type="line"/>
      <point x="424.04" y="141.55" type="line"/>
      <point x="464.27" y="204.13"/>
      <point x="508.92" y="266.76"/>
      <point x="549.15" y="329.34" type="curve"/>
      <point x="553.62" y="333.81"/>
      <point x="549.13" y="333.81"/>
      <point x="553.6" y="329.34" type="curve"/>
      <point x="593.83" y="266.76"/>
      <point x="638.57" y="204.13"/>
      <point x="678.8" y="141.55" type="curve"/>
      <point x="683.25" y="137.1" type="line"/>
      <point x="839.7" y="137.1" type="line"/>
      <point x="754.77" y="271.2"/>
      <point x="665.35" y="400.85"/>
      <point x="575.95" y="534.95" type="curve" smooth="yes"/>
      <point x="522.31" y="610.94"/>
      <point x="473.14" y="691.36"/>
    </contour>
    <contour>
      <point x="209.45" y="762.91" type="line"/>
      <point x="53" y="762.91" type="line"/>
      <point x="124.52" y="660.1"/>
      <point x="191.55" y="557.29"/>
      <point x="258.6" y="450.01" type="curve"/>
      <point x="258.6" y="445.56" type="line"/>
      <point x="209.43" y="369.57"/>
      <point x="160.31" y="298.05"/>
      <point x="111.14" y="222.06" type="curve"/>
      <point x="88.79" y="195.24"/>
      <point x="70.88" y="163.93"/>
      <point x="53" y="137.11" type="curve"/>
      <point x="53" y="132.66" type="line"/>
      <point x="209.45" y="132.66" type="line"/>
      <point x="280.97" y="239.94"/>
      <point x="352.45" y="342.75"/>
      <point x="419.5" y="445.56" type="curve"/>
      <point x="419.5" y="450.01" type="line"/>
      <point x="388.21" y="503.65"/>
      <point x="352.5" y="552.82"/>
      <point x="316.74" y="606.46" type="curve" smooth="yes"/>
      <point x="280.98" y="655.63"/>
      <point x="249.66" y="709.29"/>
      <point x="213.9" y="758.46" type="curve"/>
    </contour>
    <contour>
      <point x="947" y="584.12" type="line"/>
      <point x="598.3" y="584.11" type="line"/>
      <point x="598.3" y="579.66" type="line"/>
      <point x="620.65" y="543.9"/>
      <point x="643" y="512.57"/>
      <point x="665.35" y="476.82" type="curve"/>
      <point x="947" y="476.82" type="line"/>
    </contour>
    <contour>
      <point x="947" y="423.22" type="line"/>
      <point x="701.15" y="423.22" type="line"/>
      <point x="701.15" y="418.77" type="line"/>
      <point x="723.5" y="383.01"/>
      <point x="745.85" y="351.68"/>
      <point x="768.2" y="315.92" type="curve"/>
      <point x="947" y="315.92" type="line"/>
    </contour>
  </outline>
</glyph>
<glyph name="i_seti_lua" format="2">
  <advance width="1000"/>
  <unicode hex="E620"/>
  <note>
i_seti_lua
</note>
  <outline>
    <contour>
      <point x="441.89" y="3" type="curve" smooth="yes"/>
      <point x="656.45" y="3"/>
      <point x="830.78" y="177.33"/>
      <point x="830.78" y="391.89" type="curve" smooth="yes"/>
      <point x="830.78" y="606.45"/>
      <point x="660.92" y="776.31"/>
      <point x="450.83" y="780.78" type="curve" smooth="yes"/>
      <point x="227.33" y="785.25"/>
      <point x="53" y="606.45"/>
      <point x="53" y="391.89" type="curve" smooth="yes"/>
      <point x="53" y="177.33"/>
      <point x="227.33" y="3"/>
    </contour>
    <contour>
      <point x="602.81" y="669.03" type="curve" smooth="yes"/>
      <point x="669.86" y="669.03"/>
      <point x="719.03" y="615.39"/>
      <point x="719.03" y="552.81" type="curve" smooth="yes"/>
      <point x="719.03" y="485.76"/>
      <point x="665.39" y="436.59"/>
      <point x="602.81" y="436.59" type="curve" smooth="yes"/>
      <point x="535.76" y="436.59"/>
      <point x="486.59" y="490.23"/>
      <point x="486.59" y="552.81" type="curve" smooth="yes"/>
      <point x="486.59" y="615.39"/>
      <point x="540.23" y="669.03"/>
    </contour>
    <contour>
      <point x="830.78" y="669.03" type="curve" smooth="yes"/>
      <point x="893.36" y="669.03"/>
      <point x="947" y="718.2"/>
      <point x="947" y="780.78" type="curve" smooth="yes"/>
      <point x="947" y="843.36"/>
      <point x="897.83" y="897"/>
      <point x="835.25" y="897" type="curve" smooth="yes"/>
      <point x="768.2" y="897"/>
      <point x="719.03" y="847.83"/>
      <point x="719.03" y="785.25" type="curve"/>
      <point x="714.56" y="718.2"/>
      <point x="768.2" y="669.03"/>
    </contour>
  </outline>
</glyph>
<glyph name="i_indent_line" format="2">
  <advance width="1000"/>
  <unicode hex="E621"/>
  <note>
i_indent_line
</note>
  <outline>
    <contour>
      <point x="469.32" y="30.26" type="curve" smooth="yes"/>
      <point x="468.54" y="-0.11"/>
      <point x="509.46" y="-11.27"/>
      <point x="525.52" y="13.87" type="curve" smooth="yes"/>
      <point x="554.67" y="57"/>
      <point x="468.59" y="81.25"/>
    </contour>
    <contour>
      <point x="469.32" y="270.83" type="curve" smooth="yes"/>
      <point x="467.67" y="240.08"/>
      <point x="509.55" y="229.49"/>
      <point x="525.52" y="253.88" type="curve" smooth="yes"/>
      <point x="553.99" y="296.66"/>
      <point x="469.78" y="321.89"/>
    </contour>
    <contour>
      <point x="478.33" y="129.37" type="curve"/>
      <point x="497.21" y="105.7"/>
      <point x="537.27" y="127.63"/>
      <point x="530.03" y="156.17" type="curve" smooth="yes"/>
      <point x="520.6" y="207.04"/>
      <point x="441.5" y="165.4"/>
    </contour>
    <contour>
      <point x="469.32" y="510.5" type="curve" smooth="yes"/>
      <point x="468.4" y="480.61"/>
      <point x="510.26" y="468.09"/>
      <point x="525.52" y="493.94" type="curve" smooth="yes"/>
      <point x="554.33" y="536.73"/>
      <point x="468.55" y="561.61"/>
    </contour>
    <contour>
      <point x="469.32" y="390.66" type="curve" smooth="yes"/>
      <point x="467.67" y="361.23"/>
      <point x="509.89" y="348.56"/>
      <point x="525.52" y="372.92" type="curve" smooth="yes"/>
      <point x="554.1" y="416.37"/>
      <point x="470.65" y="442.92"/>
    </contour>
    <contour>
      <point x="469.32" y="751.07" type="curve" smooth="yes"/>
      <point x="467.59" y="720.52"/>
      <point x="509.83" y="709.21"/>
      <point x="525.52" y="734.12" type="curve" smooth="yes"/>
      <point x="553.99" y="776.9"/>
      <point x="469.78" y="802.13"/>
    </contour>
    <contour>
      <point x="478.33" y="608.71" type="curve" smooth="yes"/>
      <point x="498.02" y="586.61"/>
      <point x="537.1" y="607.88"/>
      <point x="530.03" y="636.42" type="curve" smooth="yes"/>
      <point x="520.06" y="687.61"/>
      <point x="441.37" y="645.19"/>
    </contour>
    <contour>
      <point x="478.33" y="849.28" type="curve" smooth="yes"/>
      <point x="498.21" y="827.43"/>
      <point x="537.65" y="847.63"/>
      <point x="530.03" y="876.93" type="curve" smooth="yes"/>
      <point x="519.08" y="926.73"/>
      <point x="441.41" y="885.74"/>
    </contour>
  </outline>
</glyph>
<glyph name="i_seti_karma" format="2">
  <advance width="1000"/>
  <unicode hex="E622"/>
  <note>
i_seti_karma
</note>
  <outline>
    <contour>
      <point x="386.21" y="894.82" type="line"/>
      <point x="137.93" y="894.83" type="line"/>
      <point x="137.93" y="646.55" type="line"/>
      <point x="308.62" y="0" type="line"/>
      <point x="386.21" y="0" type="line"/>
      <point x="386.21" y="258.62" type="line"/>
      <point x="427.59" y="258.62" type="line"/>
      <point x="603.45" y="0" type="line"/>
      <point x="862.07" y="0" type="line"/>
      <point x="556.9" y="460.35" type="line"/>
      <point x="556.9" y="486.21" type="line"/>
      <point x="841.38" y="900" type="line"/>
      <point x="567.24" y="900" type="line"/>
      <point x="427.59" y="672.41" type="line"/>
      <point x="386.21" y="672.41" type="line"/>
    </contour>
  </outline>
</glyph>
<glyph name="i_seti_favicon" format="2">
  <advance width="1000"/>
  <unicode hex="E623"/>
  <note>
i_seti_favicon
</note>
  <outline>
    <contour>
      <point x="638.57" y="593.04" type="line"/>
      <point x="500" y="874.65" type="line"/>
      <point x="361.43" y="593.04" type="line"/>
      <point x="53" y="548.34" type="line"/>
      <point x="276.5" y="333.78" type="line"/>
      <point x="222.86" y="25.35" type="line"/>
      <point x="500" y="168.39" type="line"/>
      <point x="777.14" y="25.35" type="line"/>
      <point x="723.5" y="333.78" type="line"/>
      <point x="947" y="548.34" type="line"/>
    </contour>
  </outline>
</glyph>
<glyph name="i_seti_julia" format="2">
  <advance width="1000"/>
  <unicode hex="E624"/>
  <note>
i_seti_julia
</note>
  <outline>
    <contour>
      <point x="500" y="876.19" type="curve" smooth="yes"/>
      <point x="388.14" y="876.19"/>
      <point x="297.31" y="785.4"/>
      <point x="297.26" y="673.55" type="curve" smooth="yes"/>
      <point x="297.26" y="561.67"/>
      <point x="388.12" y="470.81"/>
      <point x="500" y="470.81" type="curve" smooth="yes"/>
      <point x="611.88" y="470.81"/>
      <point x="702.74" y="561.67"/>
      <point x="702.74" y="673.55" type="curve" smooth="yes"/>
      <point x="702.7" y="785.4"/>
      <point x="611.86" y="876.19"/>
    </contour>
    <contour>
      <point x="255.74" y="429.19" type="curve" smooth="yes"/>
      <point x="143.86" y="429.19"/>
      <point x="53" y="338.33"/>
      <point x="53" y="226.45" type="curve" smooth="yes"/>
      <point x="53.04" y="114.6"/>
      <point x="143.88" y="23.81"/>
      <point x="255.74" y="23.81" type="curve" smooth="yes"/>
      <point x="367.56" y="23.85"/>
      <point x="458.33" y="114.63"/>
      <point x="458.38" y="226.45" type="curve" smooth="yes"/>
      <point x="458.38" y="338.31"/>
      <point x="367.59" y="429.15"/>
    </contour>
    <contour>
      <point x="744.26" y="429.19" type="curve" smooth="yes"/>
      <point x="632.42" y="429.15"/>
      <point x="541.62" y="338.31"/>
      <point x="541.62" y="226.45" type="curve" smooth="yes"/>
      <point x="541.66" y="114.63"/>
      <point x="632.44" y="23.86"/>
      <point x="744.26" y="23.81" type="curve" smooth="yes"/>
      <point x="856.12" y="23.81"/>
      <point x="946.95" y="114.6"/>
      <point x="947" y="226.45" type="curve" smooth="yes"/>
      <point x="947" y="338.33"/>
      <point x="856.14" y="429.19"/>
    </contour>
  </outline>
</glyph>
<glyph name="i_seti_react" format="2">
  <advance width="1000"/>
  <unicode hex="E625"/>
  <note>
i_seti_react
</note>
  <outline>
    <contour>
      <point x="682.52" y="848.89" type="curve" smooth="yes"/>
      <point x="682.51" y="848.88" type="line" smooth="yes"/>
      <point x="610.53" y="845.37"/>
      <point x="550.9" y="796.83"/>
      <point x="500.38" y="749.8" type="curve"/>
      <point x="448.2" y="797.86"/>
      <point x="385.74" y="847.47"/>
      <point x="311.5" y="847.85" type="curve" smooth="yes"/>
      <point x="259.25" y="847.48"/>
      <point x="231.15" y="793.15"/>
      <point x="227.92" y="747.16" type="curve"/>
      <point x="214.8" y="698.82"/>
      <point x="244.67" y="633.65"/>
      <point x="232.62" y="597.32" type="curve"/>
      <point x="166.7" y="575.9"/>
      <point x="91.61" y="546.55"/>
      <point x="59.14" y="480.48" type="curve" smooth="yes"/>
      <point x="36.64" y="428.6"/>
      <point x="80.11" y="377.93"/>
      <point x="121.37" y="351.46" type="curve"/>
      <point x="153.2" y="321.39"/>
      <point x="217.22" y="315.71"/>
      <point x="238.68" y="289.77" type="curve"/>
      <point x="224.52" y="222.17"/>
      <point x="212.52" y="142.86"/>
      <point x="253.19" y="81.87" type="curve" smooth="yes"/>
      <point x="286.71" y="36.38"/>
      <point x="352.3" y="48.89"/>
      <point x="395.65" y="71.51" type="curve"/>
      <point x="437.57" y="84.22"/>
      <point x="474.41" y="136.96"/>
      <point x="507.55" y="142.69" type="curve"/>
      <point x="558.78" y="96.66"/>
      <point x="621.3" y="46.56"/>
      <point x="694.3" y="51.45" type="curve" smooth="yes"/>
      <point x="750.51" y="57.99"/>
      <point x="772.22" y="121.23"/>
      <point x="774.39" y="170.14" type="curve"/>
      <point x="784.82" y="212.57"/>
      <point x="756.28" y="271.53"/>
      <point x="769.6" y="302.35" type="curve"/>
      <point x="834.75" y="324.42"/>
      <point x="907.22" y="354.54"/>
      <point x="940.17" y="419.09" type="curve" smooth="yes"/>
      <point x="963.81" y="469.62"/>
      <point x="921.81" y="520.18"/>
      <point x="880.77" y="545.57" type="curve"/>
      <point x="846.5" y="573.67"/>
      <point x="790.28" y="583.19"/>
      <point x="760.44" y="604.18" type="curve"/>
      <point x="775.09" y="673.68"/>
      <point x="786.61" y="754"/>
      <point x="746.33" y="817.1" type="curve" smooth="yes"/>
      <point x="731.96" y="837.68"/>
      <point x="707.47" y="849.35"/>
    </contour>
    <contour>
      <point x="680.96" y="810.64" type="curve" smooth="yes"/>
      <point x="723.96" y="811.54"/>
      <point x="733.2" y="759.03"/>
      <point x="734.96" y="725.53" type="curve" smooth="yes"/>
      <point x="733.91" y="689.06"/>
      <point x="737.46" y="631.32"/>
      <point x="715.29" y="610.44" type="curve"/>
      <point x="672.37" y="629.04"/>
      <point x="608.17" y="606.74"/>
      <point x="584.16" y="653.52" type="curve" smooth="yes"/>
      <point x="566.49" y="687.94"/>
      <point x="498.28" y="722.53"/>
      <point x="557.4" y="749.61" type="curve"/>
      <point x="593.24" y="777.99"/>
      <point x="633.87" y="807.36"/>
    </contour>
    <contour>
      <point x="316.88" y="809.8" type="curve" smooth="yes"/>
      <point x="316.89" y="809.79" type="line" smooth="yes"/>
      <point x="378.72" y="804.82"/>
      <point x="429.51" y="762.55"/>
      <point x="473.62" y="722.44" type="curve"/>
      <point x="436.02" y="694.87"/>
      <point x="421.78" y="630.6"/>
      <point x="374.01" y="625.41" type="curve"/>
      <point x="336.04" y="630.29"/>
      <point x="266.78" y="581.95"/>
      <point x="270.52" y="644.91" type="curve"/>
      <point x="263.38" y="694.63"/>
      <point x="255.49" y="751.75"/>
      <point x="284.73" y="796.04" type="curve" smooth="yes"/>
      <point x="292.35" y="805.8"/>
      <point x="304.87" y="809.9"/>
    </contour>
    <contour>
      <point x="500.38" y="695.06" type="curve"/>
      <point x="514.09" y="676.57"/>
      <point x="552.6" y="642.89"/>
      <point x="546.4" y="631.62" type="curve"/>
      <point x="517.33" y="636.08"/>
      <point x="465.25" y="626.84"/>
      <point x="450.59" y="635.64" type="curve"/>
      <point x="466.3" y="656.17"/>
      <point x="482.85" y="676.07"/>
    </contour>
    <contour>
      <point x="499.95" y="594.26" type="curve"/>
      <point x="528.94" y="588.66"/>
      <point x="571.89" y="605.21"/>
      <point x="589.96" y="578.46" type="curve" smooth="yes"/>
      <point x="616.95" y="537.24"/>
      <point x="641.27" y="494.3"/>
      <point x="663.13" y="450.16" type="curve"/>
      <point x="639.33" y="401.01"/>
      <point x="611.96" y="353.61"/>
      <point x="581.82" y="308.09" type="curve"/>
      <point x="527.64" y="304.24"/>
      <point x="473.2" y="304.34"/>
      <point x="419" y="307.77" type="curve"/>
      <point x="388.21" y="352.91"/>
      <point x="360.81" y="400.36"/>
      <point x="337.16" y="449.61" type="curve"/>
      <point x="360.7" y="498.77"/>
      <point x="387.89" y="546.12"/>
      <point x="418.54" y="591.19" type="curve"/>
      <point x="445.62" y="593.24"/>
      <point x="472.79" y="594.26"/>
    </contour>
    <contour>
      <point x="369.5" y="586.29" type="curve"/>
      <point x="349.82" y="561.55"/>
      <point x="330.68" y="509.96"/>
      <point x="314.79" y="499.64" type="curve"/>
      <point x="312.18" y="523.69"/>
      <point x="268.15" y="574.23"/>
      <point x="307.89" y="576.42" type="curve"/>
      <point x="328.3" y="580.45"/>
      <point x="348.86" y="583.69"/>
    </contour>
    <contour>
      <point x="630.45" y="586.22" type="curve"/>
      <point x="653.07" y="576.73"/>
      <point x="715.76" y="588.14"/>
      <point x="707.44" y="557.87" type="curve"/>
      <point x="697.11" y="537.86"/>
      <point x="686.84" y="467.91"/>
      <point x="670.73" y="518.14" type="curve"/>
      <point x="658.01" y="541.24"/>
      <point x="644.61" y="563.97"/>
    </contour>
    <contour>
      <point x="251.37" y="562.91" type="curve"/>
      <point x="256.39" y="516.4"/>
      <point x="305.05" y="471.75"/>
      <point x="285.18" y="427.61" type="curve"/>
      <point x="265.79" y="402.65"/>
      <point x="267.63" y="340.81"/>
      <point x="239.75" y="338.01" type="curve"/>
      <point x="184.38" y="357.53"/>
      <point x="120.14" y="382.08"/>
      <point x="93.21" y="438.41" type="curve"/>
      <point x="83.83" y="480.69"/>
      <point x="129.47" y="508.01"/>
      <point x="160.35" y="526.63" type="curve" smooth="yes"/>
      <point x="189.02" y="542.48"/>
      <point x="219.92" y="553.95"/>
    </contour>
    <contour>
      <point x="749" y="562.35" type="curve"/>
      <point x="805.86" y="544.12"/>
      <point x="869.42" y="522.07"/>
      <point x="903.57" y="469.72" type="curve"/>
      <point x="922.76" y="427.77"/>
      <point x="874.88" y="395.26"/>
      <point x="844.15" y="376.22" type="curve"/>
      <point x="815.89" y="363.56"/>
      <point x="772.54" y="332.91"/>
      <point x="748.59" y="343.45" type="curve"/>
      <point x="742.82" y="390.2"/>
      <point x="690.03" y="434.42"/>
      <point x="718.26" y="479.09" type="curve"/>
      <point x="729.86" y="506.32"/>
      <point x="740.28" y="534.06"/>
    </contour>
    <contour>
      <point x="499.95" y="530.64" type="curve"/>
      <point x="441.63" y="533.24"/>
      <point x="399.77" y="462.28"/>
      <point x="429.75" y="412.34" type="curve"/>
      <point x="454.87" y="360.33"/>
      <point x="536.14" y="356.36"/>
      <point x="566.15" y="405.73" type="curve"/>
      <point x="602.46" y="456.42"/>
      <point x="562.53" y="532.43"/>
    </contour>
    <contour>
      <point x="683.74" y="405.91" type="curve"/>
      <point x="687.21" y="381.25"/>
      <point x="730.15" y="331.86"/>
      <point x="698.96" y="323.77" type="curve"/>
      <point x="676.33" y="322.82"/>
      <point x="608.81" y="295.89"/>
      <point x="644.31" y="335.41" type="curve"/>
      <point x="658.19" y="358.49"/>
      <point x="671.38" y="381.98"/>
    </contour>
    <contour>
      <point x="316.93" y="404.53" type="curve"/>
      <point x="328.52" y="374.7"/>
      <point x="364.14" y="331.85"/>
      <point x="364.87" y="312.66" type="curve"/>
      <point x="342.4" y="322.13"/>
      <point x="275.72" y="308.41"/>
      <point x="294.21" y="344.69" type="curve"/>
      <point x="301.04" y="364.91"/>
      <point x="308.67" y="384.86"/>
    </contour>
    <contour>
      <point x="724.24" y="290.07" type="curve"/>
      <point x="737.09" y="230.9"/>
      <point x="748.39" y="163.27"/>
      <point x="717.79" y="107.66" type="curve"/>
      <point x="691.14" y="71.33"/>
      <point x="640.58" y="95.82"/>
      <point x="609.4" y="112.96" type="curve"/>
      <point x="583.71" y="131.5"/>
      <point x="536.58" y="154.66"/>
      <point x="532.94" y="181.08" type="curve"/>
      <point x="570.34" y="209.57"/>
      <point x="582.03" y="277.42"/>
      <point x="635.1" y="274.68" type="curve"/>
      <point x="665.05" y="278.3"/>
      <point x="694.85" y="283.26"/>
    </contour>
    <contour>
      <point x="277.62" y="288.35" type="curve"/>
      <point x="320.58" y="269.72"/>
      <point x="383.76" y="290.7"/>
      <point x="412.14" y="251.51" type="curve"/>
      <point x="423.91" y="222.37"/>
      <point x="478.11" y="193.18"/>
      <point x="466.43" y="167.72" type="curve"/>
      <point x="421.98" y="129.41"/>
      <point x="368.81" y="85.79"/>
      <point x="306.55" y="90.48" type="curve"/>
      <point x="265.24" y="103.57"/>
      <point x="264.62" y="156.87"/>
      <point x="263.93" y="192.92" type="curve" smooth="yes"/>
      <point x="264.56" y="225.14"/>
      <point x="269.9" y="257.12"/>
    </contour>
    <contour>
      <point x="553.92" y="268.07" type="curve"/>
      <point x="534.57" y="252.89"/>
      <point x="513.57" y="191.35"/>
      <point x="491.26" y="214.52" type="curve"/>
      <point x="479.56" y="233.3"/>
      <point x="422.6" y="277.81"/>
      <point x="473.56" y="267.12" type="curve"/>
      <point x="500.35" y="266.6"/>
      <point x="527.15" y="266.86"/>
    </contour>
  </outline>
</glyph>
<glyph name="i_custom_go" format="2">
  <advance width="1000"/>
  <unicode hex="E626"/>
  <note>
i_custom_go
</note>
  <outline>
    <contour>
      <point x="500.95" y="899.99" type="curve" smooth="yes"/>
      <point x="500.93" y="900" type="line" smooth="yes"/>
      <point x="428.65" y="896.1"/>
      <point x="352.32" y="887.81"/>
      <point x="291.36" y="844.86" type="curve"/>
      <point x="255.06" y="851.71"/>
      <point x="195.59" y="858.15"/>
      <point x="181.29" y="809.78" type="curve"/>
      <point x="164.35" y="769.03"/>
      <point x="201.31" y="739.06"/>
      <point x="224.24" y="718.93" type="curve"/>
      <point x="221.59" y="681.95"/>
      <point x="212.53" y="645.41"/>
      <point x="216.94" y="608.05" type="curve"/>
      <point x="214.95" y="557.43"/>
      <point x="225.92" y="507.91"/>
      <point x="230.45" y="457.78" type="curve"/>
      <point x="201.86" y="455.41"/>
      <point x="147.3" y="432.57"/>
      <point x="179.71" y="399.33" type="curve"/>
      <point x="192.77" y="368.67"/>
      <point x="230.84" y="428.99"/>
      <point x="226.03" y="394.75" type="curve"/>
      <point x="226.52" y="319.74"/>
      <point x="225.04" y="244.64"/>
      <point x="226.79" y="169.69" type="curve"/>
      <point x="233.06" y="132.36"/>
      <point x="255.95" y="99.34"/>
      <point x="284.48" y="75.12" type="curve"/>
      <point x="264.29" y="61.2"/>
      <point x="228.79" y="34.1"/>
      <point x="254.73" y="10.05" type="curve" smooth="yes"/>
      <point x="285.23" y="-20.24"/>
      <point x="311.91" y="26.66"/>
      <point x="339.62" y="36.52" type="curve"/>
      <point x="394.07" y="17.78"/>
      <point x="451.21" y="5.3"/>
      <point x="509.11" y="11.02" type="curve" smooth="yes"/>
      <point x="563.23" y="14.1"/>
      <point x="617.56" y="23.93"/>
      <point x="667.14" y="46.46" type="curve"/>
      <point x="692.6" y="30.11"/>
      <point x="723.75" y="-22.25"/>
      <point x="750.14" y="22.75" type="curve"/>
      <point x="761.15" y="49.81"/>
      <point x="728" y="69.49"/>
      <point x="717.01" y="84.64" type="curve"/>
      <point x="746.55" y="118.89"/>
      <point x="763.44" y="161.34"/>
      <point x="772.22" y="205.42" type="curve" smooth="yes"/>
      <point x="785.12" y="274.42"/>
      <point x="778.58" y="345.15"/>
      <point x="776.34" y="414.78" type="curve"/>
      <point x="804.18" y="380.17"/>
      <point x="855.68" y="428.98"/>
      <point x="815.49" y="453.24" type="curve"/>
      <point x="789.02" y="460.42"/>
      <point x="764.85" y="465.71"/>
      <point x="773.03" y="498.58" type="curve"/>
      <point x="770.04" y="579.17"/>
      <point x="775.74" y="661.4"/>
      <point x="755.38" y="740.09" type="curve"/>
      <point x="790.13" y="751.74"/>
      <point x="812.44" y="793.22"/>
      <point x="794.93" y="827.3" type="curve" smooth="yes"/>
      <point x="777.51" y="865.98"/>
      <point x="726.83" y="871.76"/>
      <point x="691.95" y="854.95" type="curve"/>
      <point x="671.21" y="859.92"/>
      <point x="650.77" y="879.49"/>
      <point x="627.62" y="884.28" type="curve"/>
      <point x="587.39" y="899.72"/>
      <point x="543.33" y="898.19"/>
    </contour>
    <contour>
      <point x="512.43" y="890" type="curve" smooth="yes"/>
      <point x="590.85" y="892.74"/>
      <point x="682.63" y="870.18"/>
      <point x="722.08" y="795.44" type="curve" smooth="yes"/>
      <point x="771.87" y="709.69"/>
      <point x="759.6" y="607.36"/>
      <point x="764.59" y="512.45" type="curve"/>
      <point x="764.43" y="430.55"/>
      <point x="771.27" y="348.87"/>
      <point x="770.83" y="267" type="curve"/>
      <point x="765.11" y="200.47"/>
      <point x="751.15" y="127.18"/>
      <point x="698.04" y="81.74" type="curve"/>
      <point x="667.69" y="64.95"/>
      <point x="640.36" y="39.32"/>
      <point x="603.95" y="33.95" type="curve" smooth="yes"/>
      <point x="521.91" y="17.6"/>
      <point x="432.69" y="11.3"/>
      <point x="353.5" y="43.06" type="curve"/>
      <point x="325.07" y="74.04"/>
      <point x="278.71" y="76.96"/>
      <point x="259.4" y="117.36" type="curve"/>
      <point x="222.71" y="169.76"/>
      <point x="234.54" y="237.13"/>
      <point x="233.01" y="297.14" type="curve" smooth="yes"/>
      <point x="233.58" y="358.39"/>
      <point x="238.26" y="419.82"/>
      <point x="237.28" y="480.97" type="curve"/>
      <point x="222.29" y="584.14"/>
      <point x="213.16" y="696.05"/>
      <point x="262.79" y="791.71" type="curve" smooth="yes"/>
      <point x="300.8" y="860.73"/>
      <point x="384.88" y="883.74"/>
      <point x="458.5" y="887.49" type="curve" smooth="yes"/>
      <point x="476.45" y="888.83"/>
      <point x="494.44" y="889.72"/>
    </contour>
    <contour>
      <point x="588.04" y="855.34" type="curve" smooth="yes"/>
      <point x="530.27" y="854.06"/>
      <point x="486.61" y="782.32"/>
      <point x="519.72" y="732.36" type="curve"/>
      <point x="538.05" y="695.78"/>
      <point x="580.8" y="681.42"/>
      <point x="618.92" y="691.84" type="curve"/>
      <point x="656.99" y="698.92"/>
      <point x="682.52" y="735.71"/>
      <point x="679.22" y="773.66" type="curve"/>
      <point x="680.92" y="821.94"/>
      <point x="632.98" y="855.84"/>
    </contour>
    <contour>
      <point x="726.71" y="854.49" type="curve"/>
      <point x="771.72" y="862.38"/>
      <point x="809.34" y="810.3"/>
      <point x="782.66" y="771.57" type="curve" smooth="yes"/>
      <point x="764.71" y="742.64"/>
      <point x="745.77" y="748.27"/>
      <point x="742.05" y="779.19" type="curve"/>
      <point x="757.32" y="798.3"/>
      <point x="751.23" y="827.9"/>
      <point x="718.97" y="819.5" type="curve"/>
      <point x="701.27" y="838.92"/>
      <point x="688.78" y="852.22"/>
    </contour>
    <contour>
      <point x="600.71" y="849.54" type="curve" smooth="yes"/>
      <point x="659.94" y="846.46"/>
      <point x="700.42" y="766.93"/>
      <point x="657.51" y="721.16" type="curve" smooth="yes"/>
      <point x="618.64" y="675.09"/>
      <point x="533.97" y="690.7"/>
      <point x="516.13" y="749.17" type="curve" smooth="yes"/>
      <point x="497.21" y="802.37"/>
      <point x="547.52" y="853.9"/>
    </contour>
    <contour>
      <point x="383.74" y="844.85" type="curve" smooth="yes"/>
      <point x="337.22" y="847.58"/>
      <point x="291.69" y="804.51"/>
      <point x="300" y="756.55" type="curve"/>
      <point x="298.97" y="690.04"/>
      <point x="390.33" y="656.63"/>
      <point x="438.15" y="698.17" type="curve" smooth="yes"/>
      <point x="471.56" y="723.65"/>
      <point x="481.7" y="775.75"/>
      <point x="454.79" y="809.35" type="curve"/>
      <point x="439.34" y="832.19"/>
      <point x="410.97" y="845.11"/>
    </contour>
    <contour>
      <point x="243.69" y="841.54" type="curve"/>
      <point x="281.99" y="848.87"/>
      <point x="282.43" y="817.55"/>
      <point x="252.79" y="804.33" type="curve"/>
      <point x="218.99" y="809.86"/>
      <point x="229.47" y="778.18"/>
      <point x="238.13" y="763.35" type="curve"/>
      <point x="236.26" y="718.99"/>
      <point x="187.17" y="747.55"/>
      <point x="186.62" y="779.24" type="curve"/>
      <point x="181.44" y="813.3"/>
      <point x="210.53" y="841.47"/>
    </contour>
    <contour>
      <point x="387.05" y="839.34" type="curve" smooth="yes"/>
      <point x="431.98" y="841.22"/>
      <point x="472.89" y="799.57"/>
      <point x="464.91" y="754.24" type="curve"/>
      <point x="460.52" y="692.73"/>
      <point x="377.89" y="663.91"/>
      <point x="332.35" y="702.2" type="curve"/>
      <point x="286.89" y="734.21"/>
      <point x="296.73" y="813.76"/>
      <point x="349.56" y="832.72" type="curve"/>
      <point x="360.91" y="839.81"/>
      <point x="374.26" y="839.29"/>
    </contour>
    <contour>
      <point x="552.19" y="792.94" type="curve" smooth="yes"/>
      <point x="495.14" y="793.93"/>
      <point x="534.56" y="708.11"/>
      <point x="572.31" y="748.91" type="curve"/>
      <point x="585.24" y="765.89"/>
      <point x="574.48" y="791.94"/>
    </contour>
    <contour>
      <point x="331.91" y="786.4" type="curve"/>
      <point x="266.73" y="757.38"/>
      <point x="368.19" y="697.06"/>
      <point x="366.71" y="763.44" type="curve"/>
      <point x="365.1" y="779.37"/>
      <point x="346.1" y="787.43"/>
    </contour>
    <contour>
      <point x="489.59" y="715.01" type="curve"/>
      <point x="458.24" y="708.87"/>
      <point x="430.25" y="677.04"/>
      <point x="425.15" y="646" type="curve"/>
      <point x="431.76" y="621.78"/>
      <point x="471.66" y="639.09"/>
      <point x="455.62" y="607.42" type="curve"/>
      <point x="445.8" y="573.77"/>
      <point x="481.02" y="567.95"/>
      <point x="496.34" y="583.84" type="curve"/>
      <point x="524.08" y="553.2"/>
      <point x="540.56" y="597.36"/>
      <point x="531.8" y="622.28" type="curve"/>
      <point x="534.9" y="634.48"/>
      <point x="576.9" y="630.57"/>
      <point x="561.94" y="660.07" type="curve"/>
      <point x="548.46" y="681.26"/>
      <point x="526.73" y="693.22"/>
      <point x="511.63" y="711.43" type="curve"/>
      <point x="504.79" y="714.88"/>
      <point x="497.01" y="714.8"/>
    </contour>
    <contour>
      <point x="524.88" y="684.96" type="curve"/>
      <point x="556.69" y="680.76"/>
      <point x="574.99" y="623.18"/>
      <point x="527.7" y="634.03" type="curve"/>
      <point x="498.48" y="663.43"/>
      <point x="446.68" y="610.72"/>
      <point x="430.05" y="650.78" type="curve"/>
      <point x="436.53" y="710.47"/>
      <point x="496.4" y="649.28"/>
    </contour>
    <contour>
      <point x="490.71" y="638.65" type="curve" smooth="yes"/>
      <point x="490.7" y="638.64" type="line" smooth="yes"/>
      <point x="491.55" y="619.75"/>
      <point x="496.32" y="591.2"/>
      <point x="479.68" y="579.08" type="curve"/>
      <point x="452.79" y="573.77"/>
      <point x="456.94" y="619.65"/>
      <point x="467.25" y="631.54" type="curve"/>
      <point x="474.68" y="635.16"/>
      <point x="482.62" y="637.11"/>
    </contour>
    <contour>
      <point x="501.73" y="636.45" type="curve"/>
      <point x="537" y="641.5"/>
      <point x="539.2" y="563.6"/>
      <point x="503.12" y="583.23" type="curve"/>
      <point x="494.81" y="599.65"/>
      <point x="496.94" y="619.26"/>
    </contour>
    <contour>
      <point x="780.72" y="458.9" type="curve"/>
      <point x="802.27" y="468.85"/>
      <point x="847.99" y="414.56"/>
      <point x="815.96" y="424.19" type="curve"/>
      <point x="785.68" y="437.22"/>
      <point x="840.19" y="406.42"/>
      <point x="805" y="407.07" type="curve"/>
      <point x="788.29" y="412.39"/>
      <point x="767.62" y="420.26"/>
      <point x="774.1" y="441.25" type="curve" smooth="yes"/>
      <point x="775.06" y="446.65"/>
      <point x="771.67" y="459.01"/>
    </contour>
    <contour>
      <point x="220.87" y="451.33" type="curve"/>
      <point x="256.07" y="433.3"/>
      <point x="187" y="369.31"/>
      <point x="183.03" y="410.39" type="curve"/>
      <point x="213.17" y="432.32"/>
      <point x="161.41" y="397.88"/>
      <point x="174.9" y="428.44" type="curve"/>
      <point x="184.96" y="442.83"/>
      <point x="204.43" y="448.01"/>
    </contour>
    <contour>
      <point x="707.04" y="76.3" type="curve"/>
      <point x="733.34" y="82.15"/>
      <point x="763.05" y="12.39"/>
      <point x="734.83" y="26.82" type="curve"/>
      <point x="714.91" y="59.57"/>
      <point x="728.02" y="29.49"/>
      <point x="733.3" y="11.17" type="curve"/>
      <point x="705.79" y="2.99"/>
      <point x="689.79" y="42.34"/>
      <point x="671.56" y="54.17" type="curve"/>
      <point x="679.72" y="65.42"/>
      <point x="692" y="77.35"/>
    </contour>
    <contour>
      <point x="298.81" y="72.94" type="curve"/>
      <point x="315.07" y="72.8"/>
      <point x="358.62" y="39.79"/>
      <point x="325.55" y="34.88" type="curve"/>
      <point x="311.84" y="21.2"/>
      <point x="255.09" y="-17.66"/>
      <point x="267.94" y="25.51" type="curve"/>
      <point x="291.54" y="57.42"/>
      <point x="261.75" y="29.66"/>
      <point x="254.72" y="15.6" type="curve"/>
      <point x="237.91" y="42.21"/>
      <point x="276.87" y="67.17"/>
    </contour>
  </outline>
</glyph>
<glyph name="i_seti_go" format="2">
  <advance width="1000"/>
  <unicode hex="E627"/>
  <note>
i_seti_go
</note>
  <outline>
    <contour>
      <point x="511.49" y="899.9" type="curve" smooth="yes"/>
      <point x="428.22" y="898.48"/>
      <point x="333.31" y="891.22"/>
      <point x="273.93" y="824.78" type="curve"/>
      <point x="215.57" y="744.69"/>
      <point x="214.99" y="639.61"/>
      <point x="223.57" y="544.99" type="curve" smooth="yes"/>
      <point x="227.24" y="509.61"/>
      <point x="235.25" y="474.56"/>
      <point x="231.28" y="438.82" type="curve"/>
      <point x="230" y="349.07"/>
      <point x="221.26" y="258.94"/>
      <point x="230.92" y="169.46" type="curve"/>
      <point x="240.17" y="128.94"/>
      <point x="264.23" y="79.78"/>
      <point x="307.67" y="69.74" type="curve"/>
      <point x="339.12" y="40.58"/>
      <point x="378.08" y="21.91"/>
      <point x="421.74" y="18.85" type="curve" smooth="yes"/>
      <point x="495.45" y="11.95"/>
      <point x="573.09" y="14.08"/>
      <point x="642.62" y="41.79" type="curve"/>
      <point x="672.54" y="60.17"/>
      <point x="705.7" y="75.92"/>
      <point x="725.89" y="105.37" type="curve" smooth="yes"/>
      <point x="764.36" y="159.28"/>
      <point x="774.13" y="228.04"/>
      <point x="774.44" y="292.82" type="curve" smooth="yes"/>
      <point x="771.94" y="380.26"/>
      <point x="768.18" y="467.7"/>
      <point x="767.24" y="555.21" type="curve" smooth="yes"/>
      <point x="764.41" y="645.69"/>
      <point x="769.39" y="744.44"/>
      <point x="713.29" y="821.6" type="curve" smooth="yes"/>
      <point x="668.62" y="884.95"/>
      <point x="584.38" y="901.5"/>
    </contour>
    <contour>
      <point x="588.43" y="864.62" type="curve" smooth="yes"/>
      <point x="639.49" y="866.56"/>
      <point x="691.01" y="821.02"/>
      <point x="680.6" y="767.71" type="curve"/>
      <point x="679.79" y="721.58"/>
      <point x="633.03" y="691.86"/>
      <point x="590.12" y="695.51" type="curve"/>
      <point x="528.23" y="692.79"/>
      <point x="483.3" y="775.07"/>
      <point x="521.61" y="825.35" type="curve"/>
      <point x="535.9" y="848.02"/>
      <point x="561.79" y="862.98"/>
    </contour>
    <contour>
      <point x="729.55" y="863.77" type="curve" smooth="yes"/>
      <point x="676.25" y="862.3"/>
      <point x="726.89" y="817.67"/>
      <point x="752.83" y="821.7" type="curve"/>
      <point x="765.05" y="803.1"/>
      <point x="733.56" y="792.16"/>
      <point x="749.74" y="774.28" type="curve"/>
      <point x="762.45" y="727.6"/>
      <point x="814.87" y="807.73"/>
      <point x="790.32" y="832.79" type="curve"/>
      <point x="780.41" y="856.35"/>
      <point x="753.08" y="864.55"/>
    </contour>
    <contour>
      <point x="601.01" y="854.87" type="curve" smooth="yes"/>
      <point x="552.5" y="859.35"/>
      <point x="504.64" y="813.28"/>
      <point x="517.21" y="763.94" type="curve" smooth="yes"/>
      <point x="529.51" y="709.71"/>
      <point x="600.71" y="686.57"/>
      <point x="644.23" y="719.68" type="curve" smooth="yes"/>
      <point x="689.84" y="750.34"/>
      <point x="677.76" y="824.41"/>
      <point x="629.84" y="846.12" type="curve" smooth="yes"/>
      <point x="620.99" y="851.03"/>
      <point x="611.18" y="854.36"/>
    </contour>
    <contour>
      <point x="380.54" y="853.96" type="curve"/>
      <point x="431.68" y="856.26"/>
      <point x="478.68" y="806.22"/>
      <point x="467.12" y="755.06" type="curve" smooth="yes"/>
      <point x="457.72" y="701.17"/>
      <point x="392.43" y="669.89"/>
      <point x="343.8" y="694.18" type="curve"/>
      <point x="308.5" y="708.33"/>
      <point x="288.92" y="747.03"/>
      <point x="295.53" y="784.1" type="curve"/>
      <point x="297.93" y="825.03"/>
      <point x="341.5" y="855.93"/>
    </contour>
    <contour>
      <point x="238.01" y="850.59" type="curve" smooth="yes"/>
      <point x="193.51" y="853.17"/>
      <point x="161.09" y="797.18"/>
      <point x="190.88" y="761.94" type="curve"/>
      <point x="207.47" y="730.34"/>
      <point x="239.68" y="753.9"/>
      <point x="230.61" y="778.82" type="curve"/>
      <point x="204.38" y="800.4"/>
      <point x="237.72" y="815.93"/>
      <point x="255.98" y="818.05" type="curve"/>
      <point x="283.39" y="844.33"/>
      <point x="271.39" y="849.01"/>
    </contour>
    <contour>
      <point x="383.76" y="844.04" type="curve" smooth="yes"/>
      <point x="336.1" y="849.49"/>
      <point x="292.57" y="801.61"/>
      <point x="304.64" y="754.57" type="curve"/>
      <point x="314.87" y="694.13"/>
      <point x="401.95" y="675.57"/>
      <point x="440.23" y="721.11" type="curve"/>
      <point x="477.18" y="758.35"/>
      <point x="457.6" y="832.56"/>
      <point x="403.9" y="840.86" type="curve"/>
      <point x="397.36" y="842.85"/>
      <point x="390.53" y="843.47"/>
    </contour>
    <contour>
      <point x="550.73" y="801.19" type="curve"/>
      <point x="614.84" y="802.38"/>
      <point x="564.79" y="710.73"/>
      <point x="529.82" y="759.69" type="curve" smooth="yes"/>
      <point x="516.37" y="776.37"/>
      <point x="532.84" y="798.23"/>
    </contour>
    <contour>
      <point x="332.31" y="794.48" type="curve" smooth="yes"/>
      <point x="371.39" y="802.73"/>
      <point x="381.59" y="737.16"/>
      <point x="339.05" y="739.5" type="curve"/>
      <point x="304.79" y="737.02"/>
      <point x="301.42" y="785.79"/>
    </contour>
    <contour>
      <point x="488.24" y="721.81" type="curve" smooth="yes"/>
      <point x="488.23" y="721.82" type="line" smooth="yes"/>
      <point x="523.5" y="723.41"/>
      <point x="534.11" y="687.61"/>
      <point x="559.94" y="670.73" type="curve"/>
      <point x="578.54" y="642.34"/>
      <point x="540.42" y="636.75"/>
      <point x="531.09" y="629.51" type="curve"/>
      <point x="536.54" y="605.58"/>
      <point x="530.54" y="559.46"/>
      <point x="497.1" y="585.35" type="curve" smooth="yes"/>
      <point x="487.82" y="592.67"/>
      <point x="455.07" y="558.57"/>
      <point x="453.45" y="596.97" type="curve" smooth="yes"/>
      <point x="452.43" y="618.49"/>
      <point x="466.86" y="642.35"/>
      <point x="433.26" y="637.36" type="curve"/>
      <point x="401.35" y="667.52"/>
      <point x="454.62" y="700.52"/>
      <point x="473.3" y="719.07" type="curve"/>
      <point x="478.12" y="720.71"/>
      <point x="483.19" y="721.4"/>
    </contour>
    <contour>
      <point x="521.86" y="689.29" type="curve"/>
      <point x="494.9" y="656.18"/>
      <point x="431.66" y="714.3"/>
      <point x="433.06" y="652.24" type="curve"/>
      <point x="457.8" y="625.75"/>
      <point x="499.01" y="666.49"/>
      <point x="529.13" y="640.39" type="curve"/>
      <point x="573.77" y="637.44"/>
      <point x="547.28" y="683.92"/>
    </contour>
    <contour>
      <point x="488.15" y="641.63" type="curve"/>
      <point x="459.65" y="643.72"/>
      <point x="456.75" y="617.56"/>
      <point x="460.67" y="595.71" type="curve"/>
      <point x="480.71" y="564.94"/>
      <point x="493.71" y="611.56"/>
      <point x="489.2" y="631.35" type="curve" smooth="yes"/>
      <point x="488.6" y="634.58"/>
      <point x="490.69" y="639.09"/>
    </contour>
    <contour>
      <point x="501.05" y="640.64" type="curve"/>
      <point x="483.98" y="619.43"/>
      <point x="509.14" y="557.7"/>
      <point x="526.63" y="599.47" type="curve"/>
      <point x="529.95" y="619.2"/>
      <point x="523.83" y="640.25"/>
    </contour>
    <contour>
      <point x="784.5" y="461.19" type="curve"/>
      <point x="775.59" y="454.11"/>
      <point x="771.18" y="423.1"/>
      <point x="787.45" y="418.5" type="curve"/>
      <point x="802.63" y="398.87"/>
      <point x="839.93" y="415.28"/>
      <point x="808.61" y="428.37" type="curve" smooth="yes"/>
      <point x="822" y="422.76"/>
      <point x="842.52" y="417.91"/>
      <point x="827.16" y="442.1" type="curve"/>
      <point x="816.26" y="454.14"/>
      <point x="799.7" y="457.92"/>
    </contour>
    <contour>
      <point x="214.79" y="453.48" type="curve"/>
      <point x="194.99" y="457.68"/>
      <point x="147.71" y="421.1"/>
      <point x="176.28" y="417.43" type="curve"/>
      <point x="205.1" y="431.93"/>
      <point x="150.71" y="395.32"/>
      <point x="189.73" y="397.23" type="curve"/>
      <point x="211.65" y="400.79"/>
      <point x="239.47" y="440.15"/>
    </contour>
    <contour>
      <point x="709.53" y="71.85" type="curve" smooth="yes"/>
      <point x="679.29" y="71.71"/>
      <point x="659.25" y="38.44"/>
      <point x="696.99" y="26.83" type="curve"/>
      <point x="702.96" y="3.62"/>
      <point x="753.42" y="-7.92"/>
      <point x="729.53" y="25.77" type="curve"/>
      <point x="712.37" y="66.61"/>
      <point x="753.56" y="-14.89"/>
      <point x="750.01" y="30.27" type="curve"/>
      <point x="743.3" y="48.43"/>
      <point x="731.19" y="70.1"/>
    </contour>
    <contour>
      <point x="294.11" y="68.41" type="curve" smooth="yes"/>
      <point x="270.48" y="65.49"/>
      <point x="228.87" y="28.96"/>
      <point x="252.33" y="11.18" type="curve"/>
      <point x="256.87" y="30.07"/>
      <point x="286.89" y="49.21"/>
      <point x="262.7" y="20.15" type="curve"/>
      <point x="252.35" y="-27.82"/>
      <point x="310.45" y="23.64"/>
      <point x="328.78" y="33.21" type="curve"/>
      <point x="348.99" y="38.49"/>
      <point x="305.43" y="70.46"/>
    </contour>
  </outline>
</glyph>
